<svg width="74" height="74" viewBox="0 0 74 74" fill="none" xmlns="http://www.w3.org/2000/svg">
<g clip-path="url(#clip0_18_37)">
<rect x="0.00012207" y="3.05176e-05" width="74" height="74" rx="37" fill="#020721"/>
<path d="M16.7001 62.9401C16.0001 62.9401 15.6501 62.5434 15.6501 61.7501C15.6501 61.3301 15.7901 60.6534 16.0701 59.7201C16.3968 58.7867 16.7235 57.8534 17.0501 56.9201C17.4235 55.9867 17.7035 55.3101 17.8901 54.8901C18.2635 53.9101 18.9168 52.3701 19.8501 50.2701C20.7835 48.1234 21.8568 45.6734 23.0701 42.9201C24.2835 40.1667 25.5435 37.3434 26.8501 34.4501C28.1568 31.5101 29.3935 28.7567 30.5601 26.1901C31.7735 23.6234 32.8235 21.5001 33.7101 19.8201V19.3301C33.7101 18.3967 34.2235 17.9301 35.2501 17.9301C35.9501 17.9301 36.5568 18.1867 37.0701 18.7001C37.1635 18.7934 37.2101 19.0034 37.2101 19.3301C37.2101 19.6567 37.2101 19.8667 37.2101 19.9601C37.2101 20.4267 37.1868 20.8934 37.1401 21.3601C37.0935 21.7801 37.0468 22.2001 37.0001 22.6201C36.7668 25.3267 36.5568 27.9634 36.3701 30.5301C36.2301 33.0501 36.1601 35.4301 36.1601 37.6701C36.1601 42.3834 36.5335 46.2334 37.2801 49.2201C38.0735 52.1601 39.3335 53.6301 41.0601 53.6301C41.9001 53.6301 42.8568 53.1167 43.9301 52.0901C45.0501 51.0167 46.1935 49.6167 47.3601 47.8901C48.5735 46.1167 49.7868 44.2267 51.0001 42.2201C52.2135 40.1667 53.3335 38.1367 54.3601 36.1301C55.4335 34.1234 56.3435 32.3267 57.0901 30.7401C57.8835 29.1067 58.4668 27.8701 58.8401 27.0301L60.8001 22.6201C61.5001 21.0334 61.9901 19.8434 62.2701 19.0501C62.5501 18.2101 62.8768 17.6267 63.2501 17.3001C63.6235 16.9734 64.3001 16.8101 65.2801 16.8101H65.5601C65.8868 16.8101 66.1901 16.8567 66.4701 16.9501C66.7501 16.9967 66.8435 17.1834 66.7501 17.5101C65.7701 20.1234 64.9068 23.0401 64.1601 26.2601C63.4601 29.4334 62.9001 32.7001 62.4801 36.0601C62.1068 39.4201 61.9201 42.7101 61.9201 45.9301C61.9201 48.3567 62.0368 50.6901 62.2701 52.9301C62.5501 55.1701 62.9701 57.1767 63.5301 58.9501C63.5768 59.0901 63.6001 59.2767 63.6001 59.5101C63.6001 59.9767 63.4135 60.3034 63.0401 60.4901C62.7135 60.6767 62.3635 60.7701 61.9901 60.7701C61.5701 60.7701 61.1501 60.4667 60.7301 59.8601C60.3101 59.2534 59.9835 58.3667 59.7501 57.2001C59.5635 56.3134 59.4001 54.8901 59.2601 52.9301C59.1201 50.9701 59.0501 48.5201 59.0501 45.5801C59.0501 39.6067 59.6568 33.7034 60.8701 27.8701C59.0035 31.6501 57.1135 35.2667 55.2001 38.7201C53.2868 42.1734 51.3968 45.2301 49.5301 47.8901C47.7101 50.5501 45.9368 52.6501 44.2101 54.1901C42.5301 55.7301 40.9201 56.5001 39.3801 56.5001C37.8868 56.5001 36.6735 55.5434 35.7401 53.6301C34.8535 51.7167 34.2001 49.1967 33.7801 46.0701C33.3601 42.9434 33.1501 39.5834 33.1501 35.9901C33.1501 33.8434 33.2201 31.6734 33.3601 29.4801C33.5001 27.2867 33.6868 25.1867 33.9201 23.1801C33.4535 24.3001 32.7068 26.0267 31.6801 28.3601C30.7001 30.6934 29.5568 33.3534 28.2501 36.3401C26.9901 39.3267 25.6835 42.4067 24.3301 45.5801C23.0235 48.7534 21.8101 51.7634 20.6901 54.6101C19.5701 57.4101 18.6835 59.8134 18.0301 61.8201C17.8435 62.5667 17.4001 62.9401 16.7001 62.9401Z" fill="white"/>
<path d="M16.0701 59.7201L15.1263 59.3897L15.1188 59.4111L15.1123 59.4327L16.0701 59.7201ZM17.0501 56.9201L16.1216 56.5487L16.1135 56.569L16.1063 56.5897L17.0501 56.9201ZM17.8901 54.8901L18.8039 55.2962L18.815 55.2714L18.8246 55.2461L17.8901 54.8901ZM19.8501 50.2701L20.764 50.6762L20.7672 50.6688L19.8501 50.2701ZM23.0701 42.9201L22.155 42.5168L23.0701 42.9201ZM26.8501 34.4501L27.7615 34.8617L27.7639 34.8562L26.8501 34.4501ZM30.5601 26.1901L29.656 25.7627L29.6529 25.7694L29.6498 25.7763L30.5601 26.1901ZM33.7101 19.8201L34.5945 20.2868L34.7101 20.0678V19.8201H33.7101ZM37.0701 18.7001L37.7772 17.993L37.7772 17.9929L37.0701 18.7001ZM37.1401 21.3601L38.1341 21.4705L38.1352 21.4596L37.1401 21.3601ZM37.0001 22.6201L36.0062 22.5096L36.0049 22.5219L36.0038 22.5342L37.0001 22.6201ZM36.3701 30.5301L35.3728 30.4575L35.3721 30.4661L35.3717 30.4746L36.3701 30.5301ZM37.2801 49.2201L36.31 49.4626L36.3122 49.4716L36.3147 49.4806L37.2801 49.2201ZM43.9301 52.0901L44.6213 52.8127L44.622 52.812L43.9301 52.0901ZM47.3601 47.8901L46.5348 47.3254L46.5315 47.3302L47.3601 47.8901ZM51.0001 42.2201L51.8559 42.7375L51.861 42.7288L51.0001 42.2201ZM54.3601 36.1301L53.4783 35.6584L53.474 35.6665L53.4699 35.6746L54.3601 36.1301ZM57.0901 30.7401L56.1905 30.3031L56.1853 30.3143L57.0901 30.7401ZM58.8401 27.0301L59.7539 27.4362L58.8401 27.0301ZM60.8001 22.6201L61.7139 23.0262L61.715 23.0237L60.8001 22.6201ZM62.2701 19.0501L63.2131 19.3829L63.216 19.3746L63.2188 19.3663L62.2701 19.0501ZM63.2501 17.3001L63.9086 18.0526V18.0526L63.2501 17.3001ZM66.4701 16.9501L66.1539 17.8987L66.2283 17.9236L66.3057 17.9365L66.4701 16.9501ZM66.7501 17.5101L67.6865 17.8612L67.7006 17.8235L67.7116 17.7848L66.7501 17.5101ZM64.1601 26.2601L63.1859 26.0342L63.1836 26.0446L64.1601 26.2601ZM62.4801 36.0601L61.4878 35.936L61.4862 35.9496L62.4801 36.0601ZM62.2701 52.9301L61.2755 53.0337L61.2766 53.0439L61.2778 53.0541L62.2701 52.9301ZM63.5301 58.9501L62.5765 59.2512L62.5789 59.2588L62.5814 59.2663L63.5301 58.9501ZM63.0401 60.4901L62.5929 59.5956L62.5681 59.608L62.544 59.6218L63.0401 60.4901ZM60.7301 59.8601L61.5523 59.2909V59.2908L60.7301 59.8601ZM59.7501 57.2001L60.7307 57.0039L60.7287 56.9941L59.7501 57.2001ZM59.2601 52.9301L58.2627 53.0013L59.2601 52.9301ZM60.8701 27.8701L61.8492 28.0737L59.9735 27.4273L60.8701 27.8701ZM55.2001 38.7201L54.3254 38.2354L55.2001 38.7201ZM49.5301 47.8901L48.7115 47.3156L48.7048 47.3254L49.5301 47.8901ZM44.2101 54.1901L43.5444 53.4437L43.5344 53.4529L44.2101 54.1901ZM35.7401 53.6301L34.8328 54.0505L34.837 54.0595L34.8414 54.0685L35.7401 53.6301ZM33.7801 46.0701L34.7712 45.9369L33.7801 46.0701ZM33.9201 23.1801L34.9134 23.2956L32.997 22.7954L33.9201 23.1801ZM31.6801 28.3601L30.7648 27.9573L30.7614 27.965L30.7581 27.9728L31.6801 28.3601ZM28.2501 36.3401L27.3339 35.9392L27.3288 35.9514L28.2501 36.3401ZM24.3301 45.5801L23.4102 45.1877L23.4054 45.1993L24.3301 45.5801ZM20.6901 54.6101L21.6186 54.9815L21.6207 54.9762L20.6901 54.6101ZM18.0301 61.8201L17.0793 61.5105L17.0684 61.5437L17.06 61.5775L18.0301 61.8201ZM16.7001 61.9401C16.6171 61.9401 16.5884 61.928 16.5941 61.9302C16.6058 61.9346 16.6355 61.9504 16.6625 61.9809C16.687 62.0087 16.6847 62.021 16.6751 61.9885C16.6646 61.9528 16.6501 61.8781 16.6501 61.7501H14.6501C14.6501 62.2722 14.7626 62.8506 15.1628 63.3042C15.584 63.7816 16.1612 63.9401 16.7001 63.9401V61.9401ZM16.6501 61.7501C16.6501 61.4903 16.7489 60.9376 17.0279 60.0074L15.1123 59.4327C14.8314 60.3691 14.6501 61.1698 14.6501 61.7501H16.6501ZM17.014 60.0504C17.3406 59.1171 17.6673 58.1837 17.994 57.2504L16.1063 56.5897C15.7796 57.523 15.4529 58.4564 15.1263 59.3897L17.014 60.0504ZM17.9786 57.2914C18.3514 56.3595 18.6255 55.6977 18.8039 55.2962L16.9763 54.4839C16.7814 54.9224 16.4955 55.614 16.1216 56.5487L17.9786 57.2914ZM18.8246 55.2461C19.1876 54.2932 19.8314 52.7743 20.7639 50.6762L18.9363 49.8639C18.0021 51.9658 17.3393 53.5269 16.9556 54.5341L18.8246 55.2461ZM20.7672 50.6688C21.6997 48.524 22.7724 46.0755 23.9852 43.3233L22.155 42.5168C20.9412 45.2712 19.8672 47.7228 18.9331 49.8713L20.7672 50.6688ZM23.9852 43.3233C25.1973 40.5729 26.456 37.7524 27.7615 34.8616L25.9388 34.0385C24.6309 36.9344 23.3697 39.7605 22.155 42.5168L23.9852 43.3233ZM27.7639 34.8562C29.0696 31.9184 30.3051 29.1676 31.4705 26.6039L29.6498 25.7763C28.4818 28.3458 27.244 31.1017 25.9363 34.0439L27.7639 34.8562ZM31.4642 26.6174C32.674 24.0583 33.7171 21.9492 34.5945 20.2868L32.8257 19.3533C31.9298 21.0509 30.8729 23.1885 29.656 25.7627L31.4642 26.6174ZM34.7101 19.8201V19.3301H32.7101V19.8201H34.7101ZM34.7101 19.3301C34.7101 19.1858 34.7303 19.1027 34.7452 19.0618C34.7581 19.0266 34.7676 19.0202 34.7678 19.02C34.7691 19.0188 34.8686 18.9301 35.2501 18.9301V16.9301C34.605 16.9301 33.9345 17.0746 33.4224 17.5401C32.8923 18.022 32.7101 18.6834 32.7101 19.3301H34.7101ZM35.2501 18.9301C35.6741 18.9301 36.0295 19.0736 36.363 19.4072L37.7772 17.9929C37.0841 17.2998 36.2261 16.9301 35.2501 16.9301V18.9301ZM36.363 19.4072C36.2841 19.3282 36.2428 19.253 36.2234 19.211C36.2132 19.189 36.2071 19.1718 36.2037 19.1613C36.2003 19.1507 36.199 19.1447 36.1989 19.1445C36.1989 19.1442 36.1997 19.148 36.201 19.1566C36.2022 19.1651 36.2037 19.1773 36.2051 19.1936C36.208 19.2266 36.2101 19.2715 36.2101 19.3301H38.2101C38.2101 19.1272 38.1964 18.9134 38.1513 18.7106C38.1102 18.5256 38.0185 18.2343 37.7772 17.993L36.363 19.4072ZM36.2101 19.3301C36.2101 19.3307 36.2101 19.3313 36.2101 19.332C36.2101 19.3326 36.2101 19.3332 36.2101 19.3339C36.2101 19.3345 36.2101 19.3352 36.2101 19.3358C36.2101 19.3364 36.2101 19.3371 36.2101 19.3377C36.2101 19.3383 36.2101 19.339 36.2101 19.3396C36.2101 19.3402 36.2101 19.3409 36.2101 19.3415C36.2101 19.3421 36.2101 19.3428 36.2101 19.3434C36.2101 19.344 36.2101 19.3447 36.2101 19.3453C36.2101 19.3459 36.2101 19.3465 36.2101 19.3472C36.2101 19.3478 36.2101 19.3484 36.2101 19.3491C36.2101 19.3497 36.2101 19.3503 36.2101 19.351C36.2101 19.3516 36.2101 19.3522 36.2101 19.3528C36.2101 19.3535 36.2101 19.3541 36.2101 19.3547C36.2101 19.3553 36.2101 19.356 36.2101 19.3566C36.2101 19.3572 36.2101 19.3578 36.2101 19.3585C36.2101 19.3591 36.2101 19.3597 36.2101 19.3603C36.2101 19.361 36.2101 19.3616 36.2101 19.3622C36.2101 19.3628 36.2101 19.3635 36.2101 19.3641C36.2101 19.3647 36.2101 19.3653 36.2101 19.3659C36.2101 19.3666 36.2101 19.3672 36.2101 19.3678C36.2101 19.3684 36.2101 19.369 36.2101 19.3697C36.2101 19.3703 36.2101 19.3709 36.2101 19.3715C36.2101 19.3721 36.2101 19.3728 36.2101 19.3734C36.2101 19.374 36.2101 19.3746 36.2101 19.3752C36.2101 19.3758 36.2101 19.3765 36.2101 19.3771C36.2101 19.3777 36.2101 19.3783 36.2101 19.3789C36.2101 19.3795 36.2101 19.3802 36.2101 19.3808C36.2101 19.3814 36.2101 19.382 36.2101 19.3826C36.2101 19.3832 36.2101 19.3838 36.2101 19.3844C36.2101 19.3851 36.2101 19.3857 36.2101 19.3863C36.2101 19.3869 36.2101 19.3875 36.2101 19.3881C36.2101 19.3887 36.2101 19.3893 36.2101 19.3899C36.2101 19.3905 36.2101 19.3912 36.2101 19.3918C36.2101 19.3924 36.2101 19.393 36.2101 19.3936C36.2101 19.3942 36.2101 19.3948 36.2101 19.3954C36.2101 19.396 36.2101 19.3966 36.2101 19.3972C36.2101 19.3978 36.2101 19.3984 36.2101 19.3991C36.2101 19.3997 36.2101 19.4003 36.2101 19.4009C36.2101 19.4015 36.2101 19.4021 36.2101 19.4027C36.2101 19.4033 36.2101 19.4039 36.2101 19.4045C36.2101 19.4051 36.2101 19.4057 36.2101 19.4063C36.2101 19.4069 36.2101 19.4075 36.2101 19.4081C36.2101 19.4087 36.2101 19.4093 36.2101 19.4099C36.2101 19.4105 36.2101 19.4111 36.2101 19.4117C36.2101 19.4123 36.2101 19.4129 36.2101 19.4135C36.2101 19.4141 36.2101 19.4147 36.2101 19.4153C36.2101 19.4159 36.2101 19.4165 36.2101 19.4171C36.2101 19.4177 36.2101 19.4183 36.2101 19.4189C36.2101 19.4195 36.2101 19.42 36.2101 19.4206C36.2101 19.4212 36.2101 19.4218 36.2101 19.4224C36.2101 19.423 36.2101 19.4236 36.2101 19.4242C36.2101 19.4248 36.2101 19.4254 36.2101 19.426C36.2101 19.4266 36.2101 19.4272 36.2101 19.4278C36.2101 19.4283 36.2101 19.4289 36.2101 19.4295C36.2101 19.4301 36.2101 19.4307 36.2101 19.4313C36.2101 19.4319 36.2101 19.4325 36.2101 19.4331C36.2101 19.4336 36.2101 19.4342 36.2101 19.4348C36.2101 19.4354 36.2101 19.436 36.2101 19.4366C36.2101 19.4372 36.2101 19.4378 36.2101 19.4383C36.2101 19.4389 36.2101 19.4395 36.2101 19.4401C36.2101 19.4407 36.2101 19.4413 36.2101 19.4418C36.2101 19.4424 36.2101 19.443 36.2101 19.4436C36.2101 19.4442 36.2101 19.4448 36.2101 19.4453C36.2101 19.4459 36.2101 19.4465 36.2101 19.4471C36.2101 19.4477 36.2101 19.4483 36.2101 19.4488C36.2101 19.4494 36.2101 19.45 36.2101 19.4506C36.2101 19.4511 36.2101 19.4517 36.2101 19.4523C36.2101 19.4529 36.2101 19.4535 36.2101 19.454C36.2101 19.4546 36.2101 19.4552 36.2101 19.4558C36.2101 19.4563 36.2101 19.4569 36.2101 19.4575C36.2101 19.4581 36.2101 19.4587 36.2101 19.4592C36.2101 19.4598 36.2101 19.4604 36.2101 19.4609C36.2101 19.4615 36.2101 19.4621 36.2101 19.4627C36.2101 19.4632 36.2101 19.4638 36.2101 19.4644C36.2101 19.465 36.2101 19.4655 36.2101 19.4661C36.2101 19.4667 36.2101 19.4672 36.2101 19.4678C36.2101 19.4684 36.2101 19.469 36.2101 19.4695C36.2101 19.4701 36.2101 19.4707 36.2101 19.4712C36.2101 19.4718 36.2101 19.4724 36.2101 19.4729C36.2101 19.4735 36.2101 19.4741 36.2101 19.4746C36.2101 19.4752 36.2101 19.4758 36.2101 19.4763C36.2101 19.4769 36.2101 19.4775 36.2101 19.478C36.2101 19.4786 36.2101 19.4792 36.2101 19.4797C36.2101 19.4803 36.2101 19.4809 36.2101 19.4814C36.2101 19.482 36.2101 19.4825 36.2101 19.4831C36.2101 19.4837 36.2101 19.4842 36.2101 19.4848C36.2101 19.4854 36.2101 19.4859 36.2101 19.4865C36.2101 19.487 36.2101 19.4876 36.2101 19.4882C36.2101 19.4887 36.2101 19.4893 36.2101 19.4898C36.2101 19.4904 36.2101 19.491 36.2101 19.4915C36.2101 19.4921 36.2101 19.4926 36.2101 19.4932C36.2101 19.4937 36.2101 19.4943 36.2101 19.4949C36.2101 19.4954 36.2101 19.496 36.2101 19.4965C36.2101 19.4971 36.2101 19.4976 36.2101 19.4982C36.2101 19.4987 36.2101 19.4993 36.2101 19.4998C36.2101 19.5004 36.2101 19.501 36.2101 19.5015C36.2101 19.5021 36.2101 19.5026 36.2101 19.5032C36.2101 19.5037 36.2101 19.5043 36.2101 19.5048C36.2101 19.5054 36.2101 19.5059 36.2101 19.5065C36.2101 19.507 36.2101 19.5076 36.2101 19.5081C36.2101 19.5087 36.2101 19.5092 36.2101 19.5098C36.2101 19.5103 36.2101 19.5109 36.2101 19.5114C36.2101 19.5119 36.2101 19.5125 36.2101 19.513C36.2101 19.5136 36.2101 19.5141 36.2101 19.5147C36.2101 19.5152 36.2101 19.5158 36.2101 19.5163C36.2101 19.5169 36.2101 19.5174 36.2101 19.5179C36.2101 19.5185 36.2101 19.519 36.2101 19.5196C36.2101 19.5201 36.2101 19.5207 36.2101 19.5212C36.2101 19.5217 36.2101 19.5223 36.2101 19.5228C36.2101 19.5234 36.2101 19.5239 36.2101 19.5245C36.2101 19.525 36.2101 19.5255 36.2101 19.5261C36.2101 19.5266 36.2101 19.5271 36.2101 19.5277C36.2101 19.5282 36.2101 19.5288 36.2101 19.5293C36.2101 19.5298 36.2101 19.5304 36.2101 19.5309C36.2101 19.5314 36.2101 19.532 36.2101 19.5325C36.2101 19.5331 36.2101 19.5336 36.2101 19.5341C36.2101 19.5347 36.2101 19.5352 36.2101 19.5357C36.2101 19.5363 36.2101 19.5368 36.2101 19.5373C36.2101 19.5379 36.2101 19.5384 36.2101 19.5389C36.2101 19.5395 36.2101 19.54 36.2101 19.5405C36.2101 19.5411 36.2101 19.5416 36.2101 19.5421C36.2101 19.5426 36.2101 19.5432 36.2101 19.5437C36.2101 19.5442 36.2101 19.5448 36.2101 19.5453C36.2101 19.5458 36.2101 19.5463 36.2101 19.5469C36.2101 19.5474 36.2101 19.5479 36.2101 19.5485C36.2101 19.549 36.2101 19.5495 36.2101 19.55C36.2101 19.5506 36.2101 19.5511 36.2101 19.5516C36.2101 19.5521 36.2101 19.5527 36.2101 19.5532C36.2101 19.5537 36.2101 19.5542 36.2101 19.5548C36.2101 19.5553 36.2101 19.5558 36.2101 19.5563C36.2101 19.5568 36.2101 19.5574 36.2101 19.5579C36.2101 19.5584 36.2101 19.5589 36.2101 19.5595C36.2101 19.56 36.2101 19.5605 36.2101 19.561C36.2101 19.5615 36.2101 19.5621 36.2101 19.5626C36.2101 19.5631 36.2101 19.5636 36.2101 19.5641C36.2101 19.5646 36.2101 19.5652 36.2101 19.5657C36.2101 19.5662 36.2101 19.5667 36.2101 19.5672C36.2101 19.5677 36.2101 19.5683 36.2101 19.5688C36.2101 19.5693 36.2101 19.5698 36.2101 19.5703C36.2101 19.5708 36.2101 19.5713 36.2101 19.5719C36.2101 19.5724 36.2101 19.5729 36.2101 19.5734C36.2101 19.5739 36.2101 19.5744 36.2101 19.5749C36.2101 19.5754 36.2101 19.576 36.2101 19.5765C36.2101 19.577 36.2101 19.5775 36.2101 19.578C36.2101 19.5785 36.2101 19.579 36.2101 19.5795C36.2101 19.58 36.2101 19.5805 36.2101 19.5811C36.2101 19.5816 36.2101 19.5821 36.2101 19.5826C36.2101 19.5831 36.2101 19.5836 36.2101 19.5841C36.2101 19.5846 36.2101 19.5851 36.2101 19.5856C36.2101 19.5861 36.2101 19.5866 36.2101 19.5871C36.2101 19.5876 36.2101 19.5881 36.2101 19.5886C36.2101 19.5891 36.2101 19.5896 36.2101 19.5901C36.2101 19.5907 36.2101 19.5912 36.2101 19.5917C36.2101 19.5922 36.2101 19.5927 36.2101 19.5932C36.2101 19.5937 36.2101 19.5942 36.2101 19.5947C36.2101 19.5952 36.2101 19.5957 36.2101 19.5962C36.2101 19.5967 36.2101 19.5972 36.2101 19.5977C36.2101 19.5982 36.2101 19.5987 36.2101 19.5991C36.2101 19.5996 36.2101 19.6001 36.2101 19.6006C36.2101 19.6011 36.2101 19.6016 36.2101 19.6021C36.2101 19.6026 36.2101 19.6031 36.2101 19.6036C36.2101 19.6041 36.2101 19.6046 36.2101 19.6051C36.2101 19.6056 36.2101 19.6061 36.2101 19.6066C36.2101 19.6071 36.2101 19.6076 36.2101 19.6081C36.2101 19.6085 36.2101 19.609 36.2101 19.6095C36.2101 19.61 36.2101 19.6105 36.2101 19.611C36.2101 19.6115 36.2101 19.612 36.2101 19.6125C36.2101 19.613 36.2101 19.6134 36.2101 19.6139C36.2101 19.6144 36.2101 19.6149 36.2101 19.6154C36.2101 19.6159 36.2101 19.6164 36.2101 19.6169C36.2101 19.6173 36.2101 19.6178 36.2101 19.6183C36.2101 19.6188 36.2101 19.6193 36.2101 19.6198C36.2101 19.6203 36.2101 19.6207 36.2101 19.6212C36.2101 19.6217 36.2101 19.6222 36.2101 19.6227C36.2101 19.6232 36.2101 19.6236 36.2101 19.6241C36.2101 19.6246 36.2101 19.6251 36.2101 19.6256C36.2101 19.6261 36.2101 19.6265 36.2101 19.627C36.2101 19.6275 36.2101 19.628 36.2101 19.6285C36.2101 19.6289 36.2101 19.6294 36.2101 19.6299C36.2101 19.6304 36.2101 19.6309 36.2101 19.6313C36.2101 19.6318 36.2101 19.6323 36.2101 19.6328C36.2101 19.6332 36.2101 19.6337 36.2101 19.6342C36.2101 19.6347 36.2101 19.6351 36.2101 19.6356C36.2101 19.6361 36.2101 19.6366 36.2101 19.637C36.2101 19.6375 36.2101 19.638 36.2101 19.6385C36.2101 19.6389 36.2101 19.6394 36.2101 19.6399C36.2101 19.6404 36.2101 19.6408 36.2101 19.6413C36.2101 19.6418 36.2101 19.6422 36.2101 19.6427C36.2101 19.6432 36.2101 19.6437 36.2101 19.6441C36.2101 19.6446 36.2101 19.6451 36.2101 19.6455C36.2101 19.646 36.2101 19.6465 36.2101 19.6469C36.2101 19.6474 36.2101 19.6479 36.2101 19.6483C36.2101 19.6488 36.2101 19.6493 36.2101 19.6497C36.2101 19.6502 36.2101 19.6507 36.2101 19.6511C36.2101 19.6516 36.2101 19.6521 36.2101 19.6525C36.2101 19.653 36.2101 19.6535 36.2101 19.6539C36.2101 19.6544 36.2101 19.6549 36.2101 19.6553C36.2101 19.6558 36.2101 19.6562 36.2101 19.6567C36.2101 19.6572 36.2101 19.6576 36.2101 19.6581C36.2101 19.6585 36.2101 19.659 36.2101 19.6595C36.2101 19.6599 36.2101 19.6604 36.2101 19.6608C36.2101 19.6613 36.2101 19.6618 36.2101 19.6622C36.2101 19.6627 36.2101 19.6631 36.2101 19.6636C36.2101 19.6641 36.2101 19.6645 36.2101 19.665C36.2101 19.6654 36.2101 19.6659 36.2101 19.6663C36.2101 19.6668 36.2101 19.6672 36.2101 19.6677C36.2101 19.6682 36.2101 19.6686 36.2101 19.6691C36.2101 19.6695 36.2101 19.67 36.2101 19.6704C36.2101 19.6709 36.2101 19.6713 36.2101 19.6718C36.2101 19.6722 36.2101 19.6727 36.2101 19.6731C36.2101 19.6736 36.2101 19.674 36.2101 19.6745C36.2101 19.6749 36.2101 19.6754 36.2101 19.6758C36.2101 19.6763 36.2101 19.6767 36.2101 19.6772C36.2101 19.6776 36.2101 19.6781 36.2101 19.6785C36.2101 19.679 36.2101 19.6794 36.2101 19.6799C36.2101 19.6803 36.2101 19.6808 36.2101 19.6812C36.2101 19.6816 36.2101 19.6821 36.2101 19.6825C36.2101 19.683 36.2101 19.6834 36.2101 19.6839C36.2101 19.6843 36.2101 19.6848 36.2101 19.6852C36.2101 19.6856 36.2101 19.6861 36.2101 19.6865C36.2101 19.687 36.2101 19.6874 36.2101 19.6879C36.2101 19.6883 36.2101 19.6887 36.2101 19.6892C36.2101 19.6896 36.2101 19.6901 36.2101 19.6905C36.2101 19.6909 36.2101 19.6914 36.2101 19.6918C36.2101 19.6923 36.2101 19.6927 36.2101 19.6931C36.2101 19.6936 36.2101 19.694 36.2101 19.6944C36.2101 19.6949 36.2101 19.6953 36.2101 19.6958C36.2101 19.6962 36.2101 19.6966 36.2101 19.6971C36.2101 19.6975 36.2101 19.6979 36.2101 19.6984C36.2101 19.6988 36.2101 19.6992 36.2101 19.6997C36.2101 19.7001 36.2101 19.7005 36.2101 19.701C36.2101 19.7014 36.2101 19.7018 36.2101 19.7023C36.2101 19.7027 36.2101 19.7031 36.2101 19.7036C36.2101 19.704 36.2101 19.7044 36.2101 19.7048C36.2101 19.7053 36.2101 19.7057 36.2101 19.7061C36.2101 19.7066 36.2101 19.707 36.2101 19.7074C36.2101 19.7078 36.2101 19.7083 36.2101 19.7087C36.2101 19.7091 36.2101 19.7096 36.2101 19.71C36.2101 19.7104 36.2101 19.7108 36.2101 19.7113C36.2101 19.7117 36.2101 19.7121 36.2101 19.7125C36.2101 19.713 36.2101 19.7134 36.2101 19.7138C36.2101 19.7142 36.2101 19.7146 36.2101 19.7151C36.2101 19.7155 36.2101 19.7159 36.2101 19.7163C36.2101 19.7168 36.2101 19.7172 36.2101 19.7176C36.2101 19.718 36.2101 19.7184 36.2101 19.7189C36.2101 19.7193 36.2101 19.7197 36.2101 19.7201C36.2101 19.7205 36.2101 19.721 36.2101 19.7214C36.2101 19.7218 36.2101 19.7222 36.2101 19.7226C36.2101 19.723 36.2101 19.7235 36.2101 19.7239C36.2101 19.7243 36.2101 19.7247 36.2101 19.7251C36.2101 19.7255 36.2101 19.726 36.2101 19.7264C36.2101 19.7268 36.2101 19.7272 36.2101 19.7276C36.2101 19.728 36.2101 19.7284 36.2101 19.7289C36.2101 19.7293 36.2101 19.7297 36.2101 19.7301C36.2101 19.7305 36.2101 19.7309 36.2101 19.7313C36.2101 19.7317 36.2101 19.7321 36.2101 19.7326C36.2101 19.733 36.2101 19.7334 36.2101 19.7338C36.2101 19.7342 36.2101 19.7346 36.2101 19.735C36.2101 19.7354 36.2101 19.7358 36.2101 19.7362C36.2101 19.7366 36.2101 19.7371 36.2101 19.7375C36.2101 19.7379 36.2101 19.7383 36.2101 19.7387C36.2101 19.7391 36.2101 19.7395 36.2101 19.7399C36.2101 19.7403 36.2101 19.7407 36.2101 19.7411C36.2101 19.7415 36.2101 19.7419 36.2101 19.7423C36.2101 19.7427 36.2101 19.7431 36.2101 19.7435C36.2101 19.7439 36.2101 19.7443 36.2101 19.7447C36.2101 19.7451 36.2101 19.7455 36.2101 19.7459C36.2101 19.7463 36.2101 19.7467 36.2101 19.7471C36.2101 19.7475 36.2101 19.7479 36.2101 19.7483C36.2101 19.7487 36.2101 19.7491 36.2101 19.7495C36.2101 19.7499 36.2101 19.7503 36.2101 19.7507C36.2101 19.7511 36.2101 19.7515 36.2101 19.7519C36.2101 19.7523 36.2101 19.7527 36.2101 19.7531C36.2101 19.7535 36.2101 19.7539 36.2101 19.7543C36.2101 19.7547 36.2101 19.7551 36.2101 19.7555C36.2101 19.7558 36.2101 19.7562 36.2101 19.7566C36.2101 19.757 36.2101 19.7574 36.2101 19.7578C36.2101 19.7582 36.2101 19.7586 36.2101 19.759C36.2101 19.7594 36.2101 19.7598 36.2101 19.7602C36.2101 19.7605 36.2101 19.7609 36.2101 19.7613C36.2101 19.7617 36.2101 19.7621 36.2101 19.7625C36.2101 19.7629 36.2101 19.7633 36.2101 19.7636C36.2101 19.764 36.2101 19.7644 36.2101 19.7648C36.2101 19.7652 36.2101 19.7656 36.2101 19.766C36.2101 19.7664 36.2101 19.7667 36.2101 19.7671C36.2101 19.7675 36.2101 19.7679 36.2101 19.7683C36.2101 19.7687 36.2101 19.769 36.2101 19.7694C36.2101 19.7698 36.2101 19.7702 36.2101 19.7706C36.2101 19.7709 36.2101 19.7713 36.2101 19.7717C36.2101 19.7721 36.2101 19.7725 36.2101 19.7729C36.2101 19.7732 36.2101 19.7736 36.2101 19.774C36.2101 19.7744 36.2101 19.7747 36.2101 19.7751C36.2101 19.7755 36.2101 19.7759 36.2101 19.7763C36.2101 19.7766 36.2101 19.777 36.2101 19.7774C36.2101 19.7778 36.2101 19.7781 36.2101 19.7785C36.2101 19.7789 36.2101 19.7793 36.2101 19.7796C36.2101 19.78 36.2101 19.7804 36.2101 19.7808C36.2101 19.7811 36.2101 19.7815 36.2101 19.7819C36.2101 19.7823 36.2101 19.7826 36.2101 19.783C36.2101 19.7834 36.2101 19.7837 36.2101 19.7841C36.2101 19.7845 36.2101 19.7849 36.2101 19.7852C36.2101 19.7856 36.2101 19.786 36.2101 19.7863C36.2101 19.7867 36.2101 19.7871 36.2101 19.7874C36.2101 19.7878 36.2101 19.7882 36.2101 19.7885C36.2101 19.7889 36.2101 19.7893 36.2101 19.7896C36.2101 19.79 36.2101 19.7904 36.2101 19.7907C36.2101 19.7911 36.2101 19.7915 36.2101 19.7918C36.2101 19.7922 36.2101 19.7926 36.2101 19.7929C36.2101 19.7933 36.2101 19.7937 36.2101 19.794C36.2101 19.7944 36.2101 19.7947 36.2101 19.7951C36.2101 19.7955 36.2101 19.7958 36.2101 19.7962C36.2101 19.7966 36.2101 19.7969 36.2101 19.7973C36.2101 19.7976 36.2101 19.798 36.2101 19.7984C36.2101 19.7987 36.2101 19.7991 36.2101 19.7994C36.2101 19.7998 36.2101 19.8002 36.2101 19.8005C36.2101 19.8009 36.2101 19.8012 36.2101 19.8016C36.2101 19.8019 36.2101 19.8023 36.2101 19.8026C36.2101 19.803 36.2101 19.8034 36.2101 19.8037C36.2101 19.8041 36.2101 19.8044 36.2101 19.8048C36.2101 19.8051 36.2101 19.8055 36.2101 19.8058C36.2101 19.8062 36.2101 19.8065 36.2101 19.8069C36.2101 19.8072 36.2101 19.8076 36.2101 19.808C36.2101 19.8083 36.2101 19.8087 36.2101 19.809C36.2101 19.8094 36.2101 19.8097 36.2101 19.8101C36.2101 19.8104 36.2101 19.8108 36.2101 19.8111C36.2101 19.8115 36.2101 19.8118 36.2101 19.8121C36.2101 19.8125 36.2101 19.8128 36.2101 19.8132C36.2101 19.8135 36.2101 19.8139 36.2101 19.8142C36.2101 19.8146 36.2101 19.8149 36.2101 19.8153C36.2101 19.8156 36.2101 19.816 36.2101 19.8163C36.2101 19.8166 36.2101 19.817 36.2101 19.8173C36.2101 19.8177 36.2101 19.818 36.2101 19.8184C36.2101 19.8187 36.2101 19.819 36.2101 19.8194C36.2101 19.8197 36.2101 19.8201 36.2101 19.8204C36.2101 19.8208 36.2101 19.8211 36.2101 19.8214C36.2101 19.8218 36.2101 19.8221 36.2101 19.8225C36.2101 19.8228 36.2101 19.8231 36.2101 19.8235C36.2101 19.8238 36.2101 19.8241 36.2101 19.8245C36.2101 19.8248 36.2101 19.8252 36.2101 19.8255C36.2101 19.8258 36.2101 19.8262 36.2101 19.8265C36.2101 19.8268 36.2101 19.8272 36.2101 19.8275C36.2101 19.8278 36.2101 19.8282 36.2101 19.8285C36.2101 19.8288 36.2101 19.8292 36.2101 19.8295C36.2101 19.8298 36.2101 19.8302 36.2101 19.8305C36.2101 19.8308 36.2101 19.8312 36.2101 19.8315C36.2101 19.8318 36.2101 19.8322 36.2101 19.8325C36.2101 19.8328 36.2101 19.8331 36.2101 19.8335C36.2101 19.8338 36.2101 19.8341 36.2101 19.8345C36.2101 19.8348 36.2101 19.8351 36.2101 19.8354C36.2101 19.8358 36.2101 19.8361 36.2101 19.8364C36.2101 19.8368 36.2101 19.8371 36.2101 19.8374C36.2101 19.8377 36.2101 19.8381 36.2101 19.8384C36.2101 19.8387 36.2101 19.839 36.2101 19.8394C36.2101 19.8397 36.2101 19.84 36.2101 19.8403C36.2101 19.8406 36.2101 19.841 36.2101 19.8413C36.2101 19.8416 36.2101 19.8419 36.2101 19.8423C36.2101 19.8426 36.2101 19.8429 36.2101 19.8432C36.2101 19.8435 36.2101 19.8439 36.2101 19.8442C36.2101 19.8445 36.2101 19.8448 36.2101 19.8451C36.2101 19.8454 36.2101 19.8458 36.2101 19.8461C36.2101 19.8464 36.2101 19.8467 36.2101 19.847C36.2101 19.8474 36.2101 19.8477 36.2101 19.848C36.2101 19.8483 36.2101 19.8486 36.2101 19.8489C36.2101 19.8492 36.2101 19.8496 36.2101 19.8499C36.2101 19.8502 36.2101 19.8505 36.2101 19.8508C36.2101 19.8511 36.2101 19.8514 36.2101 19.8518C36.2101 19.8521 36.2101 19.8524 36.2101 19.8527C36.2101 19.853 36.2101 19.8533 36.2101 19.8536C36.2101 19.8539 36.2101 19.8542 36.2101 19.8546C36.2101 19.8549 36.2101 19.8552 36.2101 19.8555C36.2101 19.8558 36.2101 19.8561 36.2101 19.8564C36.2101 19.8567 36.2101 19.857 36.2101 19.8573C36.2101 19.8576 36.2101 19.8579 36.2101 19.8582C36.2101 19.8586 36.2101 19.8589 36.2101 19.8592C36.2101 19.8595 36.2101 19.8598 36.2101 19.8601C36.2101 19.8604 36.2101 19.8607 36.2101 19.861C36.2101 19.8613 36.2101 19.8616 36.2101 19.8619C36.2101 19.8622 36.2101 19.8625 36.2101 19.8628C36.2101 19.8631 36.2101 19.8634 36.2101 19.8637C36.2101 19.864 36.2101 19.8643 36.2101 19.8646C36.2101 19.8649 36.2101 19.8652 36.2101 19.8655C36.2101 19.8658 36.2101 19.8661 36.2101 19.8664C36.2101 19.8667 36.2101 19.867 36.2101 19.8673C36.2101 19.8676 36.2101 19.8679 36.2101 19.8682C36.2101 19.8685 36.2101 19.8688 36.2101 19.8691C36.2101 19.8694 36.2101 19.8697 36.2101 19.87C36.2101 19.8702 36.2101 19.8705 36.2101 19.8708C36.2101 19.8711 36.2101 19.8714 36.2101 19.8717C36.2101 19.872 36.2101 19.8723 36.2101 19.8726C36.2101 19.8729 36.2101 19.8732 36.2101 19.8735C36.2101 19.8738 36.2101 19.874 36.2101 19.8743C36.2101 19.8746 36.2101 19.8749 36.2101 19.8752C36.2101 19.8755 36.2101 19.8758 36.2101 19.8761C36.2101 19.8764 36.2101 19.8766 36.2101 19.8769C36.2101 19.8772 36.2101 19.8775 36.2101 19.8778C36.2101 19.8781 36.2101 19.8784 36.2101 19.8787C36.2101 19.8789 36.2101 19.8792 36.2101 19.8795C36.2101 19.8798 36.2101 19.8801 36.2101 19.8804C36.2101 19.8806 36.2101 19.8809 36.2101 19.8812C36.2101 19.8815 36.2101 19.8818 36.2101 19.8821C36.2101 19.8823 36.2101 19.8826 36.2101 19.8829C36.2101 19.8832 36.2101 19.8835 36.2101 19.8837C36.2101 19.884 36.2101 19.8843 36.2101 19.8846C36.2101 19.8849 36.2101 19.8851 36.2101 19.8854C36.2101 19.8857 36.2101 19.886 36.2101 19.8863C36.2101 19.8865 36.2101 19.8868 36.2101 19.8871C36.2101 19.8874 36.2101 19.8876 36.2101 19.8879C36.2101 19.8882 36.2101 19.8885 36.2101 19.8887C36.2101 19.889 36.2101 19.8893 36.2101 19.8896C36.2101 19.8898 36.2101 19.8901 36.2101 19.8904C36.2101 19.8907 36.2101 19.8909 36.2101 19.8912C36.2101 19.8915 36.2101 19.8917 36.2101 19.892C36.2101 19.8923 36.2101 19.8926 36.2101 19.8928C36.2101 19.8931 36.2101 19.8934 36.2101 19.8936C36.2101 19.8939 36.2101 19.8942 36.2101 19.8944C36.2101 19.8947 36.2101 19.895 36.2101 19.8953C36.2101 19.8955 36.2101 19.8958 36.2101 19.8961C36.2101 19.8963 36.2101 19.8966 36.2101 19.8969C36.2101 19.8971 36.2101 19.8974 36.2101 19.8977C36.2101 19.8979 36.2101 19.8982 36.2101 19.8984C36.2101 19.8987 36.2101 19.899 36.2101 19.8992C36.2101 19.8995 36.2101 19.8998 36.2101 19.9C36.2101 19.9003 36.2101 19.9005 36.2101 19.9008C36.2101 19.9011 36.2101 19.9013 36.2101 19.9016C36.2101 19.9019 36.2101 19.9021 36.2101 19.9024C36.2101 19.9026 36.2101 19.9029 36.2101 19.9032C36.2101 19.9034 36.2101 19.9037 36.2101 19.9039C36.2101 19.9042 36.2101 19.9044 36.2101 19.9047C36.2101 19.905 36.2101 19.9052 36.2101 19.9055C36.2101 19.9057 36.2101 19.906 36.2101 19.9062C36.2101 19.9065 36.2101 19.9067 36.2101 19.907C36.2101 19.9073 36.2101 19.9075 36.2101 19.9078C36.2101 19.908 36.2101 19.9083 36.2101 19.9085C36.2101 19.9088 36.2101 19.909 36.2101 19.9093C36.2101 19.9095 36.2101 19.9098 36.2101 19.91C36.2101 19.9103 36.2101 19.9105 36.2101 19.9108C36.2101 19.911 36.2101 19.9113 36.2101 19.9115C36.2101 19.9118 36.2101 19.912 36.2101 19.9123C36.2101 19.9125 36.2101 19.9128 36.2101 19.913C36.2101 19.9133 36.2101 19.9135 36.2101 19.9138C36.2101 19.914 36.2101 19.9143 36.2101 19.9145C36.2101 19.9147 36.2101 19.915 36.2101 19.9152C36.2101 19.9155 36.2101 19.9157 36.2101 19.916C36.2101 19.9162 36.2101 19.9165 36.2101 19.9167C36.2101 19.9169 36.2101 19.9172 36.2101 19.9174C36.2101 19.9177 36.2101 19.9179 36.2101 19.9181C36.2101 19.9184 36.2101 19.9186 36.2101 19.9189C36.2101 19.9191 36.2101 19.9193 36.2101 19.9196C36.2101 19.9198 36.2101 19.9201 36.2101 19.9203C36.2101 19.9205 36.2101 19.9208 36.2101 19.921C36.2101 19.9213 36.2101 19.9215 36.2101 19.9217C36.2101 19.922 36.2101 19.9222 36.2101 19.9224C36.2101 19.9227 36.2101 19.9229 36.2101 19.9231C36.2101 19.9234 36.2101 19.9236 36.2101 19.9238C36.2101 19.9241 36.2101 19.9243 36.2101 19.9245C36.2101 19.9248 36.2101 19.925 36.2101 19.9252C36.2101 19.9255 36.2101 19.9257 36.2101 19.9259C36.2101 19.9262 36.2101 19.9264 36.2101 19.9266C36.2101 19.9269 36.2101 19.9271 36.2101 19.9273C36.2101 19.9276 36.2101 19.9278 36.2101 19.928C36.2101 19.9282 36.2101 19.9285 36.2101 19.9287C36.2101 19.9289 36.2101 19.9291 36.2101 19.9294C36.2101 19.9296 36.2101 19.9298 36.2101 19.9301C36.2101 19.9303 36.2101 19.9305 36.2101 19.9307C36.2101 19.931 36.2101 19.9312 36.2101 19.9314C36.2101 19.9316 36.2101 19.9319 36.2101 19.9321C36.2101 19.9323 36.2101 19.9325 36.2101 19.9327C36.2101 19.933 36.2101 19.9332 36.2101 19.9334C36.2101 19.9336 36.2101 19.9339 36.2101 19.9341C36.2101 19.9343 36.2101 19.9345 36.2101 19.9347C36.2101 19.935 36.2101 19.9352 36.2101 19.9354C36.2101 19.9356 36.2101 19.9358 36.2101 19.936C36.2101 19.9363 36.2101 19.9365 36.2101 19.9367C36.2101 19.9369 36.2101 19.9371 36.2101 19.9373C36.2101 19.9376 36.2101 19.9378 36.2101 19.938C36.2101 19.9382 36.2101 19.9384 36.2101 19.9386C36.2101 19.9389 36.2101 19.9391 36.2101 19.9393C36.2101 19.9395 36.2101 19.9397 36.2101 19.9399C36.2101 19.9401 36.2101 19.9403 36.2101 19.9406C36.2101 19.9408 36.2101 19.941 36.2101 19.9412C36.2101 19.9414 36.2101 19.9416 36.2101 19.9418C36.2101 19.942 36.2101 19.9422 36.2101 19.9424C36.2101 19.9427 36.2101 19.9429 36.2101 19.9431C36.2101 19.9433 36.2101 19.9435 36.2101 19.9437C36.2101 19.9439 36.2101 19.9441 36.2101 19.9443C36.2101 19.9445 36.2101 19.9447 36.2101 19.9449C36.2101 19.9451 36.2101 19.9453 36.2101 19.9456C36.2101 19.9458 36.2101 19.946 36.2101 19.9462C36.2101 19.9464 36.2101 19.9466 36.2101 19.9468C36.2101 19.947 36.2101 19.9472 36.2101 19.9474C36.2101 19.9476 36.2101 19.9478 36.2101 19.948C36.2101 19.9482 36.2101 19.9484 36.2101 19.9486C36.2101 19.9488 36.2101 19.949 36.2101 19.9492C36.2101 19.9494 36.2101 19.9496 36.2101 19.9498C36.2101 19.95 36.2101 19.9502 36.2101 19.9504C36.2101 19.9506 36.2101 19.9508 36.2101 19.951C36.2101 19.9512 36.2101 19.9514 36.2101 19.9516C36.2101 19.9518 36.2101 19.9519 36.2101 19.9521C36.2101 19.9523 36.2101 19.9525 36.2101 19.9527C36.2101 19.9529 36.2101 19.9531 36.2101 19.9533C36.2101 19.9535 36.2101 19.9537 36.2101 19.9539C36.2101 19.9541 36.2101 19.9543 36.2101 19.9545C36.2101 19.9546 36.2101 19.9548 36.2101 19.955C36.2101 19.9552 36.2101 19.9554 36.2101 19.9556C36.2101 19.9558 36.2101 19.956 36.2101 19.9562C36.2101 19.9564 36.2101 19.9565 36.2101 19.9567C36.2101 19.9569 36.2101 19.9571 36.2101 19.9573C36.2101 19.9575 36.2101 19.9577 36.2101 19.9578C36.2101 19.958 36.2101 19.9582 36.2101 19.9584C36.2101 19.9586 36.2101 19.9588 36.2101 19.959C36.2101 19.9591 36.2101 19.9593 36.2101 19.9595C36.2101 19.9597 36.2101 19.9599 36.2101 19.9601H38.2101C38.2101 19.9599 38.2101 19.9597 38.2101 19.9595C38.2101 19.9593 38.2101 19.9591 38.2101 19.959C38.2101 19.9588 38.2101 19.9586 38.2101 19.9584C38.2101 19.9582 38.2101 19.958 38.2101 19.9578C38.2101 19.9577 38.2101 19.9575 38.2101 19.9573C38.2101 19.9571 38.2101 19.9569 38.2101 19.9567C38.2101 19.9565 38.2101 19.9564 38.2101 19.9562C38.2101 19.956 38.2101 19.9558 38.2101 19.9556C38.2101 19.9554 38.2101 19.9552 38.2101 19.955C38.2101 19.9548 38.2101 19.9546 38.2101 19.9545C38.2101 19.9543 38.2101 19.9541 38.2101 19.9539C38.2101 19.9537 38.2101 19.9535 38.2101 19.9533C38.2101 19.9531 38.2101 19.9529 38.2101 19.9527C38.2101 19.9525 38.2101 19.9523 38.2101 19.9521C38.2101 19.9519 38.2101 19.9518 38.2101 19.9516C38.2101 19.9514 38.2101 19.9512 38.2101 19.951C38.2101 19.9508 38.2101 19.9506 38.2101 19.9504C38.2101 19.9502 38.2101 19.95 38.2101 19.9498C38.2101 19.9496 38.2101 19.9494 38.2101 19.9492C38.2101 19.949 38.2101 19.9488 38.2101 19.9486C38.2101 19.9484 38.2101 19.9482 38.2101 19.948C38.2101 19.9478 38.2101 19.9476 38.2101 19.9474C38.2101 19.9472 38.2101 19.947 38.2101 19.9468C38.2101 19.9466 38.2101 19.9464 38.2101 19.9462C38.2101 19.946 38.2101 19.9458 38.2101 19.9456C38.2101 19.9453 38.2101 19.9451 38.2101 19.9449C38.2101 19.9447 38.2101 19.9445 38.2101 19.9443C38.2101 19.9441 38.2101 19.9439 38.2101 19.9437C38.2101 19.9435 38.2101 19.9433 38.2101 19.9431C38.2101 19.9429 38.2101 19.9427 38.2101 19.9424C38.2101 19.9422 38.2101 19.942 38.2101 19.9418C38.2101 19.9416 38.2101 19.9414 38.2101 19.9412C38.2101 19.941 38.2101 19.9408 38.2101 19.9406C38.2101 19.9403 38.2101 19.9401 38.2101 19.9399C38.2101 19.9397 38.2101 19.9395 38.2101 19.9393C38.2101 19.9391 38.2101 19.9389 38.2101 19.9386C38.2101 19.9384 38.2101 19.9382 38.2101 19.938C38.2101 19.9378 38.2101 19.9376 38.2101 19.9373C38.2101 19.9371 38.2101 19.9369 38.2101 19.9367C38.2101 19.9365 38.2101 19.9363 38.2101 19.936C38.2101 19.9358 38.2101 19.9356 38.2101 19.9354C38.2101 19.9352 38.2101 19.935 38.2101 19.9347C38.2101 19.9345 38.2101 19.9343 38.2101 19.9341C38.2101 19.9339 38.2101 19.9336 38.2101 19.9334C38.2101 19.9332 38.2101 19.933 38.2101 19.9327C38.2101 19.9325 38.2101 19.9323 38.2101 19.9321C38.2101 19.9319 38.2101 19.9316 38.2101 19.9314C38.2101 19.9312 38.2101 19.931 38.2101 19.9307C38.2101 19.9305 38.2101 19.9303 38.2101 19.9301C38.2101 19.9298 38.2101 19.9296 38.2101 19.9294C38.2101 19.9291 38.2101 19.9289 38.2101 19.9287C38.2101 19.9285 38.2101 19.9282 38.2101 19.928C38.2101 19.9278 38.2101 19.9276 38.2101 19.9273C38.2101 19.9271 38.2101 19.9269 38.2101 19.9266C38.2101 19.9264 38.2101 19.9262 38.2101 19.9259C38.2101 19.9257 38.2101 19.9255 38.2101 19.9252C38.2101 19.925 38.2101 19.9248 38.2101 19.9245C38.2101 19.9243 38.2101 19.9241 38.2101 19.9238C38.2101 19.9236 38.2101 19.9234 38.2101 19.9231C38.2101 19.9229 38.2101 19.9227 38.2101 19.9224C38.2101 19.9222 38.2101 19.922 38.2101 19.9217C38.2101 19.9215 38.2101 19.9213 38.2101 19.921C38.2101 19.9208 38.2101 19.9205 38.2101 19.9203C38.2101 19.9201 38.2101 19.9198 38.2101 19.9196C38.2101 19.9193 38.2101 19.9191 38.2101 19.9189C38.2101 19.9186 38.2101 19.9184 38.2101 19.9181C38.2101 19.9179 38.2101 19.9177 38.2101 19.9174C38.2101 19.9172 38.2101 19.9169 38.2101 19.9167C38.2101 19.9165 38.2101 19.9162 38.2101 19.916C38.2101 19.9157 38.2101 19.9155 38.2101 19.9152C38.2101 19.915 38.2101 19.9147 38.2101 19.9145C38.2101 19.9143 38.2101 19.914 38.2101 19.9138C38.2101 19.9135 38.2101 19.9133 38.2101 19.913C38.2101 19.9128 38.2101 19.9125 38.2101 19.9123C38.2101 19.912 38.2101 19.9118 38.2101 19.9115C38.2101 19.9113 38.2101 19.911 38.2101 19.9108C38.2101 19.9105 38.2101 19.9103 38.2101 19.91C38.2101 19.9098 38.2101 19.9095 38.2101 19.9093C38.2101 19.909 38.2101 19.9088 38.2101 19.9085C38.2101 19.9083 38.2101 19.908 38.2101 19.9078C38.2101 19.9075 38.2101 19.9073 38.2101 19.907C38.2101 19.9067 38.2101 19.9065 38.2101 19.9062C38.2101 19.906 38.2101 19.9057 38.2101 19.9055C38.2101 19.9052 38.2101 19.905 38.2101 19.9047C38.2101 19.9044 38.2101 19.9042 38.2101 19.9039C38.2101 19.9037 38.2101 19.9034 38.2101 19.9032C38.2101 19.9029 38.2101 19.9026 38.2101 19.9024C38.2101 19.9021 38.2101 19.9019 38.2101 19.9016C38.2101 19.9013 38.2101 19.9011 38.2101 19.9008C38.2101 19.9005 38.2101 19.9003 38.2101 19.9C38.2101 19.8998 38.2101 19.8995 38.2101 19.8992C38.2101 19.899 38.2101 19.8987 38.2101 19.8984C38.2101 19.8982 38.2101 19.8979 38.2101 19.8977C38.2101 19.8974 38.2101 19.8971 38.2101 19.8969C38.2101 19.8966 38.2101 19.8963 38.2101 19.8961C38.2101 19.8958 38.2101 19.8955 38.2101 19.8953C38.2101 19.895 38.2101 19.8947 38.2101 19.8944C38.2101 19.8942 38.2101 19.8939 38.2101 19.8936C38.2101 19.8934 38.2101 19.8931 38.2101 19.8928C38.2101 19.8926 38.2101 19.8923 38.2101 19.892C38.2101 19.8917 38.2101 19.8915 38.2101 19.8912C38.2101 19.8909 38.2101 19.8907 38.2101 19.8904C38.2101 19.8901 38.2101 19.8898 38.2101 19.8896C38.2101 19.8893 38.2101 19.889 38.2101 19.8887C38.2101 19.8885 38.2101 19.8882 38.2101 19.8879C38.2101 19.8876 38.2101 19.8874 38.2101 19.8871C38.2101 19.8868 38.2101 19.8865 38.2101 19.8863C38.2101 19.886 38.2101 19.8857 38.2101 19.8854C38.2101 19.8851 38.2101 19.8849 38.2101 19.8846C38.2101 19.8843 38.2101 19.884 38.2101 19.8837C38.2101 19.8835 38.2101 19.8832 38.2101 19.8829C38.2101 19.8826 38.2101 19.8823 38.2101 19.8821C38.2101 19.8818 38.2101 19.8815 38.2101 19.8812C38.2101 19.8809 38.2101 19.8806 38.2101 19.8804C38.2101 19.8801 38.2101 19.8798 38.2101 19.8795C38.2101 19.8792 38.2101 19.8789 38.2101 19.8787C38.2101 19.8784 38.2101 19.8781 38.2101 19.8778C38.2101 19.8775 38.2101 19.8772 38.2101 19.8769C38.2101 19.8766 38.2101 19.8764 38.2101 19.8761C38.2101 19.8758 38.2101 19.8755 38.2101 19.8752C38.2101 19.8749 38.2101 19.8746 38.2101 19.8743C38.2101 19.874 38.2101 19.8738 38.2101 19.8735C38.2101 19.8732 38.2101 19.8729 38.2101 19.8726C38.2101 19.8723 38.2101 19.872 38.2101 19.8717C38.2101 19.8714 38.2101 19.8711 38.2101 19.8708C38.2101 19.8705 38.2101 19.8702 38.2101 19.87C38.2101 19.8697 38.2101 19.8694 38.2101 19.8691C38.2101 19.8688 38.2101 19.8685 38.2101 19.8682C38.2101 19.8679 38.2101 19.8676 38.2101 19.8673C38.2101 19.867 38.2101 19.8667 38.2101 19.8664C38.2101 19.8661 38.2101 19.8658 38.2101 19.8655C38.2101 19.8652 38.2101 19.8649 38.2101 19.8646C38.2101 19.8643 38.2101 19.864 38.2101 19.8637C38.2101 19.8634 38.2101 19.8631 38.2101 19.8628C38.2101 19.8625 38.2101 19.8622 38.2101 19.8619C38.2101 19.8616 38.2101 19.8613 38.2101 19.861C38.2101 19.8607 38.2101 19.8604 38.2101 19.8601C38.2101 19.8598 38.2101 19.8595 38.2101 19.8592C38.2101 19.8589 38.2101 19.8586 38.2101 19.8582C38.2101 19.8579 38.2101 19.8576 38.2101 19.8573C38.2101 19.857 38.2101 19.8567 38.2101 19.8564C38.2101 19.8561 38.2101 19.8558 38.2101 19.8555C38.2101 19.8552 38.2101 19.8549 38.2101 19.8546C38.2101 19.8542 38.2101 19.8539 38.2101 19.8536C38.2101 19.8533 38.2101 19.853 38.2101 19.8527C38.2101 19.8524 38.2101 19.8521 38.2101 19.8518C38.2101 19.8514 38.2101 19.8511 38.2101 19.8508C38.2101 19.8505 38.2101 19.8502 38.2101 19.8499C38.2101 19.8496 38.2101 19.8492 38.2101 19.8489C38.2101 19.8486 38.2101 19.8483 38.2101 19.848C38.2101 19.8477 38.2101 19.8474 38.2101 19.847C38.2101 19.8467 38.2101 19.8464 38.2101 19.8461C38.2101 19.8458 38.2101 19.8454 38.2101 19.8451C38.2101 19.8448 38.2101 19.8445 38.2101 19.8442C38.2101 19.8439 38.2101 19.8435 38.2101 19.8432C38.2101 19.8429 38.2101 19.8426 38.2101 19.8423C38.2101 19.8419 38.2101 19.8416 38.2101 19.8413C38.2101 19.841 38.2101 19.8406 38.2101 19.8403C38.2101 19.84 38.2101 19.8397 38.2101 19.8394C38.2101 19.839 38.2101 19.8387 38.2101 19.8384C38.2101 19.8381 38.2101 19.8377 38.2101 19.8374C38.2101 19.8371 38.2101 19.8368 38.2101 19.8364C38.2101 19.8361 38.2101 19.8358 38.2101 19.8354C38.2101 19.8351 38.2101 19.8348 38.2101 19.8345C38.2101 19.8341 38.2101 19.8338 38.2101 19.8335C38.2101 19.8331 38.2101 19.8328 38.2101 19.8325C38.2101 19.8322 38.2101 19.8318 38.2101 19.8315C38.2101 19.8312 38.2101 19.8308 38.2101 19.8305C38.2101 19.8302 38.2101 19.8298 38.2101 19.8295C38.2101 19.8292 38.2101 19.8288 38.2101 19.8285C38.2101 19.8282 38.2101 19.8278 38.2101 19.8275C38.2101 19.8272 38.2101 19.8268 38.2101 19.8265C38.2101 19.8262 38.2101 19.8258 38.2101 19.8255C38.2101 19.8252 38.2101 19.8248 38.2101 19.8245C38.2101 19.8241 38.2101 19.8238 38.2101 19.8235C38.2101 19.8231 38.2101 19.8228 38.2101 19.8225C38.2101 19.8221 38.2101 19.8218 38.2101 19.8214C38.2101 19.8211 38.2101 19.8208 38.2101 19.8204C38.2101 19.8201 38.2101 19.8197 38.2101 19.8194C38.2101 19.819 38.2101 19.8187 38.2101 19.8184C38.2101 19.818 38.2101 19.8177 38.2101 19.8173C38.2101 19.817 38.2101 19.8166 38.2101 19.8163C38.2101 19.816 38.2101 19.8156 38.2101 19.8153C38.2101 19.8149 38.2101 19.8146 38.2101 19.8142C38.2101 19.8139 38.2101 19.8135 38.2101 19.8132C38.2101 19.8128 38.2101 19.8125 38.2101 19.8121C38.2101 19.8118 38.2101 19.8115 38.2101 19.8111C38.2101 19.8108 38.2101 19.8104 38.2101 19.8101C38.2101 19.8097 38.2101 19.8094 38.2101 19.809C38.2101 19.8087 38.2101 19.8083 38.2101 19.808C38.2101 19.8076 38.2101 19.8072 38.2101 19.8069C38.2101 19.8065 38.2101 19.8062 38.2101 19.8058C38.2101 19.8055 38.2101 19.8051 38.2101 19.8048C38.2101 19.8044 38.2101 19.8041 38.2101 19.8037C38.2101 19.8034 38.2101 19.803 38.2101 19.8026C38.2101 19.8023 38.2101 19.8019 38.2101 19.8016C38.2101 19.8012 38.2101 19.8009 38.2101 19.8005C38.2101 19.8002 38.2101 19.7998 38.2101 19.7994C38.2101 19.7991 38.2101 19.7987 38.2101 19.7984C38.2101 19.798 38.2101 19.7976 38.2101 19.7973C38.2101 19.7969 38.2101 19.7966 38.2101 19.7962C38.2101 19.7958 38.2101 19.7955 38.2101 19.7951C38.2101 19.7947 38.2101 19.7944 38.2101 19.794C38.2101 19.7937 38.2101 19.7933 38.2101 19.7929C38.2101 19.7926 38.2101 19.7922 38.2101 19.7918C38.2101 19.7915 38.2101 19.7911 38.2101 19.7907C38.2101 19.7904 38.2101 19.79 38.2101 19.7896C38.2101 19.7893 38.2101 19.7889 38.2101 19.7885C38.2101 19.7882 38.2101 19.7878 38.2101 19.7874C38.2101 19.7871 38.2101 19.7867 38.2101 19.7863C38.2101 19.786 38.2101 19.7856 38.2101 19.7852C38.2101 19.7849 38.2101 19.7845 38.2101 19.7841C38.2101 19.7837 38.2101 19.7834 38.2101 19.783C38.2101 19.7826 38.2101 19.7823 38.2101 19.7819C38.2101 19.7815 38.2101 19.7811 38.2101 19.7808C38.2101 19.7804 38.2101 19.78 38.2101 19.7796C38.2101 19.7793 38.2101 19.7789 38.2101 19.7785C38.2101 19.7781 38.2101 19.7778 38.2101 19.7774C38.2101 19.777 38.2101 19.7766 38.2101 19.7763C38.2101 19.7759 38.2101 19.7755 38.2101 19.7751C38.2101 19.7747 38.2101 19.7744 38.2101 19.774C38.2101 19.7736 38.2101 19.7732 38.2101 19.7729C38.2101 19.7725 38.2101 19.7721 38.2101 19.7717C38.2101 19.7713 38.2101 19.7709 38.2101 19.7706C38.2101 19.7702 38.2101 19.7698 38.2101 19.7694C38.2101 19.769 38.2101 19.7687 38.2101 19.7683C38.2101 19.7679 38.2101 19.7675 38.2101 19.7671C38.2101 19.7667 38.2101 19.7664 38.2101 19.766C38.2101 19.7656 38.2101 19.7652 38.2101 19.7648C38.2101 19.7644 38.2101 19.764 38.2101 19.7636C38.2101 19.7633 38.2101 19.7629 38.2101 19.7625C38.2101 19.7621 38.2101 19.7617 38.2101 19.7613C38.2101 19.7609 38.2101 19.7605 38.2101 19.7602C38.2101 19.7598 38.2101 19.7594 38.2101 19.759C38.2101 19.7586 38.2101 19.7582 38.2101 19.7578C38.2101 19.7574 38.2101 19.757 38.2101 19.7566C38.2101 19.7562 38.2101 19.7558 38.2101 19.7555C38.2101 19.7551 38.2101 19.7547 38.2101 19.7543C38.2101 19.7539 38.2101 19.7535 38.2101 19.7531C38.2101 19.7527 38.2101 19.7523 38.2101 19.7519C38.2101 19.7515 38.2101 19.7511 38.2101 19.7507C38.2101 19.7503 38.2101 19.7499 38.2101 19.7495C38.2101 19.7491 38.2101 19.7487 38.2101 19.7483C38.2101 19.7479 38.2101 19.7475 38.2101 19.7471C38.2101 19.7467 38.2101 19.7463 38.2101 19.7459C38.2101 19.7455 38.2101 19.7451 38.2101 19.7447C38.2101 19.7443 38.2101 19.7439 38.2101 19.7435C38.2101 19.7431 38.2101 19.7427 38.2101 19.7423C38.2101 19.7419 38.2101 19.7415 38.2101 19.7411C38.2101 19.7407 38.2101 19.7403 38.2101 19.7399C38.2101 19.7395 38.2101 19.7391 38.2101 19.7387C38.2101 19.7383 38.2101 19.7379 38.2101 19.7375C38.2101 19.7371 38.2101 19.7366 38.2101 19.7362C38.2101 19.7358 38.2101 19.7354 38.2101 19.735C38.2101 19.7346 38.2101 19.7342 38.2101 19.7338C38.2101 19.7334 38.2101 19.733 38.2101 19.7326C38.2101 19.7321 38.2101 19.7317 38.2101 19.7313C38.2101 19.7309 38.2101 19.7305 38.2101 19.7301C38.2101 19.7297 38.2101 19.7293 38.2101 19.7289C38.2101 19.7284 38.2101 19.728 38.2101 19.7276C38.2101 19.7272 38.2101 19.7268 38.2101 19.7264C38.2101 19.726 38.2101 19.7255 38.2101 19.7251C38.2101 19.7247 38.2101 19.7243 38.2101 19.7239C38.2101 19.7235 38.2101 19.723 38.2101 19.7226C38.2101 19.7222 38.2101 19.7218 38.2101 19.7214C38.2101 19.721 38.2101 19.7205 38.2101 19.7201C38.2101 19.7197 38.2101 19.7193 38.2101 19.7189C38.2101 19.7184 38.2101 19.718 38.2101 19.7176C38.2101 19.7172 38.2101 19.7168 38.2101 19.7163C38.2101 19.7159 38.2101 19.7155 38.2101 19.7151C38.2101 19.7146 38.2101 19.7142 38.2101 19.7138C38.2101 19.7134 38.2101 19.713 38.2101 19.7125C38.2101 19.7121 38.2101 19.7117 38.2101 19.7113C38.2101 19.7108 38.2101 19.7104 38.2101 19.71C38.2101 19.7096 38.2101 19.7091 38.2101 19.7087C38.2101 19.7083 38.2101 19.7078 38.2101 19.7074C38.2101 19.707 38.2101 19.7066 38.2101 19.7061C38.2101 19.7057 38.2101 19.7053 38.2101 19.7048C38.2101 19.7044 38.2101 19.704 38.2101 19.7036C38.2101 19.7031 38.2101 19.7027 38.2101 19.7023C38.2101 19.7018 38.2101 19.7014 38.2101 19.701C38.2101 19.7005 38.2101 19.7001 38.2101 19.6997C38.2101 19.6992 38.2101 19.6988 38.2101 19.6984C38.2101 19.6979 38.2101 19.6975 38.2101 19.6971C38.2101 19.6966 38.2101 19.6962 38.2101 19.6958C38.2101 19.6953 38.2101 19.6949 38.2101 19.6944C38.2101 19.694 38.2101 19.6936 38.2101 19.6931C38.2101 19.6927 38.2101 19.6923 38.2101 19.6918C38.2101 19.6914 38.2101 19.6909 38.2101 19.6905C38.2101 19.6901 38.2101 19.6896 38.2101 19.6892C38.2101 19.6887 38.2101 19.6883 38.2101 19.6879C38.2101 19.6874 38.2101 19.687 38.2101 19.6865C38.2101 19.6861 38.2101 19.6856 38.2101 19.6852C38.2101 19.6848 38.2101 19.6843 38.2101 19.6839C38.2101 19.6834 38.2101 19.683 38.2101 19.6825C38.2101 19.6821 38.2101 19.6816 38.2101 19.6812C38.2101 19.6808 38.2101 19.6803 38.2101 19.6799C38.2101 19.6794 38.2101 19.679 38.2101 19.6785C38.2101 19.6781 38.2101 19.6776 38.2101 19.6772C38.2101 19.6767 38.2101 19.6763 38.2101 19.6758C38.2101 19.6754 38.2101 19.6749 38.2101 19.6745C38.2101 19.674 38.2101 19.6736 38.2101 19.6731C38.2101 19.6727 38.2101 19.6722 38.2101 19.6718C38.2101 19.6713 38.2101 19.6709 38.2101 19.6704C38.2101 19.67 38.2101 19.6695 38.2101 19.6691C38.2101 19.6686 38.2101 19.6682 38.2101 19.6677C38.2101 19.6672 38.2101 19.6668 38.2101 19.6663C38.2101 19.6659 38.2101 19.6654 38.2101 19.665C38.2101 19.6645 38.2101 19.6641 38.2101 19.6636C38.2101 19.6631 38.2101 19.6627 38.2101 19.6622C38.2101 19.6618 38.2101 19.6613 38.2101 19.6608C38.2101 19.6604 38.2101 19.6599 38.2101 19.6595C38.2101 19.659 38.2101 19.6585 38.2101 19.6581C38.2101 19.6576 38.2101 19.6572 38.2101 19.6567C38.2101 19.6562 38.2101 19.6558 38.2101 19.6553C38.2101 19.6549 38.2101 19.6544 38.2101 19.6539C38.2101 19.6535 38.2101 19.653 38.2101 19.6525C38.2101 19.6521 38.2101 19.6516 38.2101 19.6511C38.2101 19.6507 38.2101 19.6502 38.2101 19.6497C38.2101 19.6493 38.2101 19.6488 38.2101 19.6483C38.2101 19.6479 38.2101 19.6474 38.2101 19.6469C38.2101 19.6465 38.2101 19.646 38.2101 19.6455C38.2101 19.6451 38.2101 19.6446 38.2101 19.6441C38.2101 19.6437 38.2101 19.6432 38.2101 19.6427C38.2101 19.6422 38.2101 19.6418 38.2101 19.6413C38.2101 19.6408 38.2101 19.6404 38.2101 19.6399C38.2101 19.6394 38.2101 19.6389 38.2101 19.6385C38.2101 19.638 38.2101 19.6375 38.2101 19.637C38.2101 19.6366 38.2101 19.6361 38.2101 19.6356C38.2101 19.6351 38.2101 19.6347 38.2101 19.6342C38.2101 19.6337 38.2101 19.6332 38.2101 19.6328C38.2101 19.6323 38.2101 19.6318 38.2101 19.6313C38.2101 19.6309 38.2101 19.6304 38.2101 19.6299C38.2101 19.6294 38.2101 19.6289 38.2101 19.6285C38.2101 19.628 38.2101 19.6275 38.2101 19.627C38.2101 19.6265 38.2101 19.6261 38.2101 19.6256C38.2101 19.6251 38.2101 19.6246 38.2101 19.6241C38.2101 19.6236 38.2101 19.6232 38.2101 19.6227C38.2101 19.6222 38.2101 19.6217 38.2101 19.6212C38.2101 19.6207 38.2101 19.6203 38.2101 19.6198C38.2101 19.6193 38.2101 19.6188 38.2101 19.6183C38.2101 19.6178 38.2101 19.6173 38.2101 19.6169C38.2101 19.6164 38.2101 19.6159 38.2101 19.6154C38.2101 19.6149 38.2101 19.6144 38.2101 19.6139C38.2101 19.6134 38.2101 19.613 38.2101 19.6125C38.2101 19.612 38.2101 19.6115 38.2101 19.611C38.2101 19.6105 38.2101 19.61 38.2101 19.6095C38.2101 19.609 38.2101 19.6085 38.2101 19.6081C38.2101 19.6076 38.2101 19.6071 38.2101 19.6066C38.2101 19.6061 38.2101 19.6056 38.2101 19.6051C38.2101 19.6046 38.2101 19.6041 38.2101 19.6036C38.2101 19.6031 38.2101 19.6026 38.2101 19.6021C38.2101 19.6016 38.2101 19.6011 38.2101 19.6006C38.2101 19.6001 38.2101 19.5996 38.2101 19.5991C38.2101 19.5987 38.2101 19.5982 38.2101 19.5977C38.2101 19.5972 38.2101 19.5967 38.2101 19.5962C38.2101 19.5957 38.2101 19.5952 38.2101 19.5947C38.2101 19.5942 38.2101 19.5937 38.2101 19.5932C38.2101 19.5927 38.2101 19.5922 38.2101 19.5917C38.2101 19.5912 38.2101 19.5907 38.2101 19.5901C38.2101 19.5896 38.2101 19.5891 38.2101 19.5886C38.2101 19.5881 38.2101 19.5876 38.2101 19.5871C38.2101 19.5866 38.2101 19.5861 38.2101 19.5856C38.2101 19.5851 38.2101 19.5846 38.2101 19.5841C38.2101 19.5836 38.2101 19.5831 38.2101 19.5826C38.2101 19.5821 38.2101 19.5816 38.2101 19.5811C38.2101 19.5805 38.2101 19.58 38.2101 19.5795C38.2101 19.579 38.2101 19.5785 38.2101 19.578C38.2101 19.5775 38.2101 19.577 38.2101 19.5765C38.2101 19.576 38.2101 19.5754 38.2101 19.5749C38.2101 19.5744 38.2101 19.5739 38.2101 19.5734C38.2101 19.5729 38.2101 19.5724 38.2101 19.5719C38.2101 19.5713 38.2101 19.5708 38.2101 19.5703C38.2101 19.5698 38.2101 19.5693 38.2101 19.5688C38.2101 19.5683 38.2101 19.5677 38.2101 19.5672C38.2101 19.5667 38.2101 19.5662 38.2101 19.5657C38.2101 19.5652 38.2101 19.5646 38.2101 19.5641C38.2101 19.5636 38.2101 19.5631 38.2101 19.5626C38.2101 19.5621 38.2101 19.5615 38.2101 19.561C38.2101 19.5605 38.2101 19.56 38.2101 19.5595C38.2101 19.5589 38.2101 19.5584 38.2101 19.5579C38.2101 19.5574 38.2101 19.5568 38.2101 19.5563C38.2101 19.5558 38.2101 19.5553 38.2101 19.5548C38.2101 19.5542 38.2101 19.5537 38.2101 19.5532C38.2101 19.5527 38.2101 19.5521 38.2101 19.5516C38.2101 19.5511 38.2101 19.5506 38.2101 19.55C38.2101 19.5495 38.2101 19.549 38.2101 19.5485C38.2101 19.5479 38.2101 19.5474 38.2101 19.5469C38.2101 19.5463 38.2101 19.5458 38.2101 19.5453C38.2101 19.5448 38.2101 19.5442 38.2101 19.5437C38.2101 19.5432 38.2101 19.5426 38.2101 19.5421C38.2101 19.5416 38.2101 19.5411 38.2101 19.5405C38.2101 19.54 38.2101 19.5395 38.2101 19.5389C38.2101 19.5384 38.2101 19.5379 38.2101 19.5373C38.2101 19.5368 38.2101 19.5363 38.2101 19.5357C38.2101 19.5352 38.2101 19.5347 38.2101 19.5341C38.2101 19.5336 38.2101 19.5331 38.2101 19.5325C38.2101 19.532 38.2101 19.5314 38.2101 19.5309C38.2101 19.5304 38.2101 19.5298 38.2101 19.5293C38.2101 19.5288 38.2101 19.5282 38.2101 19.5277C38.2101 19.5271 38.2101 19.5266 38.2101 19.5261C38.2101 19.5255 38.2101 19.525 38.2101 19.5245C38.2101 19.5239 38.2101 19.5234 38.2101 19.5228C38.2101 19.5223 38.2101 19.5217 38.2101 19.5212C38.2101 19.5207 38.2101 19.5201 38.2101 19.5196C38.2101 19.519 38.2101 19.5185 38.2101 19.5179C38.2101 19.5174 38.2101 19.5169 38.2101 19.5163C38.2101 19.5158 38.2101 19.5152 38.2101 19.5147C38.2101 19.5141 38.2101 19.5136 38.2101 19.513C38.2101 19.5125 38.2101 19.5119 38.2101 19.5114C38.2101 19.5109 38.2101 19.5103 38.2101 19.5098C38.2101 19.5092 38.2101 19.5087 38.2101 19.5081C38.2101 19.5076 38.2101 19.507 38.2101 19.5065C38.2101 19.5059 38.2101 19.5054 38.2101 19.5048C38.2101 19.5043 38.2101 19.5037 38.2101 19.5032C38.2101 19.5026 38.2101 19.5021 38.2101 19.5015C38.2101 19.501 38.2101 19.5004 38.2101 19.4998C38.2101 19.4993 38.2101 19.4987 38.2101 19.4982C38.2101 19.4976 38.2101 19.4971 38.2101 19.4965C38.2101 19.496 38.2101 19.4954 38.2101 19.4949C38.2101 19.4943 38.2101 19.4937 38.2101 19.4932C38.2101 19.4926 38.2101 19.4921 38.2101 19.4915C38.2101 19.491 38.2101 19.4904 38.2101 19.4898C38.2101 19.4893 38.2101 19.4887 38.2101 19.4882C38.2101 19.4876 38.2101 19.487 38.2101 19.4865C38.2101 19.4859 38.2101 19.4854 38.2101 19.4848C38.2101 19.4842 38.2101 19.4837 38.2101 19.4831C38.2101 19.4825 38.2101 19.482 38.2101 19.4814C38.2101 19.4809 38.2101 19.4803 38.2101 19.4797C38.2101 19.4792 38.2101 19.4786 38.2101 19.478C38.2101 19.4775 38.2101 19.4769 38.2101 19.4763C38.2101 19.4758 38.2101 19.4752 38.2101 19.4746C38.2101 19.4741 38.2101 19.4735 38.2101 19.4729C38.2101 19.4724 38.2101 19.4718 38.2101 19.4712C38.2101 19.4707 38.2101 19.4701 38.2101 19.4695C38.2101 19.469 38.2101 19.4684 38.2101 19.4678C38.2101 19.4672 38.2101 19.4667 38.2101 19.4661C38.2101 19.4655 38.2101 19.465 38.2101 19.4644C38.2101 19.4638 38.2101 19.4632 38.2101 19.4627C38.2101 19.4621 38.2101 19.4615 38.2101 19.4609C38.2101 19.4604 38.2101 19.4598 38.2101 19.4592C38.2101 19.4587 38.2101 19.4581 38.2101 19.4575C38.2101 19.4569 38.2101 19.4563 38.2101 19.4558C38.2101 19.4552 38.2101 19.4546 38.2101 19.454C38.2101 19.4535 38.2101 19.4529 38.2101 19.4523C38.2101 19.4517 38.2101 19.4511 38.2101 19.4506C38.2101 19.45 38.2101 19.4494 38.2101 19.4488C38.2101 19.4483 38.2101 19.4477 38.2101 19.4471C38.2101 19.4465 38.2101 19.4459 38.2101 19.4453C38.2101 19.4448 38.2101 19.4442 38.2101 19.4436C38.2101 19.443 38.2101 19.4424 38.2101 19.4418C38.2101 19.4413 38.2101 19.4407 38.2101 19.4401C38.2101 19.4395 38.2101 19.4389 38.2101 19.4383C38.2101 19.4378 38.2101 19.4372 38.2101 19.4366C38.2101 19.436 38.2101 19.4354 38.2101 19.4348C38.2101 19.4342 38.2101 19.4336 38.2101 19.4331C38.2101 19.4325 38.2101 19.4319 38.2101 19.4313C38.2101 19.4307 38.2101 19.4301 38.2101 19.4295C38.2101 19.4289 38.2101 19.4283 38.2101 19.4278C38.2101 19.4272 38.2101 19.4266 38.2101 19.426C38.2101 19.4254 38.2101 19.4248 38.2101 19.4242C38.2101 19.4236 38.2101 19.423 38.2101 19.4224C38.2101 19.4218 38.2101 19.4212 38.2101 19.4206C38.2101 19.42 38.2101 19.4195 38.2101 19.4189C38.2101 19.4183 38.2101 19.4177 38.2101 19.4171C38.2101 19.4165 38.2101 19.4159 38.2101 19.4153C38.2101 19.4147 38.2101 19.4141 38.2101 19.4135C38.2101 19.4129 38.2101 19.4123 38.2101 19.4117C38.2101 19.4111 38.2101 19.4105 38.2101 19.4099C38.2101 19.4093 38.2101 19.4087 38.2101 19.4081C38.2101 19.4075 38.2101 19.4069 38.2101 19.4063C38.2101 19.4057 38.2101 19.4051 38.2101 19.4045C38.2101 19.4039 38.2101 19.4033 38.2101 19.4027C38.2101 19.4021 38.2101 19.4015 38.2101 19.4009C38.2101 19.4003 38.2101 19.3997 38.2101 19.3991C38.2101 19.3984 38.2101 19.3978 38.2101 19.3972C38.2101 19.3966 38.2101 19.396 38.2101 19.3954C38.2101 19.3948 38.2101 19.3942 38.2101 19.3936C38.2101 19.393 38.2101 19.3924 38.2101 19.3918C38.2101 19.3912 38.2101 19.3905 38.2101 19.3899C38.2101 19.3893 38.2101 19.3887 38.2101 19.3881C38.2101 19.3875 38.2101 19.3869 38.2101 19.3863C38.2101 19.3857 38.2101 19.3851 38.2101 19.3844C38.2101 19.3838 38.2101 19.3832 38.2101 19.3826C38.2101 19.382 38.2101 19.3814 38.2101 19.3808C38.2101 19.3802 38.2101 19.3795 38.2101 19.3789C38.2101 19.3783 38.2101 19.3777 38.2101 19.3771C38.2101 19.3765 38.2101 19.3758 38.2101 19.3752C38.2101 19.3746 38.2101 19.374 38.2101 19.3734C38.2101 19.3728 38.2101 19.3721 38.2101 19.3715C38.2101 19.3709 38.2101 19.3703 38.2101 19.3697C38.2101 19.369 38.2101 19.3684 38.2101 19.3678C38.2101 19.3672 38.2101 19.3666 38.2101 19.3659C38.2101 19.3653 38.2101 19.3647 38.2101 19.3641C38.2101 19.3635 38.2101 19.3628 38.2101 19.3622C38.2101 19.3616 38.2101 19.361 38.2101 19.3603C38.2101 19.3597 38.2101 19.3591 38.2101 19.3585C38.2101 19.3578 38.2101 19.3572 38.2101 19.3566C38.2101 19.356 38.2101 19.3553 38.2101 19.3547C38.2101 19.3541 38.2101 19.3535 38.2101 19.3528C38.2101 19.3522 38.2101 19.3516 38.2101 19.351C38.2101 19.3503 38.2101 19.3497 38.2101 19.3491C38.2101 19.3484 38.2101 19.3478 38.2101 19.3472C38.2101 19.3465 38.2101 19.3459 38.2101 19.3453C38.2101 19.3447 38.2101 19.344 38.2101 19.3434C38.2101 19.3428 38.2101 19.3421 38.2101 19.3415C38.2101 19.3409 38.2101 19.3402 38.2101 19.3396C38.2101 19.339 38.2101 19.3383 38.2101 19.3377C38.2101 19.3371 38.2101 19.3364 38.2101 19.3358C38.2101 19.3352 38.2101 19.3345 38.2101 19.3339C38.2101 19.3332 38.2101 19.3326 38.2101 19.332C38.2101 19.3313 38.2101 19.3307 38.2101 19.3301H36.2101ZM36.2101 19.9601C36.2101 20.3933 36.1885 20.8268 36.1451 21.2606L38.1352 21.4596C38.1851 20.96 38.2101 20.4601 38.2101 19.9601H36.2101ZM36.1462 21.2496C36.0996 21.6696 36.0529 22.0896 36.0062 22.5096L37.994 22.7305C38.0407 22.3105 38.0873 21.8905 38.134 21.4705L36.1462 21.2496ZM36.0038 22.5342C35.7701 25.245 35.5598 27.8862 35.3728 30.4575L37.3675 30.6026C37.5538 28.0406 37.7635 25.4084 37.9964 22.7059L36.0038 22.5342ZM35.3717 30.4746C35.2308 33.0108 35.1601 35.4094 35.1601 37.6701H37.1601C37.1601 35.4507 37.2295 33.0893 37.3686 30.5855L35.3717 30.4746ZM35.1601 37.6701C35.1601 42.4268 35.536 46.3665 36.31 49.4626L38.2503 48.9775C37.531 46.1003 37.1601 42.34 37.1601 37.6701H35.1601ZM36.3147 49.4806C36.7302 51.0206 37.2941 52.2838 38.0609 53.1783C38.855 54.1049 39.8674 54.6301 41.0601 54.6301V52.6301C40.5262 52.6301 40.0452 52.4203 39.5794 51.8768C39.0861 51.3013 38.6234 50.3595 38.2456 48.9595L36.3147 49.4806ZM41.0601 54.6301C42.2946 54.6301 43.4927 53.8923 44.6213 52.8127L43.2389 51.3674C42.2209 52.3412 41.5056 52.6301 41.0601 52.6301V54.6301ZM44.622 52.812C45.8072 51.6762 46.9949 50.2167 48.1887 48.4499L46.5315 47.3302C45.392 49.0168 44.293 50.3572 43.2382 51.3681L44.622 52.812ZM48.1854 48.4547C49.4102 46.6646 50.6337 44.7587 51.8559 42.7375L50.1444 41.7026C48.9399 43.6947 47.7367 45.5688 46.5348 47.3254L48.1854 48.4547ZM51.861 42.7288C53.0841 40.659 54.214 38.6112 55.2504 36.5855L53.4699 35.6746C52.453 37.6622 51.3428 39.6744 50.1392 41.7113L51.861 42.7288ZM55.2419 36.6017C56.3211 34.5841 57.2392 32.7718 57.9949 31.1659L56.1853 30.3143C55.4477 31.8817 54.5458 33.6627 53.4783 35.6584L55.2419 36.6017ZM57.9896 31.177C58.7841 29.5412 59.3735 28.2922 59.7539 27.4362L57.9263 26.6239C57.5601 27.4479 56.9828 28.6722 56.1906 30.3032L57.9896 31.177ZM59.7539 27.4362L61.7139 23.0262L59.8863 22.2139L57.9263 26.6239L59.7539 27.4362ZM61.715 23.0237C62.4169 21.4327 62.9198 20.2139 63.2131 19.3829L61.3271 18.7172C61.0604 19.4729 60.5833 20.6341 59.8852 22.2164L61.715 23.0237ZM63.2188 19.3663C63.4806 18.5809 63.7373 18.2026 63.9086 18.0526L62.5916 16.5475C62.0163 17.0509 61.6196 17.8392 61.3214 18.7338L63.2188 19.3663ZM63.9086 18.0526C63.99 17.9814 64.3398 17.8101 65.2801 17.8101V15.8101C64.2605 15.8101 63.2569 15.9654 62.5916 16.5475L63.9086 18.0526ZM65.2801 17.8101H65.5601V15.8101H65.2801V17.8101ZM65.5601 17.8101C65.7907 17.8101 65.9861 17.8428 66.1539 17.8987L66.7864 16.0014C66.3941 15.8706 65.9829 15.8101 65.5601 15.8101V17.8101ZM66.3057 17.9365C66.2532 17.9277 66 17.8609 65.8557 17.5723C65.7383 17.3375 65.8072 17.1701 65.7886 17.2353L67.7116 17.7848C67.7863 17.5234 67.8553 17.0993 67.6445 16.6778C67.4069 16.2026 66.967 16.0191 66.6345 15.9637L66.3057 17.9365ZM65.8138 17.1589C64.816 19.8198 63.9408 22.7791 63.186 26.0342L65.1343 26.4859C65.8728 23.301 66.7243 20.427 67.6865 17.8612L65.8138 17.1589ZM63.1836 26.0446C62.4767 29.2494 61.9115 32.5466 61.4878 35.936L63.4724 36.1841C63.8887 32.8535 64.4436 29.6174 65.1366 26.4755L63.1836 26.0446ZM61.4862 35.9496C61.109 39.3445 60.9201 42.6714 60.9201 45.9301H62.9201C62.9201 42.7487 63.1045 39.4956 63.474 36.1705L61.4862 35.9496ZM60.9201 45.9301C60.9201 48.3887 61.0383 50.7567 61.2755 53.0337L63.2647 52.8265C63.0353 50.6234 62.9201 48.3248 62.9201 45.9301H60.9201ZM61.2778 53.0541C61.5638 55.3419 61.9949 57.4094 62.5765 59.2512L64.4837 58.6489C63.9453 56.944 63.5364 54.9982 63.2624 52.806L61.2778 53.0541ZM62.5814 59.2663C62.5792 59.2595 62.5847 59.2742 62.5903 59.3191C62.5958 59.3629 62.6001 59.4255 62.6001 59.5101H64.6001C64.6001 59.2241 64.5733 58.9173 64.4788 58.6338L62.5814 59.2663ZM62.6001 59.5101C62.6001 59.6108 62.5804 59.629 62.5919 59.6089C62.597 59.5999 62.6039 59.5917 62.6094 59.5867C62.6143 59.5822 62.6113 59.5865 62.5929 59.5956L63.4873 61.3845C63.8305 61.2129 64.1265 60.9544 64.3284 60.6012C64.5265 60.2545 64.6001 59.876 64.6001 59.5101H62.6001ZM62.544 59.6218C62.3672 59.7228 62.188 59.7701 61.9901 59.7701V61.7701C62.5389 61.7701 63.0597 61.6306 63.5363 61.3583L62.544 59.6218ZM61.9901 59.7701C62.0352 59.7701 62.0256 59.7896 61.9456 59.7319C61.8577 59.6684 61.7228 59.5371 61.5523 59.2909L59.9079 60.4293C60.3761 61.1055 61.0569 61.7701 61.9901 61.7701V59.7701ZM61.5523 59.2908C61.2432 58.8443 60.9517 58.109 60.7307 57.0039L58.7695 57.3962C59.0152 58.6244 59.3771 59.6625 59.9079 60.4293L61.5523 59.2908ZM60.7287 56.9941C60.557 56.1786 60.3972 54.8132 60.2576 52.8588L58.2627 53.0013C58.4031 54.9669 58.5699 56.4481 58.7716 57.4061L60.7287 56.9941ZM60.2576 52.8588C60.1199 50.931 60.0501 48.5067 60.0501 45.5801H58.0501C58.0501 48.5334 58.1204 51.0091 58.2627 53.0013L60.2576 52.8588ZM60.0501 45.5801C60.0501 39.675 60.6498 33.8399 61.8492 28.0737L59.8911 27.6664C58.6638 33.5669 58.0501 39.5385 58.0501 45.5801H60.0501ZM59.9735 27.4273C58.1133 31.1941 56.2306 34.7968 54.3254 38.2354L56.0748 39.2047C57.9963 35.7367 59.8936 32.106 61.7668 28.3128L59.9735 27.4273ZM54.3254 38.2354C52.4257 41.6642 50.5542 44.6899 48.7116 47.3156L50.3487 48.4645C52.2394 45.7702 54.1479 42.6826 56.0748 39.2047L54.3254 38.2354ZM48.7048 47.3254C46.9141 49.9426 45.1924 51.974 43.5445 53.4438L44.8757 54.9364C46.6812 53.3261 48.5062 51.1575 50.3554 48.4547L48.7048 47.3254ZM43.5344 53.4529C41.952 54.9034 40.5729 55.5001 39.3801 55.5001V57.5001C41.2673 57.5001 43.1082 56.5567 44.8858 54.9272L43.5344 53.4529ZM39.3801 55.5001C38.4254 55.5001 37.4863 54.9288 36.6389 53.1916L34.8414 54.0685C35.8606 56.158 37.3481 57.5001 39.3801 57.5001V55.5001ZM36.6474 53.2096C35.8183 51.4204 35.1838 49.0083 34.7712 45.9369L32.789 46.2032C33.2164 49.3851 33.8886 52.013 34.8328 54.0505L36.6474 53.2096ZM34.7712 45.9369C34.3579 42.86 34.1501 39.5449 34.1501 35.9901H32.1501C32.1501 39.6219 32.3623 43.0268 32.789 46.2032L34.7712 45.9369ZM34.1501 35.9901C34.1501 33.8651 34.2194 31.7164 34.3581 29.5438L32.3622 29.4164C32.2208 31.6304 32.1501 33.8216 32.1501 35.9901H34.1501ZM34.3581 29.5438C34.4971 27.3662 34.6823 25.2836 34.9134 23.2956L32.9268 23.0646C32.6913 25.0899 32.5032 27.2072 32.3622 29.4164L34.3581 29.5438ZM32.997 22.7954C32.5344 23.9058 31.791 25.625 30.7648 27.9573L32.5954 28.7628C33.6225 26.4285 34.3725 24.6943 34.8432 23.5647L32.997 22.7954ZM30.7581 27.9728C29.7805 30.3005 28.6392 32.9559 27.334 35.9392L29.1663 36.7409C30.4744 33.7509 31.6197 31.0862 32.6021 28.7473L30.7581 27.9728ZM27.3288 35.9514C26.0693 38.9368 24.7631 42.0156 23.4103 45.1878L25.25 45.9723C26.6038 42.7979 27.9109 39.7167 29.1715 36.7288L27.3288 35.9514ZM23.4054 45.1993C22.097 48.3769 20.8817 51.3918 19.7596 54.2439L21.6207 54.9762C22.7385 52.1349 23.9499 49.1299 25.2548 45.9608L23.4054 45.1993ZM19.7616 54.2387C18.6366 57.0512 17.7416 59.4762 17.0793 61.5105L18.981 62.1296C19.6254 60.1505 20.5036 57.7689 21.6186 54.9814L19.7616 54.2387ZM17.06 61.5775C17.0011 61.813 16.9289 61.8822 16.9135 61.8951C16.9076 61.9001 16.8654 61.9401 16.7001 61.9401V63.9401C17.2348 63.9401 17.7643 63.7934 18.2018 63.425C18.6297 63.0646 18.8725 62.5737 19.0003 62.0626L17.06 61.5775Z" fill="white"/>
<path d="M31.7946 9.80353L24.3278 38.6869L18 65.4869" stroke="#020721" stroke-width="15"/>
<path d="M11.0926 56.6903C9.08565 56.5676 7.5434 55.8147 6.46583 54.4317C5.38825 53.0486 4.91556 51.2765 5.04775 49.1152C5.0926 48.3819 5.2887 48.0258 5.63605 48.0471C5.86762 48.0613 5.98853 48.3011 5.9988 48.7666C6.09889 49.6637 6.34981 50.6281 6.75157 51.6599C7.15097 52.7303 7.73467 53.6376 8.50266 54.3819C9.2683 55.1648 10.23 55.5916 11.3879 55.6624C12.7001 55.7427 13.9225 55.3913 15.0551 54.6083C16.1876 53.8254 17.2414 52.747 18.2165 51.3733C19.1915 49.9996 20.0806 48.4463 20.8839 46.7135C21.7234 45.0216 22.4495 43.284 23.0622 41.5007C23.4347 40.4776 23.8489 39.0889 24.3048 37.3348C24.8017 35.5445 25.3309 33.543 25.8924 31.3305C26.4924 29.1204 27.0767 26.8511 27.6452 24.5228C28.2138 22.1945 28.7752 19.982 29.3296 17.8853C29.8839 15.7886 30.3832 13.9596 30.8273 12.3985C29.0134 12.2875 27.1731 12.2912 25.3064 12.4095L24.8976 12.4426C24.5888 12.4237 24.3029 12.3481 24.0398 12.2158C23.8153 12.0858 23.7078 11.9437 23.7173 11.7893C23.7267 11.6349 23.8882 11.5286 24.2016 11.4703C24.5561 11.3757 24.7538 11.3103 24.7947 11.2741C25.3468 11.1142 26.0112 11.0192 26.7878 10.9893C27.5668 10.9207 28.306 10.869 29.0054 10.8343C29.7434 10.802 30.2873 10.7772 30.637 10.7598C30.8827 10.5424 31.3396 10.3573 32.0075 10.2044C32.714 10.054 33.2216 9.98816 33.5304 10.007C33.9549 10.033 34.1408 10.1606 34.088 10.3898C34.0739 10.6214 34.1428 10.7612 34.2948 10.8092C34.4082 10.8549 34.6375 10.9076 34.9824 10.9675C35.3684 10.9911 35.7724 11.0352 36.1946 11.0997C36.4262 11.1139 36.887 11.1808 37.577 11.3005C38.2693 11.3816 38.9581 11.5206 39.6434 11.7174C40.3672 11.9166 40.8162 12.1765 40.9903 12.4971C41.1376 12.6223 41.2065 12.7621 41.197 12.9165C41.19 13.0323 41.0899 13.0843 40.897 13.0725C40.5882 13.0536 40.0684 13.0024 39.3374 12.919C38.6451 12.8379 37.7007 12.7608 36.5043 12.6876C35.9639 12.6545 35.3645 12.6373 34.7061 12.6357C34.0476 12.6342 33.6534 12.7457 33.5235 12.9701C32.7596 15.3252 32.0237 17.8564 31.3158 20.5635C30.6102 23.2321 29.9035 25.92 29.1956 28.6271C28.5286 31.2981 27.8494 33.852 27.158 36.289C26.5052 38.7284 25.8315 40.8759 25.1369 42.7317C24.2092 45.2317 23.0787 47.5644 21.7454 49.7297C20.4483 51.9359 18.9081 53.6818 17.125 54.9674C15.3805 56.2553 13.3696 56.8296 11.0926 56.6903Z" fill="white"/>
<path d="M6.46583 54.4317L7.64907 53.5097L6.46583 54.4317ZM5.9988 48.7666L4.49916 48.7997L4.50064 48.8665L4.50805 48.9329L5.9988 48.7666ZM6.75157 51.6599L8.15692 51.1355L8.1532 51.1256L8.14934 51.1157L6.75157 51.6599ZM8.50266 54.3819L9.57506 53.3331L9.561 53.3187L9.54656 53.3047L8.50266 54.3819ZM15.0551 54.6083L14.2021 53.3745L15.0551 54.6083ZM18.2165 51.3733L16.9932 50.5051L18.2165 51.3733ZM20.8839 46.7135L19.5402 46.0467L19.5314 46.0646L19.523 46.0826L20.8839 46.7135ZM23.0622 41.5007L21.6527 40.9876L21.648 41.0004L21.6436 41.0133L23.0622 41.5007ZM24.3048 37.3348L22.8595 36.9337L22.8562 36.9455L22.8531 36.9575L24.3048 37.3348ZM25.8924 31.3305L24.4448 30.9375L24.4415 30.9495L24.4384 30.9616L25.8924 31.3305ZM27.6452 24.5228L26.188 24.167L26.188 24.167L27.6452 24.5228ZM29.3296 17.8853L27.8794 17.5019L29.3296 17.8853ZM30.8273 12.3985L32.2701 12.8089L32.7804 11.0151L30.9189 10.9013L30.8273 12.3985ZM25.3064 12.4095L25.2115 10.9125L25.1984 10.9133L25.1853 10.9144L25.3064 12.4095ZM24.8976 12.4426L24.806 13.9398L24.9124 13.9463L25.0187 13.9377L24.8976 12.4426ZM24.0398 12.2158L23.2883 13.514L23.3265 13.5361L23.3659 13.5559L24.0398 12.2158ZM24.2016 11.4703L24.4759 12.945L24.5326 12.9344L24.5882 12.9196L24.2016 11.4703ZM24.7947 11.2741L24.3774 9.83333L24.0534 9.92717L23.8008 10.1507L24.7947 11.2741ZM26.7878 10.9893L26.8457 12.4881L26.8826 12.4867L26.9194 12.4835L26.7878 10.9893ZM29.0054 10.8343L28.9398 9.33576L28.9311 9.33619L29.0054 10.8343ZM30.637 10.7598L30.7113 12.258L31.2369 12.2319L31.6309 11.8832L30.637 10.7598ZM32.0075 10.2044L31.695 8.73735L31.6839 8.73971L31.6729 8.74224L32.0075 10.2044ZM34.088 10.3898L32.6263 10.0533L32.5984 10.1743L32.5908 10.2982L34.088 10.3898ZM34.2948 10.8092L34.8551 9.41779L34.8017 9.39627L34.7468 9.37892L34.2948 10.8092ZM34.9824 10.9675L34.7261 12.4454L34.8079 12.4596L34.8909 12.4647L34.9824 10.9675ZM36.1946 11.0997L35.9679 12.5825L36.0351 12.5928L36.1031 12.5969L36.1946 11.0997ZM37.577 11.3005L37.3206 12.7784L37.3614 12.7855L37.4025 12.7903L37.577 11.3005ZM39.6434 11.7174L39.2292 13.1591L39.2372 13.1614L39.2453 13.1636L39.6434 11.7174ZM40.9903 12.4971L39.6721 13.213L39.8056 13.4588L40.0187 13.6399L40.9903 12.4971ZM39.3374 12.919L39.1629 14.4088L39.1673 14.4093L39.3374 12.919ZM34.7061 12.6357L34.7026 14.1357L34.7026 14.1357L34.7061 12.6357ZM33.5235 12.9701L32.2253 12.2187L32.1457 12.3562L32.0966 12.5074L33.5235 12.9701ZM31.3158 20.5635L32.766 20.947L32.767 20.943L31.3158 20.5635ZM29.1956 28.6271L27.7443 28.2476L27.7422 28.2557L27.7402 28.2637L29.1956 28.6271ZM27.158 36.289L25.715 35.8796L25.7119 35.8904L25.709 35.9013L27.158 36.289ZM25.1369 42.7317L23.7321 42.2059L23.7306 42.2098L25.1369 42.7317ZM21.7454 49.7297L20.4681 48.9432L20.4601 48.9562L20.4523 48.9694L21.7454 49.7297ZM17.125 54.9674L16.2478 53.7506L16.2409 53.7556L16.2341 53.7606L17.125 54.9674ZM11.1841 55.1931C9.53693 55.0924 8.42196 54.5017 7.64907 53.5097L5.28258 55.3536C6.66485 57.1277 8.63437 58.0428 11.001 58.1875L11.1841 55.1931ZM7.64907 53.5097C6.84559 52.4785 6.42961 51.0925 6.54495 49.2067L3.55054 49.0236C3.4015 51.4604 3.93091 53.6188 5.28258 55.3536L7.64907 53.5097ZM6.54495 49.2067C6.55278 49.0786 6.56548 49 6.57434 48.9599C6.58418 48.9154 6.58265 48.9487 6.54234 49.0219C6.49991 49.0989 6.3957 49.2527 6.19064 49.379C5.97153 49.514 5.7368 49.5561 5.54447 49.5443L5.72762 46.5499C5.36162 46.5275 4.97212 46.6061 4.61715 46.8248C4.27623 47.0348 4.05506 47.3194 3.91458 47.5745C3.65472 48.0463 3.57729 48.5863 3.55054 49.0236L6.54495 49.2067ZM5.54447 49.5443C5.33945 49.5318 5.11384 49.4624 4.91206 49.317C4.71985 49.1785 4.61402 49.018 4.56102 48.9129C4.47247 48.7373 4.49585 48.6494 4.49916 48.7997L7.49844 48.7335C7.49148 48.4183 7.44927 47.9777 7.2398 47.5623C6.98431 47.0555 6.46894 46.5952 5.72762 46.5499L5.54447 49.5443ZM4.50805 48.9329C4.62541 49.9848 4.915 51.0773 5.3538 52.2042L8.14934 51.1157C7.78462 50.179 7.57236 49.3426 7.48955 48.6003L4.50805 48.9329ZM5.34622 52.1843C5.81811 53.449 6.51993 54.5492 7.45877 55.4591L9.54656 53.3047C8.94941 52.726 8.48383 52.0116 8.15692 51.1355L5.34622 52.1843ZM7.43027 55.4307C8.47234 56.4962 9.79132 57.0676 11.2963 57.1596L11.4794 54.1652C10.6687 54.1156 10.0643 53.8333 9.57506 53.3331L7.43027 55.4307ZM11.2963 57.1596C12.9607 57.2614 14.5131 56.8066 15.9081 55.8422L14.2021 53.3745C13.3319 53.9761 12.4395 54.224 11.4794 54.1652L11.2963 57.1596ZM15.9081 55.8422C17.2125 54.9404 18.3853 53.727 19.4397 52.2415L16.9932 50.5051C16.0975 51.7671 15.1628 52.7103 14.2021 53.3745L15.9081 55.8422ZM19.4397 52.2415C20.4742 50.7839 21.408 49.1495 22.2448 47.3443L19.523 46.0826C18.7533 47.7431 17.9087 49.2153 16.9932 50.5051L19.4397 52.2415ZM22.2276 47.3802C23.0959 45.6303 23.847 43.8328 24.4808 41.9881L21.6436 41.0133C21.052 42.7351 20.351 44.4128 19.5402 46.0467L22.2276 47.3802ZM24.4717 42.0139C24.8675 40.9266 25.2954 39.4864 25.7566 37.7122L22.8531 36.9575C22.4024 38.6915 22.0019 40.0285 21.6527 40.9876L24.4717 42.0139ZM25.7502 37.736C26.2506 35.9328 26.7827 33.9204 27.3463 31.6995L24.4384 30.9616C23.8791 33.1657 23.3528 35.1561 22.8595 36.9337L25.7502 37.736ZM27.3399 31.7235C27.9435 29.5005 28.531 27.2188 29.1024 24.8787L26.188 24.167C25.6224 26.4835 25.0413 28.7403 24.4448 30.9375L27.3399 31.7235ZM29.1024 24.8787C29.6689 22.5586 30.228 20.3554 30.7797 18.2687L27.8794 17.5019C27.3224 19.6087 26.7586 21.8304 26.188 24.167L29.1024 24.8787ZM30.7797 18.2687C31.3325 16.1782 31.8292 14.3587 32.2701 12.8089L29.3846 11.988C28.9372 13.5606 28.4354 15.3989 27.8794 17.5019L30.7797 18.2687ZM30.9189 10.9013C29.0411 10.7864 27.1385 10.7904 25.2115 10.9125L25.4012 13.9065C27.2076 13.792 28.9857 13.7887 30.7358 13.8957L30.9189 10.9013ZM25.1853 10.9144L24.7765 10.9475L25.0187 13.9377L25.4274 13.9046L25.1853 10.9144ZM24.9892 10.9454C24.8727 10.9382 24.7863 10.9122 24.7138 10.8757L23.3659 13.5559C23.8195 13.784 24.3049 13.9091 24.806 13.9398L24.9892 10.9454ZM24.7913 10.9176C24.7913 10.9176 24.8118 10.9293 24.8442 10.9559C24.8764 10.9823 24.9298 11.031 24.9872 11.1069C25.1145 11.2752 25.2349 11.5469 25.2145 11.8809L22.2201 11.6977C22.1565 12.7361 22.9259 13.3041 23.2883 13.514L24.7913 10.9176ZM25.2145 11.8809C25.2008 12.1049 25.1279 12.3209 25.0073 12.5048C24.8929 12.6794 24.7613 12.7867 24.6705 12.8465C24.5104 12.9519 24.4044 12.9583 24.4759 12.945L23.9274 9.99556C23.6854 10.0406 23.342 10.1292 23.0204 10.341C22.6547 10.5819 22.2608 11.0323 22.2201 11.6977L25.2145 11.8809ZM24.5882 12.9196C24.776 12.8695 24.9467 12.8208 25.0868 12.7744C25.1551 12.7518 25.2385 12.7225 25.3223 12.6868C25.3527 12.6739 25.578 12.5839 25.7886 12.3975L23.8008 10.1507C23.8653 10.0936 23.9225 10.0533 23.9601 10.0285C23.9995 10.0026 24.0329 9.98354 24.0562 9.9709C24.1012 9.94646 24.1348 9.93185 24.147 9.92666C24.1614 9.92051 24.1688 9.91788 24.1663 9.91879C24.1644 9.91948 24.1576 9.92193 24.1447 9.9262C24.1183 9.93493 24.078 9.94747 24.0207 9.96405C23.9643 9.98041 23.896 9.99934 23.8151 10.0209L24.5882 12.9196ZM25.212 12.7149C25.6144 12.5983 26.1512 12.5149 26.8457 12.4881L26.73 9.49037C25.8712 9.52352 25.0793 9.63002 24.3774 9.83333L25.212 12.7149ZM26.9194 12.4835C27.6814 12.4164 28.4015 12.3662 29.0797 12.3325L28.9311 9.33619C28.2105 9.37193 27.4521 9.42497 26.6563 9.49503L26.9194 12.4835ZM29.0711 12.3329C29.8096 12.3005 30.357 12.2755 30.7113 12.258L30.5627 9.26165C30.2176 9.27878 29.6773 9.30346 28.9398 9.33578L29.0711 12.3329ZM31.6309 11.8832C31.5795 11.9288 31.5854 11.9056 31.7273 11.8481C31.8591 11.7947 32.0585 11.7315 32.3421 11.6666L31.6729 8.74224C30.972 8.90261 30.1908 9.15179 29.6431 9.63638L31.6309 11.8832ZM32.32 11.6715C32.6483 11.6016 32.9098 11.5559 33.1109 11.5298C33.2107 11.5168 33.2888 11.5097 33.3476 11.5063C33.3766 11.5046 33.3988 11.504 33.4148 11.5039C33.4227 11.5038 33.4287 11.5039 33.4328 11.504C33.437 11.5041 33.4389 11.5043 33.4388 11.5042L33.6219 8.50984C33.0899 8.4773 32.4051 8.5861 31.695 8.73735L32.32 11.6715ZM33.4388 11.5042C33.4823 11.5069 33.4768 11.51 33.4381 11.5003C33.405 11.4919 33.2852 11.459 33.1394 11.3589C32.9795 11.2492 32.7874 11.0559 32.6775 10.7613C32.5696 10.4722 32.5891 10.2147 32.6263 10.0533L35.5498 10.7263C35.6133 10.4503 35.6294 10.0909 35.4882 9.71256C35.345 9.32882 35.0898 9.05901 34.837 8.88548C34.3971 8.58356 33.9031 8.52703 33.6219 8.50984L33.4388 11.5042ZM32.5908 10.2982C32.575 10.5565 32.5909 10.9405 32.7837 11.3316C33.0036 11.7776 33.387 12.0954 33.8429 12.2395L34.7468 9.37892C35.0506 9.47493 35.3235 9.69884 35.4745 10.005C35.5984 10.2564 35.5869 10.4547 35.5852 10.4814L32.5908 10.2982ZM33.7345 12.2006C34.0182 12.3149 34.4025 12.3893 34.7261 12.4454L35.2388 9.48955C35.0816 9.46227 34.9669 9.43936 34.8883 9.42126C34.8493 9.4123 34.8263 9.40613 34.8158 9.40311C34.8023 9.39923 34.8195 9.40344 34.8551 9.41779L33.7345 12.2006ZM34.8909 12.4647C35.2272 12.4853 35.5859 12.5241 35.9679 12.5825L36.4214 9.61697C35.959 9.54625 35.5096 9.49692 35.074 9.47028L34.8909 12.4647ZM36.1031 12.5969C36.2377 12.6052 36.6165 12.6563 37.3206 12.7784L37.8333 9.82256C37.1575 9.70533 36.6146 9.62262 36.2862 9.60253L36.1031 12.5969ZM37.4025 12.7903C38.0119 12.8617 38.6206 12.9843 39.2292 13.1591L40.0575 10.2757C39.2956 10.0568 38.5267 9.90147 37.7514 9.81068L37.4025 12.7903ZM39.2453 13.1636C39.5335 13.243 39.6953 13.3158 39.7715 13.3599C39.8528 13.407 39.7611 13.3769 39.6721 13.213L42.3084 11.7812C42.0453 11.2968 41.6421 10.9764 41.2744 10.7636C40.9017 10.5478 40.4771 10.3911 40.0414 10.2712L39.2453 13.1636ZM40.0187 13.6399C39.9727 13.6008 39.8821 13.5114 39.8071 13.3592C39.727 13.1969 39.6885 13.0104 39.6998 12.8249L42.6942 13.0081C42.7397 12.2655 42.3691 11.7005 41.9618 11.3543L40.0187 13.6399ZM39.6998 12.8249C39.711 12.6418 39.765 12.4113 39.91 12.1842C40.0562 11.9552 40.248 11.8033 40.4249 11.7114C40.7325 11.5515 40.9842 11.575 40.9885 11.5753L40.8054 14.5697C41.0027 14.5818 41.4009 14.5851 41.8085 14.3733C42.3424 14.0958 42.6597 13.5732 42.6942 13.0081L39.6998 12.8249ZM40.9885 11.5753C40.7231 11.559 40.2381 11.5121 39.5076 11.4287L39.1673 14.4093C39.8987 14.4928 40.4533 14.5481 40.8054 14.5697L40.9885 11.5753ZM39.5119 11.4292C38.7793 11.3434 37.8034 11.2642 36.5958 11.1904L36.4127 14.1848C37.598 14.2573 38.5108 14.3324 39.1629 14.4088L39.5119 11.4292ZM36.5958 11.1904C36.0207 11.1552 35.3914 11.1373 34.7096 11.1357L34.7026 14.1357C35.3377 14.1372 35.9071 14.1539 36.4127 14.1848L36.5958 11.1904ZM34.7096 11.1357C34.3146 11.1348 33.8954 11.1654 33.5084 11.2748C33.1454 11.3774 32.5728 11.6184 32.2253 12.2187L34.8216 13.7216C34.7126 13.91 34.5758 14.0244 34.4799 14.0858C34.3892 14.144 34.3261 14.1612 34.3247 14.1616C34.3209 14.1627 34.3481 14.1549 34.4176 14.1476C34.4853 14.1406 34.5789 14.1354 34.7026 14.1357L34.7096 11.1357ZM32.0966 12.5074C31.3228 14.8932 30.5789 17.4524 29.8646 20.184L32.767 20.943C33.4685 18.2603 34.1964 15.7572 34.9503 13.4329L32.0966 12.5074ZM29.8656 20.1801C29.1597 22.85 28.4526 25.5392 27.7443 28.2476L30.6468 29.0066C31.3543 26.3008 32.0607 23.6142 32.7659 20.947L29.8656 20.1801ZM27.7402 28.2637C27.0768 30.9206 26.4017 33.4591 25.715 35.8796L28.6011 36.6984C29.2971 34.2449 29.9804 31.6756 30.6509 28.9905L27.7402 28.2637ZM25.709 35.9013C25.0655 38.3059 24.4059 40.4057 23.7321 42.2059L26.5417 43.2575C27.2571 41.3462 27.9449 39.1509 28.607 36.6768L25.709 35.9013ZM23.7306 42.2098C22.8355 44.6221 21.7474 46.8656 20.4681 48.9432L23.0226 50.5162C24.41 48.2631 25.583 45.8413 26.5432 43.2535L23.7306 42.2098ZM20.4523 48.9694C19.2435 51.0255 17.8367 52.6051 16.2478 53.7506L18.0022 56.1841C19.9796 54.7586 21.6531 52.8464 23.0385 50.4899L20.4523 48.9694ZM16.2341 53.7606C14.7884 54.8279 13.1296 55.3121 11.1841 55.1931L11.001 58.1875C13.6097 58.3471 15.9725 57.6827 18.0159 56.1742L16.2341 53.7606Z" fill="white"/>
</g>
<defs>
<clipPath id="clip0_18_37">
<rect x="0.00012207" y="3.05176e-05" width="74" height="74" rx="37" fill="white"/>
</clipPath>
</defs>
</svg>
