<svg width="80" height="80" viewBox="0 0 80 80" fill="none" xmlns="http://www.w3.org/2000/svg">
<g clip-path="url(#clip0_99_2)">
<rect x="0.00012207" y="3.05176e-05" width="80" height="80" rx="40" fill="#020721"/>
<path d="M18.7 63.94C18 63.94 17.65 63.5433 17.65 62.75C17.65 62.33 17.79 61.6533 18.07 60.72C18.3967 59.7867 18.7233 58.8533 19.05 57.92C19.4233 56.9867 19.7033 56.31 19.89 55.89C20.2633 54.91 20.9167 53.37 21.85 51.27C22.7833 49.1233 23.8567 46.6733 25.07 43.92C26.2833 41.1667 27.5433 38.3433 28.85 35.45C30.1567 32.51 31.3933 29.7567 32.56 27.19C33.7733 24.6233 34.8233 22.5 35.71 20.82V20.33C35.71 19.3967 36.2233 18.93 37.25 18.93C37.95 18.93 38.5567 19.1867 39.07 19.7C39.1633 19.7933 39.21 20.0033 39.21 20.33C39.21 20.6567 39.21 20.8667 39.21 20.96C39.21 21.4267 39.1867 21.8933 39.14 22.36C39.0933 22.78 39.0467 23.2 39 23.62C38.7667 26.3267 38.5567 28.9633 38.37 31.53C38.23 34.05 38.16 36.43 38.16 38.67C38.16 43.3833 38.5333 47.2333 39.28 50.22C40.0733 53.16 41.3333 54.63 43.06 54.63C43.9 54.63 44.8567 54.1167 45.93 53.09C47.05 52.0167 48.1933 50.6167 49.36 48.89C50.5733 47.1167 51.7867 45.2267 53 43.22C54.2133 41.1667 55.3333 39.1367 56.36 37.13C57.4333 35.1233 58.3433 33.3267 59.09 31.74C59.8833 30.1067 60.4667 28.87 60.84 28.03L62.8 23.62C63.5 22.0333 63.99 20.8433 64.27 20.05C64.55 19.21 64.8767 18.6267 65.25 18.3C65.6233 17.9733 66.3 17.81 67.28 17.81H67.56C67.8867 17.81 68.19 17.8567 68.47 17.95C68.75 17.9967 68.8433 18.1833 68.75 18.51C67.77 21.1233 66.9067 24.04 66.16 27.26C65.46 30.4333 64.9 33.7 64.48 37.06C64.1067 40.42 63.92 43.71 63.92 46.93C63.92 49.3567 64.0367 51.69 64.27 53.93C64.55 56.17 64.97 58.1767 65.53 59.95C65.5767 60.09 65.6 60.2767 65.6 60.51C65.6 60.9767 65.4133 61.3033 65.04 61.49C64.7133 61.6767 64.3633 61.77 63.99 61.77C63.57 61.77 63.15 61.4667 62.73 60.86C62.31 60.2533 61.9833 59.3667 61.75 58.2C61.5633 57.3133 61.4 55.89 61.26 53.93C61.12 51.97 61.05 49.52 61.05 46.58C61.05 40.6067 61.6567 34.7033 62.87 28.87C61.0033 32.65 59.1133 36.2667 57.2 39.72C55.2867 43.1733 53.3967 46.23 51.53 48.89C49.71 51.55 47.9367 53.65 46.21 55.19C44.53 56.73 42.92 57.5 41.38 57.5C39.8867 57.5 38.6733 56.5433 37.74 54.63C36.8533 52.7167 36.2 50.1967 35.78 47.07C35.36 43.9433 35.15 40.5833 35.15 36.99C35.15 34.8433 35.22 32.6733 35.36 30.48C35.5 28.2867 35.6867 26.1867 35.92 24.18C35.4533 25.3 34.7067 27.0267 33.68 29.36C32.7 31.6933 31.5567 34.3533 30.25 37.34C28.99 40.3267 27.6833 43.4067 26.33 46.58C25.0233 49.7533 23.81 52.7633 22.69 55.61C21.57 58.41 20.6833 60.8133 20.03 62.82C19.8433 63.5667 19.4 63.94 18.7 63.94Z" fill="white"/>
<path d="M18.07 60.72L17.1261 60.3896L17.1187 60.411L17.1122 60.4326L18.07 60.72ZM19.05 57.92L18.1215 57.5486L18.1134 57.569L18.1061 57.5896L19.05 57.92ZM19.89 55.89L20.8038 56.2961L20.8148 56.2713L20.8245 56.246L19.89 55.89ZM21.85 51.27L22.7638 51.6761L22.7671 51.6687L21.85 51.27ZM25.07 43.92L24.1549 43.5167L24.1549 43.5167L25.07 43.92ZM28.85 35.45L29.7614 35.8616L29.7638 35.8561L28.85 35.45ZM32.56 27.19L31.6559 26.7626L31.6527 26.7694L31.6496 26.7762L32.56 27.19ZM35.71 20.82L36.5944 21.2868L36.71 21.0677V20.82H35.71ZM39.07 19.7L39.7771 18.9929L39.7771 18.9929L39.07 19.7ZM39.14 22.36L40.1339 22.4704L40.135 22.4595L39.14 22.36ZM39 23.62L38.0061 23.5096L38.0048 23.5218L38.0037 23.5341L39 23.62ZM38.37 31.53L37.3726 31.4575L37.372 31.466L37.3715 31.4745L38.37 31.53ZM39.28 50.22L38.3099 50.4625L38.3121 50.4715L38.3145 50.4805L39.28 50.22ZM45.93 53.09L46.6212 53.8126L46.6219 53.812L45.93 53.09ZM49.36 48.89L48.5347 48.3253L48.5314 48.3301L49.36 48.89ZM53 43.22L53.8558 43.7374L53.8609 43.7287L53 43.22ZM56.36 37.13L55.4782 36.6583L55.4739 36.6664L55.4698 36.6745L56.36 37.13ZM59.09 31.74L58.1904 31.3031L58.1852 31.3142L59.09 31.74ZM60.84 28.03L61.7538 28.4361L61.7538 28.4361L60.84 28.03ZM62.8 23.62L63.7138 24.0261L63.7149 24.0236L62.8 23.62ZM64.27 20.05L65.213 20.3828L65.2159 20.3745L65.2187 20.3662L64.27 20.05ZM65.25 18.3L65.9085 19.0526L65.9085 19.0526L65.25 18.3ZM68.47 17.95L68.1538 18.8987L68.2282 18.9235L68.3056 18.9364L68.47 17.95ZM68.75 18.51L69.6863 18.8611L69.7005 18.8234L69.7115 18.7847L68.75 18.51ZM66.16 27.26L65.1858 27.0341L65.1835 27.0446L66.16 27.26ZM64.48 37.06L63.4876 36.936L63.4861 36.9496L64.48 37.06ZM64.27 53.93L63.2754 54.0336L63.2764 54.0438L63.2777 54.054L64.27 53.93ZM65.53 59.95L64.5764 60.2511L64.5788 60.2587L64.5813 60.2662L65.53 59.95ZM65.04 61.49L64.5928 60.5956L64.568 60.608L64.5439 60.6218L65.04 61.49ZM62.73 60.86L63.5522 60.2908L63.5522 60.2908L62.73 60.86ZM61.75 58.2L62.7306 58.0039L62.7285 57.994L61.75 58.2ZM61.26 53.93L60.2625 54.0012L61.26 53.93ZM62.87 28.87L63.849 29.0736L61.9734 28.4272L62.87 28.87ZM57.2 39.72L56.3253 39.2354L56.3253 39.2354L57.2 39.72ZM51.53 48.89L50.7114 48.3155L50.7047 48.3253L51.53 48.89ZM46.21 55.19L45.5443 54.4436L45.5343 54.4528L46.21 55.19ZM37.74 54.63L36.8327 55.0505L36.8369 55.0595L36.8412 55.0684L37.74 54.63ZM35.78 47.07L36.7711 46.9369L36.7711 46.9369L35.78 47.07ZM35.92 24.18L36.9133 24.2955L34.9969 23.7954L35.92 24.18ZM33.68 29.36L32.7647 28.9573L32.7613 28.965L32.758 28.9728L33.68 29.36ZM30.25 37.34L29.3338 36.9391L29.3286 36.9513L30.25 37.34ZM26.33 46.58L25.4101 46.1877L25.4053 46.1992L26.33 46.58ZM22.69 55.61L23.6185 55.9814L23.6206 55.9761L22.69 55.61ZM20.03 62.82L19.0791 62.5104L19.0683 62.5436L19.0599 62.5775L20.03 62.82ZM18.7 62.94C18.617 62.94 18.5883 62.928 18.594 62.9301C18.6057 62.9346 18.6354 62.9504 18.6623 62.9809C18.6869 63.0087 18.6845 63.0209 18.675 62.9885C18.6645 62.9527 18.65 62.878 18.65 62.75H16.65C16.65 63.2722 16.7625 63.8506 17.1627 64.3041C17.5839 64.7815 18.1611 64.94 18.7 64.94V62.94ZM18.65 62.75C18.65 62.4902 18.7488 61.9376 19.0278 61.0073L17.1122 60.4326C16.8312 61.3691 16.65 62.1698 16.65 62.75H18.65ZM19.0139 61.0503C19.3405 60.117 19.6672 59.1837 19.9939 58.2503L18.1061 57.5896C17.7795 58.523 17.4528 59.4563 17.1261 60.3896L19.0139 61.0503ZM19.9785 58.2914C20.3513 57.3594 20.6253 56.6977 20.8038 56.2961L18.9762 55.4839C18.7813 55.9223 18.4954 56.6139 18.1215 57.5486L19.9785 58.2914ZM20.8245 56.246C21.1875 55.2932 21.8313 53.7743 22.7638 51.6761L20.9362 50.8639C20.002 52.9657 19.3392 54.5268 18.9555 55.534L20.8245 56.246ZM22.7671 51.6687C23.6996 49.5239 24.7722 47.0755 25.9851 44.3233L24.1549 43.5167C22.9411 46.2712 21.8671 48.7227 20.9329 50.8713L22.7671 51.6687ZM25.9851 44.3233C27.1971 41.5729 28.4559 38.7523 29.7614 35.8616L27.9386 35.0384C26.6308 37.9344 25.3695 40.7605 24.1549 43.5167L25.9851 44.3233ZM29.7638 35.8561C31.0695 32.9183 32.305 30.1676 33.4704 27.6038L31.6496 26.7762C30.4817 29.3457 29.2438 32.1016 27.9362 35.0439L29.7638 35.8561ZM33.4641 27.6174C34.6739 25.0582 35.717 22.9491 36.5944 21.2868L34.8256 20.3532C33.9297 22.0509 32.8728 24.1885 31.6559 26.7626L33.4641 27.6174ZM36.71 20.82V20.33H34.71V20.82H36.71ZM36.71 20.33C36.71 20.1857 36.7301 20.1026 36.7451 20.0618C36.758 20.0266 36.7675 20.0201 36.7677 20.0199C36.769 20.0187 36.8685 19.93 37.25 19.93V17.93C36.6049 17.93 35.9344 18.0746 35.4223 18.5401C34.8922 19.022 34.71 19.6833 34.71 20.33H36.71ZM37.25 19.93C37.674 19.93 38.0293 20.0735 38.3629 20.4071L39.7771 18.9929C39.084 18.2998 38.226 17.93 37.25 17.93V19.93ZM38.3629 20.4071C38.284 20.3282 38.2427 20.2529 38.2233 20.2109C38.2131 20.1889 38.207 20.1717 38.2036 20.1612C38.2002 20.1506 38.1989 20.1447 38.1988 20.1444C38.1987 20.1441 38.1996 20.1479 38.2009 20.1565C38.2021 20.1651 38.2036 20.1772 38.205 20.1935C38.2079 20.2265 38.21 20.2714 38.21 20.33H40.21C40.21 20.1271 40.1962 19.9133 40.1512 19.7106C40.1101 19.5255 40.0184 19.2342 39.7771 18.9929L38.3629 20.4071ZM38.21 20.33C38.21 20.3306 38.21 20.3313 38.21 20.3319C38.21 20.3325 38.21 20.3332 38.21 20.3338C38.21 20.3345 38.21 20.3351 38.21 20.3357C38.21 20.3364 38.21 20.337 38.21 20.3376C38.21 20.3383 38.21 20.3389 38.21 20.3395C38.21 20.3402 38.21 20.3408 38.21 20.3414C38.21 20.3421 38.21 20.3427 38.21 20.3433C38.21 20.344 38.21 20.3446 38.21 20.3452C38.21 20.3459 38.21 20.3465 38.21 20.3471C38.21 20.3477 38.21 20.3484 38.21 20.349C38.21 20.3496 38.21 20.3503 38.21 20.3509C38.21 20.3515 38.21 20.3521 38.21 20.3528C38.21 20.3534 38.21 20.354 38.21 20.3547C38.21 20.3553 38.21 20.3559 38.21 20.3565C38.21 20.3572 38.21 20.3578 38.21 20.3584C38.21 20.359 38.21 20.3597 38.21 20.3603C38.21 20.3609 38.21 20.3615 38.21 20.3621C38.21 20.3628 38.21 20.3634 38.21 20.364C38.21 20.3646 38.21 20.3653 38.21 20.3659C38.21 20.3665 38.21 20.3671 38.21 20.3677C38.21 20.3684 38.21 20.369 38.21 20.3696C38.21 20.3702 38.21 20.3708 38.21 20.3715C38.21 20.3721 38.21 20.3727 38.21 20.3733C38.21 20.3739 38.21 20.3745 38.21 20.3752C38.21 20.3758 38.21 20.3764 38.21 20.377C38.21 20.3776 38.21 20.3782 38.21 20.3789C38.21 20.3795 38.21 20.3801 38.21 20.3807C38.21 20.3813 38.21 20.3819 38.21 20.3825C38.21 20.3832 38.21 20.3838 38.21 20.3844C38.21 20.385 38.21 20.3856 38.21 20.3862C38.21 20.3868 38.21 20.3874 38.21 20.388C38.21 20.3887 38.21 20.3893 38.21 20.3899C38.21 20.3905 38.21 20.3911 38.21 20.3917C38.21 20.3923 38.21 20.3929 38.21 20.3935C38.21 20.3941 38.21 20.3947 38.21 20.3954C38.21 20.396 38.21 20.3966 38.21 20.3972C38.21 20.3978 38.21 20.3984 38.21 20.399C38.21 20.3996 38.21 20.4002 38.21 20.4008C38.21 20.4014 38.21 20.402 38.21 20.4026C38.21 20.4032 38.21 20.4038 38.21 20.4044C38.21 20.405 38.21 20.4056 38.21 20.4062C38.21 20.4068 38.21 20.4074 38.21 20.408C38.21 20.4086 38.21 20.4092 38.21 20.4098C38.21 20.4104 38.21 20.411 38.21 20.4116C38.21 20.4122 38.21 20.4128 38.21 20.4134C38.21 20.414 38.21 20.4146 38.21 20.4152C38.21 20.4158 38.21 20.4164 38.21 20.417C38.21 20.4176 38.21 20.4182 38.21 20.4188C38.21 20.4194 38.21 20.42 38.21 20.4206C38.21 20.4212 38.21 20.4218 38.21 20.4224C38.21 20.423 38.21 20.4235 38.21 20.4241C38.21 20.4247 38.21 20.4253 38.21 20.4259C38.21 20.4265 38.21 20.4271 38.21 20.4277C38.21 20.4283 38.21 20.4289 38.21 20.4295C38.21 20.4301 38.21 20.4306 38.21 20.4312C38.21 20.4318 38.21 20.4324 38.21 20.433C38.21 20.4336 38.21 20.4342 38.21 20.4348C38.21 20.4353 38.21 20.4359 38.21 20.4365C38.21 20.4371 38.21 20.4377 38.21 20.4383C38.21 20.4389 38.21 20.4394 38.21 20.44C38.21 20.4406 38.21 20.4412 38.21 20.4418C38.21 20.4424 38.21 20.443 38.21 20.4435C38.21 20.4441 38.21 20.4447 38.21 20.4453C38.21 20.4459 38.21 20.4464 38.21 20.447C38.21 20.4476 38.21 20.4482 38.21 20.4488C38.21 20.4493 38.21 20.4499 38.21 20.4505C38.21 20.4511 38.21 20.4517 38.21 20.4522C38.21 20.4528 38.21 20.4534 38.21 20.454C38.21 20.4546 38.21 20.4551 38.21 20.4557C38.21 20.4563 38.21 20.4569 38.21 20.4574C38.21 20.458 38.21 20.4586 38.21 20.4592C38.21 20.4597 38.21 20.4603 38.21 20.4609C38.21 20.4615 38.21 20.462 38.21 20.4626C38.21 20.4632 38.21 20.4638 38.21 20.4643C38.21 20.4649 38.21 20.4655 38.21 20.466C38.21 20.4666 38.21 20.4672 38.21 20.4678C38.21 20.4683 38.21 20.4689 38.21 20.4695C38.21 20.47 38.21 20.4706 38.21 20.4712C38.21 20.4717 38.21 20.4723 38.21 20.4729C38.21 20.4734 38.21 20.474 38.21 20.4746C38.21 20.4751 38.21 20.4757 38.21 20.4763C38.21 20.4768 38.21 20.4774 38.21 20.478C38.21 20.4785 38.21 20.4791 38.21 20.4797C38.21 20.4802 38.21 20.4808 38.21 20.4814C38.21 20.4819 38.21 20.4825 38.21 20.483C38.21 20.4836 38.21 20.4842 38.21 20.4847C38.21 20.4853 38.21 20.4859 38.21 20.4864C38.21 20.487 38.21 20.4875 38.21 20.4881C38.21 20.4887 38.21 20.4892 38.21 20.4898C38.21 20.4903 38.21 20.4909 38.21 20.4914C38.21 20.492 38.21 20.4926 38.21 20.4931C38.21 20.4937 38.21 20.4942 38.21 20.4948C38.21 20.4953 38.21 20.4959 38.21 20.4965C38.21 20.497 38.21 20.4976 38.21 20.4981C38.21 20.4987 38.21 20.4992 38.21 20.4998C38.21 20.5003 38.21 20.5009 38.21 20.5014C38.21 20.502 38.21 20.5025 38.21 20.5031C38.21 20.5037 38.21 20.5042 38.21 20.5048C38.21 20.5053 38.21 20.5059 38.21 20.5064C38.21 20.507 38.21 20.5075 38.21 20.5081C38.21 20.5086 38.21 20.5091 38.21 20.5097C38.21 20.5102 38.21 20.5108 38.21 20.5113C38.21 20.5119 38.21 20.5124 38.21 20.513C38.21 20.5135 38.21 20.5141 38.21 20.5146C38.21 20.5152 38.21 20.5157 38.21 20.5163C38.21 20.5168 38.21 20.5173 38.21 20.5179C38.21 20.5184 38.21 20.519 38.21 20.5195C38.21 20.5201 38.21 20.5206 38.21 20.5211C38.21 20.5217 38.21 20.5222 38.21 20.5228C38.21 20.5233 38.21 20.5238 38.21 20.5244C38.21 20.5249 38.21 20.5255 38.21 20.526C38.21 20.5265 38.21 20.5271 38.21 20.5276C38.21 20.5282 38.21 20.5287 38.21 20.5292C38.21 20.5298 38.21 20.5303 38.21 20.5308C38.21 20.5314 38.21 20.5319 38.21 20.5325C38.21 20.533 38.21 20.5335 38.21 20.5341C38.21 20.5346 38.21 20.5351 38.21 20.5357C38.21 20.5362 38.21 20.5367 38.21 20.5373C38.21 20.5378 38.21 20.5383 38.21 20.5389C38.21 20.5394 38.21 20.5399 38.21 20.5405C38.21 20.541 38.21 20.5415 38.21 20.5421C38.21 20.5426 38.21 20.5431 38.21 20.5436C38.21 20.5442 38.21 20.5447 38.21 20.5452C38.21 20.5458 38.21 20.5463 38.21 20.5468C38.21 20.5473 38.21 20.5479 38.21 20.5484C38.21 20.5489 38.21 20.5494 38.21 20.55C38.21 20.5505 38.21 20.551 38.21 20.5515C38.21 20.5521 38.21 20.5526 38.21 20.5531C38.21 20.5536 38.21 20.5542 38.21 20.5547C38.21 20.5552 38.21 20.5557 38.21 20.5563C38.21 20.5568 38.21 20.5573 38.21 20.5578C38.21 20.5583 38.21 20.5589 38.21 20.5594C38.21 20.5599 38.21 20.5604 38.21 20.561C38.21 20.5615 38.21 20.562 38.21 20.5625C38.21 20.563 38.21 20.5635 38.21 20.5641C38.21 20.5646 38.21 20.5651 38.21 20.5656C38.21 20.5661 38.21 20.5666 38.21 20.5672C38.21 20.5677 38.21 20.5682 38.21 20.5687C38.21 20.5692 38.21 20.5697 38.21 20.5703C38.21 20.5708 38.21 20.5713 38.21 20.5718C38.21 20.5723 38.21 20.5728 38.21 20.5733C38.21 20.5738 38.21 20.5744 38.21 20.5749C38.21 20.5754 38.21 20.5759 38.21 20.5764C38.21 20.5769 38.21 20.5774 38.21 20.5779C38.21 20.5784 38.21 20.579 38.21 20.5795C38.21 20.58 38.21 20.5805 38.21 20.581C38.21 20.5815 38.21 20.582 38.21 20.5825C38.21 20.583 38.21 20.5835 38.21 20.584C38.21 20.5845 38.21 20.585 38.21 20.5856C38.21 20.5861 38.21 20.5866 38.21 20.5871C38.21 20.5876 38.21 20.5881 38.21 20.5886C38.21 20.5891 38.21 20.5896 38.21 20.5901C38.21 20.5906 38.21 20.5911 38.21 20.5916C38.21 20.5921 38.21 20.5926 38.21 20.5931C38.21 20.5936 38.21 20.5941 38.21 20.5946C38.21 20.5951 38.21 20.5956 38.21 20.5961C38.21 20.5966 38.21 20.5971 38.21 20.5976C38.21 20.5981 38.21 20.5986 38.21 20.5991C38.21 20.5996 38.21 20.6001 38.21 20.6006C38.21 20.6011 38.21 20.6016 38.21 20.6021C38.21 20.6026 38.21 20.6031 38.21 20.6036C38.21 20.604 38.21 20.6045 38.21 20.605C38.21 20.6055 38.21 20.606 38.21 20.6065C38.21 20.607 38.21 20.6075 38.21 20.608C38.21 20.6085 38.21 20.609 38.21 20.6095C38.21 20.61 38.21 20.6105 38.21 20.6109C38.21 20.6114 38.21 20.6119 38.21 20.6124C38.21 20.6129 38.21 20.6134 38.21 20.6139C38.21 20.6144 38.21 20.6149 38.21 20.6153C38.21 20.6158 38.21 20.6163 38.21 20.6168C38.21 20.6173 38.21 20.6178 38.21 20.6183C38.21 20.6187 38.21 20.6192 38.21 20.6197C38.21 20.6202 38.21 20.6207 38.21 20.6212C38.21 20.6217 38.21 20.6221 38.21 20.6226C38.21 20.6231 38.21 20.6236 38.21 20.6241C38.21 20.6246 38.21 20.625 38.21 20.6255C38.21 20.626 38.21 20.6265 38.21 20.627C38.21 20.6274 38.21 20.6279 38.21 20.6284C38.21 20.6289 38.21 20.6294 38.21 20.6298C38.21 20.6303 38.21 20.6308 38.21 20.6313C38.21 20.6317 38.21 20.6322 38.21 20.6327C38.21 20.6332 38.21 20.6337 38.21 20.6341C38.21 20.6346 38.21 20.6351 38.21 20.6356C38.21 20.636 38.21 20.6365 38.21 20.637C38.21 20.6375 38.21 20.6379 38.21 20.6384C38.21 20.6389 38.21 20.6393 38.21 20.6398C38.21 20.6403 38.21 20.6408 38.21 20.6412C38.21 20.6417 38.21 20.6422 38.21 20.6427C38.21 20.6431 38.21 20.6436 38.21 20.6441C38.21 20.6445 38.21 20.645 38.21 20.6455C38.21 20.6459 38.21 20.6464 38.21 20.6469C38.21 20.6473 38.21 20.6478 38.21 20.6483C38.21 20.6487 38.21 20.6492 38.21 20.6497C38.21 20.6501 38.21 20.6506 38.21 20.6511C38.21 20.6515 38.21 20.652 38.21 20.6525C38.21 20.6529 38.21 20.6534 38.21 20.6539C38.21 20.6543 38.21 20.6548 38.21 20.6553C38.21 20.6557 38.21 20.6562 38.21 20.6566C38.21 20.6571 38.21 20.6576 38.21 20.658C38.21 20.6585 38.21 20.6589 38.21 20.6594C38.21 20.6599 38.21 20.6603 38.21 20.6608C38.21 20.6612 38.21 20.6617 38.21 20.6622C38.21 20.6626 38.21 20.6631 38.21 20.6635C38.21 20.664 38.21 20.6644 38.21 20.6649C38.21 20.6654 38.21 20.6658 38.21 20.6663C38.21 20.6667 38.21 20.6672 38.21 20.6676C38.21 20.6681 38.21 20.6685 38.21 20.669C38.21 20.6695 38.21 20.6699 38.21 20.6704C38.21 20.6708 38.21 20.6713 38.21 20.6717C38.21 20.6722 38.21 20.6726 38.21 20.6731C38.21 20.6735 38.21 20.674 38.21 20.6744C38.21 20.6749 38.21 20.6753 38.21 20.6758C38.21 20.6762 38.21 20.6767 38.21 20.6771C38.21 20.6776 38.21 20.678 38.21 20.6785C38.21 20.6789 38.21 20.6794 38.21 20.6798C38.21 20.6803 38.21 20.6807 38.21 20.6811C38.21 20.6816 38.21 20.682 38.21 20.6825C38.21 20.6829 38.21 20.6834 38.21 20.6838C38.21 20.6843 38.21 20.6847 38.21 20.6851C38.21 20.6856 38.21 20.686 38.21 20.6865C38.21 20.6869 38.21 20.6874 38.21 20.6878C38.21 20.6882 38.21 20.6887 38.21 20.6891C38.21 20.6896 38.21 20.69 38.21 20.6904C38.21 20.6909 38.21 20.6913 38.21 20.6918C38.21 20.6922 38.21 20.6926 38.21 20.6931C38.21 20.6935 38.21 20.6939 38.21 20.6944C38.21 20.6948 38.21 20.6953 38.21 20.6957C38.21 20.6961 38.21 20.6966 38.21 20.697C38.21 20.6974 38.21 20.6979 38.21 20.6983C38.21 20.6987 38.21 20.6992 38.21 20.6996C38.21 20.7 38.21 20.7005 38.21 20.7009C38.21 20.7013 38.21 20.7018 38.21 20.7022C38.21 20.7026 38.21 20.7031 38.21 20.7035C38.21 20.7039 38.21 20.7044 38.21 20.7048C38.21 20.7052 38.21 20.7056 38.21 20.7061C38.21 20.7065 38.21 20.7069 38.21 20.7074C38.21 20.7078 38.21 20.7082 38.21 20.7086C38.21 20.7091 38.21 20.7095 38.21 20.7099C38.21 20.7103 38.21 20.7108 38.21 20.7112C38.21 20.7116 38.21 20.712 38.21 20.7125C38.21 20.7129 38.21 20.7133 38.21 20.7137C38.21 20.7142 38.21 20.7146 38.21 20.715C38.21 20.7154 38.21 20.7159 38.21 20.7163C38.21 20.7167 38.21 20.7171 38.21 20.7175C38.21 20.718 38.21 20.7184 38.21 20.7188C38.21 20.7192 38.21 20.7196 38.21 20.7201C38.21 20.7205 38.21 20.7209 38.21 20.7213C38.21 20.7217 38.21 20.7222 38.21 20.7226C38.21 20.723 38.21 20.7234 38.21 20.7238C38.21 20.7242 38.21 20.7247 38.21 20.7251C38.21 20.7255 38.21 20.7259 38.21 20.7263C38.21 20.7267 38.21 20.7271 38.21 20.7276C38.21 20.728 38.21 20.7284 38.21 20.7288C38.21 20.7292 38.21 20.7296 38.21 20.73C38.21 20.7304 38.21 20.7309 38.21 20.7313C38.21 20.7317 38.21 20.7321 38.21 20.7325C38.21 20.7329 38.21 20.7333 38.21 20.7337C38.21 20.7341 38.21 20.7345 38.21 20.735C38.21 20.7354 38.21 20.7358 38.21 20.7362C38.21 20.7366 38.21 20.737 38.21 20.7374C38.21 20.7378 38.21 20.7382 38.21 20.7386C38.21 20.739 38.21 20.7394 38.21 20.7398C38.21 20.7402 38.21 20.7406 38.21 20.741C38.21 20.7414 38.21 20.7419 38.21 20.7423C38.21 20.7427 38.21 20.7431 38.21 20.7435C38.21 20.7439 38.21 20.7443 38.21 20.7447C38.21 20.7451 38.21 20.7455 38.21 20.7459C38.21 20.7463 38.21 20.7467 38.21 20.7471C38.21 20.7475 38.21 20.7479 38.21 20.7483C38.21 20.7487 38.21 20.7491 38.21 20.7495C38.21 20.7499 38.21 20.7503 38.21 20.7507C38.21 20.7511 38.21 20.7514 38.21 20.7518C38.21 20.7522 38.21 20.7526 38.21 20.753C38.21 20.7534 38.21 20.7538 38.21 20.7542C38.21 20.7546 38.21 20.755 38.21 20.7554C38.21 20.7558 38.21 20.7562 38.21 20.7566C38.21 20.757 38.21 20.7574 38.21 20.7577C38.21 20.7581 38.21 20.7585 38.21 20.7589C38.21 20.7593 38.21 20.7597 38.21 20.7601C38.21 20.7605 38.21 20.7609 38.21 20.7613C38.21 20.7616 38.21 20.762 38.21 20.7624C38.21 20.7628 38.21 20.7632 38.21 20.7636C38.21 20.764 38.21 20.7644 38.21 20.7647C38.21 20.7651 38.21 20.7655 38.21 20.7659C38.21 20.7663 38.21 20.7667 38.21 20.7671C38.21 20.7674 38.21 20.7678 38.21 20.7682C38.21 20.7686 38.21 20.769 38.21 20.7694C38.21 20.7697 38.21 20.7701 38.21 20.7705C38.21 20.7709 38.21 20.7713 38.21 20.7716C38.21 20.772 38.21 20.7724 38.21 20.7728C38.21 20.7732 38.21 20.7735 38.21 20.7739C38.21 20.7743 38.21 20.7747 38.21 20.7751C38.21 20.7754 38.21 20.7758 38.21 20.7762C38.21 20.7766 38.21 20.777 38.21 20.7773C38.21 20.7777 38.21 20.7781 38.21 20.7785C38.21 20.7788 38.21 20.7792 38.21 20.7796C38.21 20.78 38.21 20.7803 38.21 20.7807C38.21 20.7811 38.21 20.7814 38.21 20.7818C38.21 20.7822 38.21 20.7826 38.21 20.7829C38.21 20.7833 38.21 20.7837 38.21 20.7841C38.21 20.7844 38.21 20.7848 38.21 20.7852C38.21 20.7855 38.21 20.7859 38.21 20.7863C38.21 20.7866 38.21 20.787 38.21 20.7874C38.21 20.7877 38.21 20.7881 38.21 20.7885C38.21 20.7889 38.21 20.7892 38.21 20.7896C38.21 20.79 38.21 20.7903 38.21 20.7907C38.21 20.791 38.21 20.7914 38.21 20.7918C38.21 20.7921 38.21 20.7925 38.21 20.7929C38.21 20.7932 38.21 20.7936 38.21 20.794C38.21 20.7943 38.21 20.7947 38.21 20.795C38.21 20.7954 38.21 20.7958 38.21 20.7961C38.21 20.7965 38.21 20.7969 38.21 20.7972C38.21 20.7976 38.21 20.7979 38.21 20.7983C38.21 20.7987 38.21 20.799 38.21 20.7994C38.21 20.7997 38.21 20.8001 38.21 20.8004C38.21 20.8008 38.21 20.8012 38.21 20.8015C38.21 20.8019 38.21 20.8022 38.21 20.8026C38.21 20.8029 38.21 20.8033 38.21 20.8037C38.21 20.804 38.21 20.8044 38.21 20.8047C38.21 20.8051 38.21 20.8054 38.21 20.8058C38.21 20.8061 38.21 20.8065 38.21 20.8068C38.21 20.8072 38.21 20.8075 38.21 20.8079C38.21 20.8082 38.21 20.8086 38.21 20.8089C38.21 20.8093 38.21 20.8096 38.21 20.81C38.21 20.8103 38.21 20.8107 38.21 20.811C38.21 20.8114 38.21 20.8117 38.21 20.8121C38.21 20.8124 38.21 20.8128 38.21 20.8131C38.21 20.8135 38.21 20.8138 38.21 20.8142C38.21 20.8145 38.21 20.8149 38.21 20.8152C38.21 20.8156 38.21 20.8159 38.21 20.8162C38.21 20.8166 38.21 20.8169 38.21 20.8173C38.21 20.8176 38.21 20.818 38.21 20.8183C38.21 20.8186 38.21 20.819 38.21 20.8193C38.21 20.8197 38.21 20.82 38.21 20.8204C38.21 20.8207 38.21 20.821 38.21 20.8214C38.21 20.8217 38.21 20.8221 38.21 20.8224C38.21 20.8227 38.21 20.8231 38.21 20.8234C38.21 20.8237 38.21 20.8241 38.21 20.8244C38.21 20.8248 38.21 20.8251 38.21 20.8254C38.21 20.8258 38.21 20.8261 38.21 20.8264C38.21 20.8268 38.21 20.8271 38.21 20.8274C38.21 20.8278 38.21 20.8281 38.21 20.8284C38.21 20.8288 38.21 20.8291 38.21 20.8294C38.21 20.8298 38.21 20.8301 38.21 20.8304C38.21 20.8308 38.21 20.8311 38.21 20.8314C38.21 20.8318 38.21 20.8321 38.21 20.8324C38.21 20.8328 38.21 20.8331 38.21 20.8334C38.21 20.8337 38.21 20.8341 38.21 20.8344C38.21 20.8347 38.21 20.8351 38.21 20.8354C38.21 20.8357 38.21 20.836 38.21 20.8364C38.21 20.8367 38.21 20.837 38.21 20.8373C38.21 20.8377 38.21 20.838 38.21 20.8383C38.21 20.8386 38.21 20.839 38.21 20.8393C38.21 20.8396 38.21 20.8399 38.21 20.8403C38.21 20.8406 38.21 20.8409 38.21 20.8412C38.21 20.8415 38.21 20.8419 38.21 20.8422C38.21 20.8425 38.21 20.8428 38.21 20.8432C38.21 20.8435 38.21 20.8438 38.21 20.8441C38.21 20.8444 38.21 20.8448 38.21 20.8451C38.21 20.8454 38.21 20.8457 38.21 20.846C38.21 20.8463 38.21 20.8467 38.21 20.847C38.21 20.8473 38.21 20.8476 38.21 20.8479C38.21 20.8482 38.21 20.8486 38.21 20.8489C38.21 20.8492 38.21 20.8495 38.21 20.8498C38.21 20.8501 38.21 20.8504 38.21 20.8508C38.21 20.8511 38.21 20.8514 38.21 20.8517C38.21 20.852 38.21 20.8523 38.21 20.8526C38.21 20.8529 38.21 20.8533 38.21 20.8536C38.21 20.8539 38.21 20.8542 38.21 20.8545C38.21 20.8548 38.21 20.8551 38.21 20.8554C38.21 20.8557 38.21 20.856 38.21 20.8563C38.21 20.8567 38.21 20.857 38.21 20.8573C38.21 20.8576 38.21 20.8579 38.21 20.8582C38.21 20.8585 38.21 20.8588 38.21 20.8591C38.21 20.8594 38.21 20.8597 38.21 20.86C38.21 20.8603 38.21 20.8606 38.21 20.8609C38.21 20.8612 38.21 20.8615 38.21 20.8618C38.21 20.8621 38.21 20.8624 38.21 20.8627C38.21 20.863 38.21 20.8633 38.21 20.8636C38.21 20.8639 38.21 20.8642 38.21 20.8645C38.21 20.8648 38.21 20.8651 38.21 20.8654C38.21 20.8657 38.21 20.866 38.21 20.8663C38.21 20.8666 38.21 20.8669 38.21 20.8672C38.21 20.8675 38.21 20.8678 38.21 20.8681C38.21 20.8684 38.21 20.8687 38.21 20.869C38.21 20.8693 38.21 20.8696 38.21 20.8699C38.21 20.8702 38.21 20.8705 38.21 20.8708C38.21 20.8711 38.21 20.8714 38.21 20.8717C38.21 20.8719 38.21 20.8722 38.21 20.8725C38.21 20.8728 38.21 20.8731 38.21 20.8734C38.21 20.8737 38.21 20.874 38.21 20.8743C38.21 20.8746 38.21 20.8749 38.21 20.8751C38.21 20.8754 38.21 20.8757 38.21 20.876C38.21 20.8763 38.21 20.8766 38.21 20.8769C38.21 20.8772 38.21 20.8774 38.21 20.8777C38.21 20.878 38.21 20.8783 38.21 20.8786C38.21 20.8789 38.21 20.8792 38.21 20.8794C38.21 20.8797 38.21 20.88 38.21 20.8803C38.21 20.8806 38.21 20.8809 38.21 20.8812C38.21 20.8814 38.21 20.8817 38.21 20.882C38.21 20.8823 38.21 20.8826 38.21 20.8828C38.21 20.8831 38.21 20.8834 38.21 20.8837C38.21 20.884 38.21 20.8842 38.21 20.8845C38.21 20.8848 38.21 20.8851 38.21 20.8854C38.21 20.8856 38.21 20.8859 38.21 20.8862C38.21 20.8865 38.21 20.8867 38.21 20.887C38.21 20.8873 38.21 20.8876 38.21 20.8879C38.21 20.8881 38.21 20.8884 38.21 20.8887C38.21 20.889 38.21 20.8892 38.21 20.8895C38.21 20.8898 38.21 20.8901 38.21 20.8903C38.21 20.8906 38.21 20.8909 38.21 20.8911C38.21 20.8914 38.21 20.8917 38.21 20.892C38.21 20.8922 38.21 20.8925 38.21 20.8928C38.21 20.893 38.21 20.8933 38.21 20.8936C38.21 20.8939 38.21 20.8941 38.21 20.8944C38.21 20.8947 38.21 20.8949 38.21 20.8952C38.21 20.8955 38.21 20.8957 38.21 20.896C38.21 20.8963 38.21 20.8965 38.21 20.8968C38.21 20.8971 38.21 20.8973 38.21 20.8976C38.21 20.8979 38.21 20.8981 38.21 20.8984C38.21 20.8986 38.21 20.8989 38.21 20.8992C38.21 20.8994 38.21 20.8997 38.21 20.9C38.21 20.9002 38.21 20.9005 38.21 20.9007C38.21 20.901 38.21 20.9013 38.21 20.9015C38.21 20.9018 38.21 20.9021 38.21 20.9023C38.21 20.9026 38.21 20.9028 38.21 20.9031C38.21 20.9033 38.21 20.9036 38.21 20.9039C38.21 20.9041 38.21 20.9044 38.21 20.9046C38.21 20.9049 38.21 20.9052 38.21 20.9054C38.21 20.9057 38.21 20.9059 38.21 20.9062C38.21 20.9064 38.21 20.9067 38.21 20.9069C38.21 20.9072 38.21 20.9074 38.21 20.9077C38.21 20.908 38.21 20.9082 38.21 20.9085C38.21 20.9087 38.21 20.909 38.21 20.9092C38.21 20.9095 38.21 20.9097 38.21 20.91C38.21 20.9102 38.21 20.9105 38.21 20.9107C38.21 20.911 38.21 20.9112 38.21 20.9115C38.21 20.9117 38.21 20.912 38.21 20.9122C38.21 20.9125 38.21 20.9127 38.21 20.913C38.21 20.9132 38.21 20.9135 38.21 20.9137C38.21 20.9139 38.21 20.9142 38.21 20.9144C38.21 20.9147 38.21 20.9149 38.21 20.9152C38.21 20.9154 38.21 20.9157 38.21 20.9159C38.21 20.9161 38.21 20.9164 38.21 20.9166C38.21 20.9169 38.21 20.9171 38.21 20.9174C38.21 20.9176 38.21 20.9178 38.21 20.9181C38.21 20.9183 38.21 20.9186 38.21 20.9188C38.21 20.919 38.21 20.9193 38.21 20.9195C38.21 20.9198 38.21 20.92 38.21 20.9202C38.21 20.9205 38.21 20.9207 38.21 20.921C38.21 20.9212 38.21 20.9214 38.21 20.9217C38.21 20.9219 38.21 20.9221 38.21 20.9224C38.21 20.9226 38.21 20.9228 38.21 20.9231C38.21 20.9233 38.21 20.9236 38.21 20.9238C38.21 20.924 38.21 20.9243 38.21 20.9245C38.21 20.9247 38.21 20.925 38.21 20.9252C38.21 20.9254 38.21 20.9256 38.21 20.9259C38.21 20.9261 38.21 20.9263 38.21 20.9266C38.21 20.9268 38.21 20.927 38.21 20.9273C38.21 20.9275 38.21 20.9277 38.21 20.9279C38.21 20.9282 38.21 20.9284 38.21 20.9286C38.21 20.9289 38.21 20.9291 38.21 20.9293C38.21 20.9295 38.21 20.9298 38.21 20.93C38.21 20.9302 38.21 20.9304 38.21 20.9307C38.21 20.9309 38.21 20.9311 38.21 20.9313C38.21 20.9316 38.21 20.9318 38.21 20.932C38.21 20.9322 38.21 20.9325 38.21 20.9327C38.21 20.9329 38.21 20.9331 38.21 20.9333C38.21 20.9336 38.21 20.9338 38.21 20.934C38.21 20.9342 38.21 20.9345 38.21 20.9347C38.21 20.9349 38.21 20.9351 38.21 20.9353C38.21 20.9355 38.21 20.9358 38.21 20.936C38.21 20.9362 38.21 20.9364 38.21 20.9366C38.21 20.9369 38.21 20.9371 38.21 20.9373C38.21 20.9375 38.21 20.9377 38.21 20.9379C38.21 20.9381 38.21 20.9384 38.21 20.9386C38.21 20.9388 38.21 20.939 38.21 20.9392C38.21 20.9394 38.21 20.9396 38.21 20.9399C38.21 20.9401 38.21 20.9403 38.21 20.9405C38.21 20.9407 38.21 20.9409 38.21 20.9411C38.21 20.9413 38.21 20.9416 38.21 20.9418C38.21 20.942 38.21 20.9422 38.21 20.9424C38.21 20.9426 38.21 20.9428 38.21 20.943C38.21 20.9432 38.21 20.9434 38.21 20.9436C38.21 20.9438 38.21 20.9441 38.21 20.9443C38.21 20.9445 38.21 20.9447 38.21 20.9449C38.21 20.9451 38.21 20.9453 38.21 20.9455C38.21 20.9457 38.21 20.9459 38.21 20.9461C38.21 20.9463 38.21 20.9465 38.21 20.9467C38.21 20.9469 38.21 20.9471 38.21 20.9473C38.21 20.9475 38.21 20.9477 38.21 20.9479C38.21 20.9481 38.21 20.9483 38.21 20.9485C38.21 20.9487 38.21 20.9489 38.21 20.9491C38.21 20.9493 38.21 20.9495 38.21 20.9497C38.21 20.9499 38.21 20.9501 38.21 20.9503C38.21 20.9505 38.21 20.9507 38.21 20.9509C38.21 20.9511 38.21 20.9513 38.21 20.9515C38.21 20.9517 38.21 20.9519 38.21 20.9521C38.21 20.9523 38.21 20.9525 38.21 20.9527C38.21 20.9529 38.21 20.953 38.21 20.9532C38.21 20.9534 38.21 20.9536 38.21 20.9538C38.21 20.954 38.21 20.9542 38.21 20.9544C38.21 20.9546 38.21 20.9548 38.21 20.955C38.21 20.9552 38.21 20.9553 38.21 20.9555C38.21 20.9557 38.21 20.9559 38.21 20.9561C38.21 20.9563 38.21 20.9565 38.21 20.9567C38.21 20.9569 38.21 20.957 38.21 20.9572C38.21 20.9574 38.21 20.9576 38.21 20.9578C38.21 20.958 38.21 20.9582 38.21 20.9583C38.21 20.9585 38.21 20.9587 38.21 20.9589C38.21 20.9591 38.21 20.9593 38.21 20.9594C38.21 20.9596 38.21 20.9598 38.21 20.96H40.21C40.21 20.9598 40.21 20.9596 40.21 20.9594C40.21 20.9593 40.21 20.9591 40.21 20.9589C40.21 20.9587 40.21 20.9585 40.21 20.9583C40.21 20.9582 40.21 20.958 40.21 20.9578C40.21 20.9576 40.21 20.9574 40.21 20.9572C40.21 20.957 40.21 20.9569 40.21 20.9567C40.21 20.9565 40.21 20.9563 40.21 20.9561C40.21 20.9559 40.21 20.9557 40.21 20.9555C40.21 20.9553 40.21 20.9552 40.21 20.955C40.21 20.9548 40.21 20.9546 40.21 20.9544C40.21 20.9542 40.21 20.954 40.21 20.9538C40.21 20.9536 40.21 20.9534 40.21 20.9532C40.21 20.953 40.21 20.9529 40.21 20.9527C40.21 20.9525 40.21 20.9523 40.21 20.9521C40.21 20.9519 40.21 20.9517 40.21 20.9515C40.21 20.9513 40.21 20.9511 40.21 20.9509C40.21 20.9507 40.21 20.9505 40.21 20.9503C40.21 20.9501 40.21 20.9499 40.21 20.9497C40.21 20.9495 40.21 20.9493 40.21 20.9491C40.21 20.9489 40.21 20.9487 40.21 20.9485C40.21 20.9483 40.21 20.9481 40.21 20.9479C40.21 20.9477 40.21 20.9475 40.21 20.9473C40.21 20.9471 40.21 20.9469 40.21 20.9467C40.21 20.9465 40.21 20.9463 40.21 20.9461C40.21 20.9459 40.21 20.9457 40.21 20.9455C40.21 20.9453 40.21 20.9451 40.21 20.9449C40.21 20.9447 40.21 20.9445 40.21 20.9443C40.21 20.9441 40.21 20.9438 40.21 20.9436C40.21 20.9434 40.21 20.9432 40.21 20.943C40.21 20.9428 40.21 20.9426 40.21 20.9424C40.21 20.9422 40.21 20.942 40.21 20.9418C40.21 20.9416 40.21 20.9413 40.21 20.9411C40.21 20.9409 40.21 20.9407 40.21 20.9405C40.21 20.9403 40.21 20.9401 40.21 20.9399C40.21 20.9396 40.21 20.9394 40.21 20.9392C40.21 20.939 40.21 20.9388 40.21 20.9386C40.21 20.9384 40.21 20.9381 40.21 20.9379C40.21 20.9377 40.21 20.9375 40.21 20.9373C40.21 20.9371 40.21 20.9369 40.21 20.9366C40.21 20.9364 40.21 20.9362 40.21 20.936C40.21 20.9358 40.21 20.9355 40.21 20.9353C40.21 20.9351 40.21 20.9349 40.21 20.9347C40.21 20.9345 40.21 20.9342 40.21 20.934C40.21 20.9338 40.21 20.9336 40.21 20.9333C40.21 20.9331 40.21 20.9329 40.21 20.9327C40.21 20.9325 40.21 20.9322 40.21 20.932C40.21 20.9318 40.21 20.9316 40.21 20.9313C40.21 20.9311 40.21 20.9309 40.21 20.9307C40.21 20.9304 40.21 20.9302 40.21 20.93C40.21 20.9298 40.21 20.9295 40.21 20.9293C40.21 20.9291 40.21 20.9289 40.21 20.9286C40.21 20.9284 40.21 20.9282 40.21 20.9279C40.21 20.9277 40.21 20.9275 40.21 20.9273C40.21 20.927 40.21 20.9268 40.21 20.9266C40.21 20.9263 40.21 20.9261 40.21 20.9259C40.21 20.9256 40.21 20.9254 40.21 20.9252C40.21 20.925 40.21 20.9247 40.21 20.9245C40.21 20.9243 40.21 20.924 40.21 20.9238C40.21 20.9236 40.21 20.9233 40.21 20.9231C40.21 20.9228 40.21 20.9226 40.21 20.9224C40.21 20.9221 40.21 20.9219 40.21 20.9217C40.21 20.9214 40.21 20.9212 40.21 20.921C40.21 20.9207 40.21 20.9205 40.21 20.9202C40.21 20.92 40.21 20.9198 40.21 20.9195C40.21 20.9193 40.21 20.919 40.21 20.9188C40.21 20.9186 40.21 20.9183 40.21 20.9181C40.21 20.9178 40.21 20.9176 40.21 20.9174C40.21 20.9171 40.21 20.9169 40.21 20.9166C40.21 20.9164 40.21 20.9161 40.21 20.9159C40.21 20.9157 40.21 20.9154 40.21 20.9152C40.21 20.9149 40.21 20.9147 40.21 20.9144C40.21 20.9142 40.21 20.9139 40.21 20.9137C40.21 20.9135 40.21 20.9132 40.21 20.913C40.21 20.9127 40.21 20.9125 40.21 20.9122C40.21 20.912 40.21 20.9117 40.21 20.9115C40.21 20.9112 40.21 20.911 40.21 20.9107C40.21 20.9105 40.21 20.9102 40.21 20.91C40.21 20.9097 40.21 20.9095 40.21 20.9092C40.21 20.909 40.21 20.9087 40.21 20.9085C40.21 20.9082 40.21 20.908 40.21 20.9077C40.21 20.9074 40.21 20.9072 40.21 20.9069C40.21 20.9067 40.21 20.9064 40.21 20.9062C40.21 20.9059 40.21 20.9057 40.21 20.9054C40.21 20.9052 40.21 20.9049 40.21 20.9046C40.21 20.9044 40.21 20.9041 40.21 20.9039C40.21 20.9036 40.21 20.9033 40.21 20.9031C40.21 20.9028 40.21 20.9026 40.21 20.9023C40.21 20.9021 40.21 20.9018 40.21 20.9015C40.21 20.9013 40.21 20.901 40.21 20.9007C40.21 20.9005 40.21 20.9002 40.21 20.9C40.21 20.8997 40.21 20.8994 40.21 20.8992C40.21 20.8989 40.21 20.8986 40.21 20.8984C40.21 20.8981 40.21 20.8979 40.21 20.8976C40.21 20.8973 40.21 20.8971 40.21 20.8968C40.21 20.8965 40.21 20.8963 40.21 20.896C40.21 20.8957 40.21 20.8955 40.21 20.8952C40.21 20.8949 40.21 20.8947 40.21 20.8944C40.21 20.8941 40.21 20.8939 40.21 20.8936C40.21 20.8933 40.21 20.893 40.21 20.8928C40.21 20.8925 40.21 20.8922 40.21 20.892C40.21 20.8917 40.21 20.8914 40.21 20.8911C40.21 20.8909 40.21 20.8906 40.21 20.8903C40.21 20.8901 40.21 20.8898 40.21 20.8895C40.21 20.8892 40.21 20.889 40.21 20.8887C40.21 20.8884 40.21 20.8881 40.21 20.8879C40.21 20.8876 40.21 20.8873 40.21 20.887C40.21 20.8867 40.21 20.8865 40.21 20.8862C40.21 20.8859 40.21 20.8856 40.21 20.8854C40.21 20.8851 40.21 20.8848 40.21 20.8845C40.21 20.8842 40.21 20.884 40.21 20.8837C40.21 20.8834 40.21 20.8831 40.21 20.8828C40.21 20.8826 40.21 20.8823 40.21 20.882C40.21 20.8817 40.21 20.8814 40.21 20.8812C40.21 20.8809 40.21 20.8806 40.21 20.8803C40.21 20.88 40.21 20.8797 40.21 20.8794C40.21 20.8792 40.21 20.8789 40.21 20.8786C40.21 20.8783 40.21 20.878 40.21 20.8777C40.21 20.8774 40.21 20.8772 40.21 20.8769C40.21 20.8766 40.21 20.8763 40.21 20.876C40.21 20.8757 40.21 20.8754 40.21 20.8751C40.21 20.8749 40.21 20.8746 40.21 20.8743C40.21 20.874 40.21 20.8737 40.21 20.8734C40.21 20.8731 40.21 20.8728 40.21 20.8725C40.21 20.8722 40.21 20.8719 40.21 20.8717C40.21 20.8714 40.21 20.8711 40.21 20.8708C40.21 20.8705 40.21 20.8702 40.21 20.8699C40.21 20.8696 40.21 20.8693 40.21 20.869C40.21 20.8687 40.21 20.8684 40.21 20.8681C40.21 20.8678 40.21 20.8675 40.21 20.8672C40.21 20.8669 40.21 20.8666 40.21 20.8663C40.21 20.866 40.21 20.8657 40.21 20.8654C40.21 20.8651 40.21 20.8648 40.21 20.8645C40.21 20.8642 40.21 20.8639 40.21 20.8636C40.21 20.8633 40.21 20.863 40.21 20.8627C40.21 20.8624 40.21 20.8621 40.21 20.8618C40.21 20.8615 40.21 20.8612 40.21 20.8609C40.21 20.8606 40.21 20.8603 40.21 20.86C40.21 20.8597 40.21 20.8594 40.21 20.8591C40.21 20.8588 40.21 20.8585 40.21 20.8582C40.21 20.8579 40.21 20.8576 40.21 20.8573C40.21 20.857 40.21 20.8567 40.21 20.8563C40.21 20.856 40.21 20.8557 40.21 20.8554C40.21 20.8551 40.21 20.8548 40.21 20.8545C40.21 20.8542 40.21 20.8539 40.21 20.8536C40.21 20.8533 40.21 20.8529 40.21 20.8526C40.21 20.8523 40.21 20.852 40.21 20.8517C40.21 20.8514 40.21 20.8511 40.21 20.8508C40.21 20.8504 40.21 20.8501 40.21 20.8498C40.21 20.8495 40.21 20.8492 40.21 20.8489C40.21 20.8486 40.21 20.8482 40.21 20.8479C40.21 20.8476 40.21 20.8473 40.21 20.847C40.21 20.8467 40.21 20.8463 40.21 20.846C40.21 20.8457 40.21 20.8454 40.21 20.8451C40.21 20.8448 40.21 20.8444 40.21 20.8441C40.21 20.8438 40.21 20.8435 40.21 20.8432C40.21 20.8428 40.21 20.8425 40.21 20.8422C40.21 20.8419 40.21 20.8415 40.21 20.8412C40.21 20.8409 40.21 20.8406 40.21 20.8403C40.21 20.8399 40.21 20.8396 40.21 20.8393C40.21 20.839 40.21 20.8386 40.21 20.8383C40.21 20.838 40.21 20.8377 40.21 20.8373C40.21 20.837 40.21 20.8367 40.21 20.8364C40.21 20.836 40.21 20.8357 40.21 20.8354C40.21 20.8351 40.21 20.8347 40.21 20.8344C40.21 20.8341 40.21 20.8337 40.21 20.8334C40.21 20.8331 40.21 20.8328 40.21 20.8324C40.21 20.8321 40.21 20.8318 40.21 20.8314C40.21 20.8311 40.21 20.8308 40.21 20.8304C40.21 20.8301 40.21 20.8298 40.21 20.8294C40.21 20.8291 40.21 20.8288 40.21 20.8284C40.21 20.8281 40.21 20.8278 40.21 20.8274C40.21 20.8271 40.21 20.8268 40.21 20.8264C40.21 20.8261 40.21 20.8258 40.21 20.8254C40.21 20.8251 40.21 20.8248 40.21 20.8244C40.21 20.8241 40.21 20.8237 40.21 20.8234C40.21 20.8231 40.21 20.8227 40.21 20.8224C40.21 20.8221 40.21 20.8217 40.21 20.8214C40.21 20.821 40.21 20.8207 40.21 20.8204C40.21 20.82 40.21 20.8197 40.21 20.8193C40.21 20.819 40.21 20.8186 40.21 20.8183C40.21 20.818 40.21 20.8176 40.21 20.8173C40.21 20.8169 40.21 20.8166 40.21 20.8162C40.21 20.8159 40.21 20.8156 40.21 20.8152C40.21 20.8149 40.21 20.8145 40.21 20.8142C40.21 20.8138 40.21 20.8135 40.21 20.8131C40.21 20.8128 40.21 20.8124 40.21 20.8121C40.21 20.8117 40.21 20.8114 40.21 20.811C40.21 20.8107 40.21 20.8103 40.21 20.81C40.21 20.8096 40.21 20.8093 40.21 20.8089C40.21 20.8086 40.21 20.8082 40.21 20.8079C40.21 20.8075 40.21 20.8072 40.21 20.8068C40.21 20.8065 40.21 20.8061 40.21 20.8058C40.21 20.8054 40.21 20.8051 40.21 20.8047C40.21 20.8044 40.21 20.804 40.21 20.8037C40.21 20.8033 40.21 20.8029 40.21 20.8026C40.21 20.8022 40.21 20.8019 40.21 20.8015C40.21 20.8012 40.21 20.8008 40.21 20.8004C40.21 20.8001 40.21 20.7997 40.21 20.7994C40.21 20.799 40.21 20.7987 40.21 20.7983C40.21 20.7979 40.21 20.7976 40.21 20.7972C40.21 20.7969 40.21 20.7965 40.21 20.7961C40.21 20.7958 40.21 20.7954 40.21 20.795C40.21 20.7947 40.21 20.7943 40.21 20.794C40.21 20.7936 40.21 20.7932 40.21 20.7929C40.21 20.7925 40.21 20.7921 40.21 20.7918C40.21 20.7914 40.21 20.791 40.21 20.7907C40.21 20.7903 40.21 20.79 40.21 20.7896C40.21 20.7892 40.21 20.7889 40.21 20.7885C40.21 20.7881 40.21 20.7877 40.21 20.7874C40.21 20.787 40.21 20.7866 40.21 20.7863C40.21 20.7859 40.21 20.7855 40.21 20.7852C40.21 20.7848 40.21 20.7844 40.21 20.7841C40.21 20.7837 40.21 20.7833 40.21 20.7829C40.21 20.7826 40.21 20.7822 40.21 20.7818C40.21 20.7814 40.21 20.7811 40.21 20.7807C40.21 20.7803 40.21 20.78 40.21 20.7796C40.21 20.7792 40.21 20.7788 40.21 20.7785C40.21 20.7781 40.21 20.7777 40.21 20.7773C40.21 20.777 40.21 20.7766 40.21 20.7762C40.21 20.7758 40.21 20.7754 40.21 20.7751C40.21 20.7747 40.21 20.7743 40.21 20.7739C40.21 20.7735 40.21 20.7732 40.21 20.7728C40.21 20.7724 40.21 20.772 40.21 20.7716C40.21 20.7713 40.21 20.7709 40.21 20.7705C40.21 20.7701 40.21 20.7697 40.21 20.7694C40.21 20.769 40.21 20.7686 40.21 20.7682C40.21 20.7678 40.21 20.7674 40.21 20.7671C40.21 20.7667 40.21 20.7663 40.21 20.7659C40.21 20.7655 40.21 20.7651 40.21 20.7647C40.21 20.7644 40.21 20.764 40.21 20.7636C40.21 20.7632 40.21 20.7628 40.21 20.7624C40.21 20.762 40.21 20.7616 40.21 20.7613C40.21 20.7609 40.21 20.7605 40.21 20.7601C40.21 20.7597 40.21 20.7593 40.21 20.7589C40.21 20.7585 40.21 20.7581 40.21 20.7577C40.21 20.7574 40.21 20.757 40.21 20.7566C40.21 20.7562 40.21 20.7558 40.21 20.7554C40.21 20.755 40.21 20.7546 40.21 20.7542C40.21 20.7538 40.21 20.7534 40.21 20.753C40.21 20.7526 40.21 20.7522 40.21 20.7518C40.21 20.7514 40.21 20.7511 40.21 20.7507C40.21 20.7503 40.21 20.7499 40.21 20.7495C40.21 20.7491 40.21 20.7487 40.21 20.7483C40.21 20.7479 40.21 20.7475 40.21 20.7471C40.21 20.7467 40.21 20.7463 40.21 20.7459C40.21 20.7455 40.21 20.7451 40.21 20.7447C40.21 20.7443 40.21 20.7439 40.21 20.7435C40.21 20.7431 40.21 20.7427 40.21 20.7423C40.21 20.7419 40.21 20.7414 40.21 20.741C40.21 20.7406 40.21 20.7402 40.21 20.7398C40.21 20.7394 40.21 20.739 40.21 20.7386C40.21 20.7382 40.21 20.7378 40.21 20.7374C40.21 20.737 40.21 20.7366 40.21 20.7362C40.21 20.7358 40.21 20.7354 40.21 20.735C40.21 20.7345 40.21 20.7341 40.21 20.7337C40.21 20.7333 40.21 20.7329 40.21 20.7325C40.21 20.7321 40.21 20.7317 40.21 20.7313C40.21 20.7309 40.21 20.7304 40.21 20.73C40.21 20.7296 40.21 20.7292 40.21 20.7288C40.21 20.7284 40.21 20.728 40.21 20.7276C40.21 20.7271 40.21 20.7267 40.21 20.7263C40.21 20.7259 40.21 20.7255 40.21 20.7251C40.21 20.7247 40.21 20.7242 40.21 20.7238C40.21 20.7234 40.21 20.723 40.21 20.7226C40.21 20.7222 40.21 20.7217 40.21 20.7213C40.21 20.7209 40.21 20.7205 40.21 20.7201C40.21 20.7196 40.21 20.7192 40.21 20.7188C40.21 20.7184 40.21 20.718 40.21 20.7175C40.21 20.7171 40.21 20.7167 40.21 20.7163C40.21 20.7159 40.21 20.7154 40.21 20.715C40.21 20.7146 40.21 20.7142 40.21 20.7137C40.21 20.7133 40.21 20.7129 40.21 20.7125C40.21 20.712 40.21 20.7116 40.21 20.7112C40.21 20.7108 40.21 20.7103 40.21 20.7099C40.21 20.7095 40.21 20.7091 40.21 20.7086C40.21 20.7082 40.21 20.7078 40.21 20.7074C40.21 20.7069 40.21 20.7065 40.21 20.7061C40.21 20.7056 40.21 20.7052 40.21 20.7048C40.21 20.7044 40.21 20.7039 40.21 20.7035C40.21 20.7031 40.21 20.7026 40.21 20.7022C40.21 20.7018 40.21 20.7013 40.21 20.7009C40.21 20.7005 40.21 20.7 40.21 20.6996C40.21 20.6992 40.21 20.6987 40.21 20.6983C40.21 20.6979 40.21 20.6974 40.21 20.697C40.21 20.6966 40.21 20.6961 40.21 20.6957C40.21 20.6953 40.21 20.6948 40.21 20.6944C40.21 20.6939 40.21 20.6935 40.21 20.6931C40.21 20.6926 40.21 20.6922 40.21 20.6918C40.21 20.6913 40.21 20.6909 40.21 20.6904C40.21 20.69 40.21 20.6896 40.21 20.6891C40.21 20.6887 40.21 20.6882 40.21 20.6878C40.21 20.6874 40.21 20.6869 40.21 20.6865C40.21 20.686 40.21 20.6856 40.21 20.6851C40.21 20.6847 40.21 20.6843 40.21 20.6838C40.21 20.6834 40.21 20.6829 40.21 20.6825C40.21 20.682 40.21 20.6816 40.21 20.6811C40.21 20.6807 40.21 20.6803 40.21 20.6798C40.21 20.6794 40.21 20.6789 40.21 20.6785C40.21 20.678 40.21 20.6776 40.21 20.6771C40.21 20.6767 40.21 20.6762 40.21 20.6758C40.21 20.6753 40.21 20.6749 40.21 20.6744C40.21 20.674 40.21 20.6735 40.21 20.6731C40.21 20.6726 40.21 20.6722 40.21 20.6717C40.21 20.6713 40.21 20.6708 40.21 20.6704C40.21 20.6699 40.21 20.6695 40.21 20.669C40.21 20.6685 40.21 20.6681 40.21 20.6676C40.21 20.6672 40.21 20.6667 40.21 20.6663C40.21 20.6658 40.21 20.6654 40.21 20.6649C40.21 20.6644 40.21 20.664 40.21 20.6635C40.21 20.6631 40.21 20.6626 40.21 20.6622C40.21 20.6617 40.21 20.6612 40.21 20.6608C40.21 20.6603 40.21 20.6599 40.21 20.6594C40.21 20.6589 40.21 20.6585 40.21 20.658C40.21 20.6576 40.21 20.6571 40.21 20.6566C40.21 20.6562 40.21 20.6557 40.21 20.6553C40.21 20.6548 40.21 20.6543 40.21 20.6539C40.21 20.6534 40.21 20.6529 40.21 20.6525C40.21 20.652 40.21 20.6515 40.21 20.6511C40.21 20.6506 40.21 20.6501 40.21 20.6497C40.21 20.6492 40.21 20.6487 40.21 20.6483C40.21 20.6478 40.21 20.6473 40.21 20.6469C40.21 20.6464 40.21 20.6459 40.21 20.6455C40.21 20.645 40.21 20.6445 40.21 20.6441C40.21 20.6436 40.21 20.6431 40.21 20.6427C40.21 20.6422 40.21 20.6417 40.21 20.6412C40.21 20.6408 40.21 20.6403 40.21 20.6398C40.21 20.6393 40.21 20.6389 40.21 20.6384C40.21 20.6379 40.21 20.6375 40.21 20.637C40.21 20.6365 40.21 20.636 40.21 20.6356C40.21 20.6351 40.21 20.6346 40.21 20.6341C40.21 20.6337 40.21 20.6332 40.21 20.6327C40.21 20.6322 40.21 20.6317 40.21 20.6313C40.21 20.6308 40.21 20.6303 40.21 20.6298C40.21 20.6294 40.21 20.6289 40.21 20.6284C40.21 20.6279 40.21 20.6274 40.21 20.627C40.21 20.6265 40.21 20.626 40.21 20.6255C40.21 20.625 40.21 20.6246 40.21 20.6241C40.21 20.6236 40.21 20.6231 40.21 20.6226C40.21 20.6221 40.21 20.6217 40.21 20.6212C40.21 20.6207 40.21 20.6202 40.21 20.6197C40.21 20.6192 40.21 20.6187 40.21 20.6183C40.21 20.6178 40.21 20.6173 40.21 20.6168C40.21 20.6163 40.21 20.6158 40.21 20.6153C40.21 20.6149 40.21 20.6144 40.21 20.6139C40.21 20.6134 40.21 20.6129 40.21 20.6124C40.21 20.6119 40.21 20.6114 40.21 20.6109C40.21 20.6105 40.21 20.61 40.21 20.6095C40.21 20.609 40.21 20.6085 40.21 20.608C40.21 20.6075 40.21 20.607 40.21 20.6065C40.21 20.606 40.21 20.6055 40.21 20.605C40.21 20.6045 40.21 20.604 40.21 20.6036C40.21 20.6031 40.21 20.6026 40.21 20.6021C40.21 20.6016 40.21 20.6011 40.21 20.6006C40.21 20.6001 40.21 20.5996 40.21 20.5991C40.21 20.5986 40.21 20.5981 40.21 20.5976C40.21 20.5971 40.21 20.5966 40.21 20.5961C40.21 20.5956 40.21 20.5951 40.21 20.5946C40.21 20.5941 40.21 20.5936 40.21 20.5931C40.21 20.5926 40.21 20.5921 40.21 20.5916C40.21 20.5911 40.21 20.5906 40.21 20.5901C40.21 20.5896 40.21 20.5891 40.21 20.5886C40.21 20.5881 40.21 20.5876 40.21 20.5871C40.21 20.5866 40.21 20.5861 40.21 20.5856C40.21 20.585 40.21 20.5845 40.21 20.584C40.21 20.5835 40.21 20.583 40.21 20.5825C40.21 20.582 40.21 20.5815 40.21 20.581C40.21 20.5805 40.21 20.58 40.21 20.5795C40.21 20.579 40.21 20.5784 40.21 20.5779C40.21 20.5774 40.21 20.5769 40.21 20.5764C40.21 20.5759 40.21 20.5754 40.21 20.5749C40.21 20.5744 40.21 20.5738 40.21 20.5733C40.21 20.5728 40.21 20.5723 40.21 20.5718C40.21 20.5713 40.21 20.5708 40.21 20.5703C40.21 20.5697 40.21 20.5692 40.21 20.5687C40.21 20.5682 40.21 20.5677 40.21 20.5672C40.21 20.5666 40.21 20.5661 40.21 20.5656C40.21 20.5651 40.21 20.5646 40.21 20.5641C40.21 20.5635 40.21 20.563 40.21 20.5625C40.21 20.562 40.21 20.5615 40.21 20.561C40.21 20.5604 40.21 20.5599 40.21 20.5594C40.21 20.5589 40.21 20.5583 40.21 20.5578C40.21 20.5573 40.21 20.5568 40.21 20.5563C40.21 20.5557 40.21 20.5552 40.21 20.5547C40.21 20.5542 40.21 20.5536 40.21 20.5531C40.21 20.5526 40.21 20.5521 40.21 20.5515C40.21 20.551 40.21 20.5505 40.21 20.55C40.21 20.5494 40.21 20.5489 40.21 20.5484C40.21 20.5479 40.21 20.5473 40.21 20.5468C40.21 20.5463 40.21 20.5458 40.21 20.5452C40.21 20.5447 40.21 20.5442 40.21 20.5436C40.21 20.5431 40.21 20.5426 40.21 20.5421C40.21 20.5415 40.21 20.541 40.21 20.5405C40.21 20.5399 40.21 20.5394 40.21 20.5389C40.21 20.5383 40.21 20.5378 40.21 20.5373C40.21 20.5367 40.21 20.5362 40.21 20.5357C40.21 20.5351 40.21 20.5346 40.21 20.5341C40.21 20.5335 40.21 20.533 40.21 20.5325C40.21 20.5319 40.21 20.5314 40.21 20.5308C40.21 20.5303 40.21 20.5298 40.21 20.5292C40.21 20.5287 40.21 20.5282 40.21 20.5276C40.21 20.5271 40.21 20.5265 40.21 20.526C40.21 20.5255 40.21 20.5249 40.21 20.5244C40.21 20.5238 40.21 20.5233 40.21 20.5228C40.21 20.5222 40.21 20.5217 40.21 20.5211C40.21 20.5206 40.21 20.5201 40.21 20.5195C40.21 20.519 40.21 20.5184 40.21 20.5179C40.21 20.5173 40.21 20.5168 40.21 20.5163C40.21 20.5157 40.21 20.5152 40.21 20.5146C40.21 20.5141 40.21 20.5135 40.21 20.513C40.21 20.5124 40.21 20.5119 40.21 20.5113C40.21 20.5108 40.21 20.5102 40.21 20.5097C40.21 20.5091 40.21 20.5086 40.21 20.5081C40.21 20.5075 40.21 20.507 40.21 20.5064C40.21 20.5059 40.21 20.5053 40.21 20.5048C40.21 20.5042 40.21 20.5037 40.21 20.5031C40.21 20.5025 40.21 20.502 40.21 20.5014C40.21 20.5009 40.21 20.5003 40.21 20.4998C40.21 20.4992 40.21 20.4987 40.21 20.4981C40.21 20.4976 40.21 20.497 40.21 20.4965C40.21 20.4959 40.21 20.4953 40.21 20.4948C40.21 20.4942 40.21 20.4937 40.21 20.4931C40.21 20.4926 40.21 20.492 40.21 20.4914C40.21 20.4909 40.21 20.4903 40.21 20.4898C40.21 20.4892 40.21 20.4887 40.21 20.4881C40.21 20.4875 40.21 20.487 40.21 20.4864C40.21 20.4859 40.21 20.4853 40.21 20.4847C40.21 20.4842 40.21 20.4836 40.21 20.483C40.21 20.4825 40.21 20.4819 40.21 20.4814C40.21 20.4808 40.21 20.4802 40.21 20.4797C40.21 20.4791 40.21 20.4785 40.21 20.478C40.21 20.4774 40.21 20.4768 40.21 20.4763C40.21 20.4757 40.21 20.4751 40.21 20.4746C40.21 20.474 40.21 20.4734 40.21 20.4729C40.21 20.4723 40.21 20.4717 40.21 20.4712C40.21 20.4706 40.21 20.47 40.21 20.4695C40.21 20.4689 40.21 20.4683 40.21 20.4678C40.21 20.4672 40.21 20.4666 40.21 20.466C40.21 20.4655 40.21 20.4649 40.21 20.4643C40.21 20.4638 40.21 20.4632 40.21 20.4626C40.21 20.462 40.21 20.4615 40.21 20.4609C40.21 20.4603 40.21 20.4597 40.21 20.4592C40.21 20.4586 40.21 20.458 40.21 20.4574C40.21 20.4569 40.21 20.4563 40.21 20.4557C40.21 20.4551 40.21 20.4546 40.21 20.454C40.21 20.4534 40.21 20.4528 40.21 20.4522C40.21 20.4517 40.21 20.4511 40.21 20.4505C40.21 20.4499 40.21 20.4493 40.21 20.4488C40.21 20.4482 40.21 20.4476 40.21 20.447C40.21 20.4464 40.21 20.4459 40.21 20.4453C40.21 20.4447 40.21 20.4441 40.21 20.4435C40.21 20.443 40.21 20.4424 40.21 20.4418C40.21 20.4412 40.21 20.4406 40.21 20.44C40.21 20.4394 40.21 20.4389 40.21 20.4383C40.21 20.4377 40.21 20.4371 40.21 20.4365C40.21 20.4359 40.21 20.4353 40.21 20.4348C40.21 20.4342 40.21 20.4336 40.21 20.433C40.21 20.4324 40.21 20.4318 40.21 20.4312C40.21 20.4306 40.21 20.4301 40.21 20.4295C40.21 20.4289 40.21 20.4283 40.21 20.4277C40.21 20.4271 40.21 20.4265 40.21 20.4259C40.21 20.4253 40.21 20.4247 40.21 20.4241C40.21 20.4235 40.21 20.423 40.21 20.4224C40.21 20.4218 40.21 20.4212 40.21 20.4206C40.21 20.42 40.21 20.4194 40.21 20.4188C40.21 20.4182 40.21 20.4176 40.21 20.417C40.21 20.4164 40.21 20.4158 40.21 20.4152C40.21 20.4146 40.21 20.414 40.21 20.4134C40.21 20.4128 40.21 20.4122 40.21 20.4116C40.21 20.411 40.21 20.4104 40.21 20.4098C40.21 20.4092 40.21 20.4086 40.21 20.408C40.21 20.4074 40.21 20.4068 40.21 20.4062C40.21 20.4056 40.21 20.405 40.21 20.4044C40.21 20.4038 40.21 20.4032 40.21 20.4026C40.21 20.402 40.21 20.4014 40.21 20.4008C40.21 20.4002 40.21 20.3996 40.21 20.399C40.21 20.3984 40.21 20.3978 40.21 20.3972C40.21 20.3966 40.21 20.396 40.21 20.3954C40.21 20.3947 40.21 20.3941 40.21 20.3935C40.21 20.3929 40.21 20.3923 40.21 20.3917C40.21 20.3911 40.21 20.3905 40.21 20.3899C40.21 20.3893 40.21 20.3887 40.21 20.388C40.21 20.3874 40.21 20.3868 40.21 20.3862C40.21 20.3856 40.21 20.385 40.21 20.3844C40.21 20.3838 40.21 20.3832 40.21 20.3825C40.21 20.3819 40.21 20.3813 40.21 20.3807C40.21 20.3801 40.21 20.3795 40.21 20.3789C40.21 20.3782 40.21 20.3776 40.21 20.377C40.21 20.3764 40.21 20.3758 40.21 20.3752C40.21 20.3745 40.21 20.3739 40.21 20.3733C40.21 20.3727 40.21 20.3721 40.21 20.3715C40.21 20.3708 40.21 20.3702 40.21 20.3696C40.21 20.369 40.21 20.3684 40.21 20.3677C40.21 20.3671 40.21 20.3665 40.21 20.3659C40.21 20.3653 40.21 20.3646 40.21 20.364C40.21 20.3634 40.21 20.3628 40.21 20.3621C40.21 20.3615 40.21 20.3609 40.21 20.3603C40.21 20.3597 40.21 20.359 40.21 20.3584C40.21 20.3578 40.21 20.3572 40.21 20.3565C40.21 20.3559 40.21 20.3553 40.21 20.3547C40.21 20.354 40.21 20.3534 40.21 20.3528C40.21 20.3521 40.21 20.3515 40.21 20.3509C40.21 20.3503 40.21 20.3496 40.21 20.349C40.21 20.3484 40.21 20.3477 40.21 20.3471C40.21 20.3465 40.21 20.3459 40.21 20.3452C40.21 20.3446 40.21 20.344 40.21 20.3433C40.21 20.3427 40.21 20.3421 40.21 20.3414C40.21 20.3408 40.21 20.3402 40.21 20.3395C40.21 20.3389 40.21 20.3383 40.21 20.3376C40.21 20.337 40.21 20.3364 40.21 20.3357C40.21 20.3351 40.21 20.3345 40.21 20.3338C40.21 20.3332 40.21 20.3325 40.21 20.3319C40.21 20.3313 40.21 20.3306 40.21 20.33H38.21ZM38.21 20.96C38.21 21.3933 38.1883 21.8267 38.145 22.2605L40.135 22.4595C40.185 21.9599 40.21 21.4601 40.21 20.96H38.21ZM38.1461 22.2496C38.0995 22.6696 38.0528 23.0896 38.0061 23.5096L39.9939 23.7304C40.0406 23.3104 40.0872 22.8904 40.1339 22.4704L38.1461 22.2496ZM38.0037 23.5341C37.77 26.245 37.5596 28.8861 37.3726 31.4575L39.3674 31.6025C39.5537 29.0406 39.7633 26.4083 39.9963 23.7059L38.0037 23.5341ZM37.3715 31.4745C37.2306 34.0107 37.16 36.4094 37.16 38.67H39.16C39.16 36.4506 39.2294 34.0893 39.3685 31.5855L37.3715 31.4745ZM37.16 38.67C37.16 43.4268 37.5358 47.3664 38.3099 50.4625L40.2501 49.9775C39.5308 47.1002 39.16 43.3399 39.16 38.67H37.16ZM38.3145 50.4805C38.7301 52.0205 39.294 53.2838 40.0607 54.1783C40.8549 55.1048 41.8673 55.63 43.06 55.63V53.63C42.5261 53.63 42.0451 53.4202 41.5793 52.8767C41.086 52.3012 40.6232 51.3594 40.2455 49.9595L38.3145 50.4805ZM43.06 55.63C44.2945 55.63 45.4926 54.8922 46.6212 53.8126L45.2388 52.3674C44.2208 53.3411 43.5055 53.63 43.06 53.63V55.63ZM46.6219 53.812C47.8071 52.6762 48.9948 51.2166 50.1886 49.4499L48.5314 48.3301C47.3918 50.0167 46.2929 51.3572 45.2381 52.368L46.6219 53.812ZM50.1853 49.4547C51.4101 47.6646 52.6336 45.7587 53.8557 43.7374L52.1443 42.7026C50.9398 44.6946 49.7365 46.5688 48.5347 48.3253L50.1853 49.4547ZM53.8609 43.7287C55.084 41.6589 56.2138 39.6112 57.2502 37.5855L55.4698 36.6745C54.4528 38.6621 53.3427 40.6744 52.1391 42.7113L53.8609 43.7287ZM57.2418 37.6016C58.321 35.5841 59.2391 33.7717 59.9948 32.1658L58.1852 31.3142C57.4476 32.8816 56.5457 34.6626 55.4782 36.6583L57.2418 37.6016ZM59.9895 32.1769C60.784 30.5412 61.3734 29.2921 61.7538 28.4361L59.9262 27.6239C59.56 28.4479 58.9827 29.6722 58.1905 31.3031L59.9895 32.1769ZM61.7538 28.4361L63.7138 24.0261L61.8862 23.2139L59.9262 27.6239L61.7538 28.4361ZM63.7149 24.0236C64.4168 22.4327 64.9197 21.2138 65.213 20.3828L63.327 19.7172C63.0603 20.4728 62.5832 21.634 61.8851 23.2164L63.7149 24.0236ZM65.2187 20.3662C65.4805 19.5808 65.7371 19.2025 65.9085 19.0526L64.5915 17.5474C64.0162 18.0508 63.6195 18.8392 63.3213 19.7338L65.2187 20.3662ZM65.9085 19.0526C65.9899 18.9814 66.3396 18.81 67.28 18.81V16.81C66.2604 16.81 65.2568 16.9653 64.5915 17.5474L65.9085 19.0526ZM67.28 18.81H67.56V16.81H67.28V18.81ZM67.56 18.81C67.7906 18.81 67.986 18.8428 68.1538 18.8987L68.7862 17.0013C68.394 16.8706 67.9828 16.81 67.56 16.81V18.81ZM68.3056 18.9364C68.2531 18.9276 67.9999 18.8608 67.8556 18.5722C67.7382 18.3375 67.8071 18.17 67.7885 18.2353L69.7115 18.7847C69.7862 18.5233 69.8551 18.0992 69.6444 17.6778C69.4068 17.2025 68.9669 17.019 68.6344 16.9636L68.3056 18.9364ZM67.8137 18.1589C66.8159 20.8197 65.9406 23.7791 65.1858 27.0341L67.1342 27.4859C67.8727 24.3009 68.7241 21.427 69.6863 18.8611L67.8137 18.1589ZM65.1835 27.0446C64.4765 30.2493 63.9114 33.5466 63.4877 36.936L65.4723 37.184C65.8886 33.8534 66.4435 30.6173 67.1365 27.4754L65.1835 27.0446ZM63.4861 36.9496C63.1089 40.3444 62.92 43.6713 62.92 46.93H64.92C64.92 43.7487 65.1044 40.4956 65.4739 37.1704L63.4861 36.9496ZM62.92 46.93C62.92 49.3886 63.0382 51.7567 63.2754 54.0336L65.2646 53.8264C65.0351 51.6233 64.92 49.3247 64.92 46.93H62.92ZM63.2777 54.054C63.5637 56.3419 63.9948 58.4094 64.5764 60.2511L66.4836 59.6489C65.9452 57.944 65.5363 55.9981 65.2623 53.806L63.2777 54.054ZM64.5813 60.2662C64.5791 60.2595 64.5846 60.2742 64.5902 60.319C64.5957 60.3628 64.6 60.4254 64.6 60.51H66.6C66.6 60.2241 66.5732 59.9173 66.4787 59.6338L64.5813 60.2662ZM64.6 60.51C64.6 60.6107 64.5803 60.6289 64.5918 60.6089C64.5969 60.5998 64.6038 60.5916 64.6093 60.5866C64.6142 60.5821 64.6111 60.5864 64.5928 60.5956L65.4872 62.3844C65.8304 62.2128 66.1264 61.9544 66.3282 61.6011C66.5264 61.2544 66.6 60.876 66.6 60.51H64.6ZM64.5439 60.6218C64.3671 60.7228 64.1879 60.77 63.99 60.77V62.77C64.5388 62.77 65.0596 62.6305 65.5361 62.3582L64.5439 60.6218ZM63.99 60.77C64.0351 60.77 64.0255 60.7896 63.9455 60.7318C63.8576 60.6683 63.7227 60.5371 63.5522 60.2908L61.9078 61.4292C62.3759 62.1054 63.0568 62.77 63.99 62.77V60.77ZM63.5522 60.2908C63.2431 59.8443 62.9516 59.109 62.7306 58.0039L60.7694 58.3961C61.0151 59.6244 61.3769 60.6624 61.9078 61.4292L63.5522 60.2908ZM62.7285 57.994C62.5569 57.1786 62.3971 55.8131 62.2575 53.8587L60.2625 54.0012C60.4029 55.9668 60.5698 57.4481 60.7714 58.406L62.7285 57.994ZM62.2575 53.8587C62.1198 51.931 62.05 49.5066 62.05 46.58H60.05C60.05 49.5334 60.1202 52.009 60.2625 54.0012L62.2575 53.8587ZM62.05 46.58C62.05 40.6749 62.6497 34.8398 63.849 29.0736L61.891 28.6664C60.6637 34.5668 60.05 40.5384 60.05 46.58H62.05ZM61.9734 28.4272C60.1132 32.194 58.2305 35.7967 56.3253 39.2354L58.0747 40.2046C59.9962 36.7366 61.8935 33.106 63.7666 29.3128L61.9734 28.4272ZM56.3253 39.2354C54.4256 42.6641 52.5541 45.6898 50.7114 48.3156L52.3486 49.4644C54.2393 46.7702 56.1478 43.6826 58.0747 40.2046L56.3253 39.2354ZM50.7047 48.3253C48.914 50.9425 47.1923 52.974 45.5444 54.4437L46.8756 55.9363C48.6811 54.326 50.506 52.1575 52.3553 49.4547L50.7047 48.3253ZM45.5343 54.4528C43.9519 55.9034 42.5728 56.5 41.38 56.5V58.5C43.2672 58.5 45.1081 57.5566 46.8857 55.9272L45.5343 54.4528ZM41.38 56.5C40.4253 56.5 39.4862 55.9288 38.6388 54.1916L36.8412 55.0684C37.8605 57.1579 39.348 58.5 41.38 58.5V56.5ZM38.6473 54.2095C37.8182 52.4204 37.1837 50.0083 36.7711 46.9369L34.7889 47.2031C35.2163 50.3851 35.8885 53.013 36.8327 55.0505L38.6473 54.2095ZM36.7711 46.9369C36.3578 43.8599 36.15 40.5448 36.15 36.99H34.15C34.15 40.6219 34.3622 44.0268 34.7889 47.2031L36.7711 46.9369ZM36.15 36.99C36.15 34.8651 36.2193 32.7163 36.358 30.5437L34.362 30.4163C34.2207 32.6303 34.15 34.8216 34.15 36.99H36.15ZM36.358 30.5437C36.497 28.3662 36.6821 26.2835 36.9133 24.2955L34.9267 24.0645C34.6912 26.0898 34.503 28.2071 34.362 30.4163L36.358 30.5437ZM34.9969 23.7954C34.5343 24.9058 33.7909 26.6249 32.7647 28.9573L34.5953 29.7627C35.6224 27.4284 36.3724 25.6942 36.8431 24.5646L34.9969 23.7954ZM32.758 28.9728C31.7804 31.3005 30.6391 33.9558 29.3338 36.9392L31.1662 37.7408C32.4743 34.7508 33.6196 32.0862 34.602 29.7472L32.758 28.9728ZM29.3286 36.9513C28.0692 39.9367 26.763 43.0155 25.4102 46.1877L27.2498 46.9723C28.6037 43.7978 29.9108 40.7166 31.1714 37.7287L29.3286 36.9513ZM25.4053 46.1992C24.0969 49.3769 22.8816 52.3918 21.7594 55.2439L23.6206 55.9761C24.7384 53.1349 25.9498 50.1298 27.2547 46.9607L25.4053 46.1992ZM21.7615 55.2386C20.6365 58.0511 19.7414 60.4762 19.0791 62.5104L20.9809 63.1296C21.6252 61.1505 22.5035 58.7689 23.6185 55.9814L21.7615 55.2386ZM19.0599 62.5775C19.001 62.813 18.9287 62.8821 18.9134 62.8951C18.9075 62.9 18.8653 62.94 18.7 62.94V64.94C19.2347 64.94 19.7642 64.7933 20.2016 64.4249C20.6296 64.0645 20.8724 63.5737 21.0001 63.0625L19.0599 62.5775Z" fill="white"/>
<path d="M33.3934 9.63252L26.6852 38.7014L21.0611 65.6579" stroke="#020721" stroke-width="15"/>
<path d="M10.8542 57.5332C8.84731 57.4105 7.30506 56.6576 6.22749 55.2745C5.14991 53.8915 4.67721 52.1194 4.8094 49.9581C4.85425 49.2248 5.05035 48.8687 5.3977 48.89C5.62927 48.9041 5.75019 49.144 5.76046 49.6095C5.86054 50.5066 6.11147 51.471 6.51323 52.5028C6.91263 53.5732 7.49633 54.4805 8.26432 55.2248C9.02996 56.0077 9.99169 56.4345 11.1495 56.5053C12.4617 56.5856 13.6841 56.2342 14.8167 55.4512C15.9493 54.6683 17.0031 53.5899 17.9781 52.2162C18.9531 50.8425 19.8423 49.2892 20.6456 47.5564C21.4851 45.8645 22.2112 44.1269 22.8239 42.3436C23.1963 41.3204 23.6106 39.9318 24.0665 38.1777C24.5634 36.3874 25.0926 34.3859 25.654 32.1734C26.2541 29.9633 26.8383 27.694 27.4069 25.3657C27.9754 23.0374 28.5369 20.8249 29.0912 18.7282C29.6456 16.6314 30.1449 14.8025 30.589 13.2414C28.775 13.1304 26.9347 13.1341 25.068 13.2524L24.6592 13.2855C24.3505 13.2666 24.0646 13.191 23.8015 13.0587C23.577 12.9287 23.4695 12.7866 23.4789 12.6322C23.4884 12.4778 23.6498 12.3715 23.9633 12.3132C24.3177 12.2186 24.5154 12.1532 24.5564 12.117C25.1085 11.9571 25.7729 11.8621 26.5495 11.8321C27.3285 11.7636 28.0677 11.7119 28.7671 11.6772C29.5051 11.6449 30.049 11.6201 30.3987 11.6027C30.6444 11.3853 31.1012 11.2002 31.7691 11.0473C32.4756 10.8969 32.9833 10.8311 33.292 10.8499C33.7166 10.8759 33.9025 11.0035 33.8497 11.2327C33.8355 11.4643 33.9045 11.6041 34.0565 11.6521C34.1699 11.6978 34.3991 11.7505 34.7441 11.8104C35.13 11.834 35.5341 11.8781 35.9563 11.9426C36.1879 11.9568 36.6486 12.0237 37.3386 12.1434C38.031 12.2245 38.7198 12.3634 39.405 12.5603C40.1289 12.7595 40.5778 13.0194 40.7519 13.34C40.8992 13.4652 40.9681 13.605 40.9587 13.7594C40.9516 13.8752 40.8516 13.9272 40.6586 13.9154C40.3499 13.8965 39.83 13.8453 39.0991 13.7619C38.4067 13.6808 37.4624 13.6037 36.2659 13.5305C35.7256 13.4974 35.1262 13.4802 34.4677 13.4786C33.8093 13.4771 33.4151 13.5886 33.2851 13.813C32.5213 16.1681 31.7854 18.6993 31.0774 21.4064C30.3719 24.075 29.6651 26.7629 28.9572 29.47C28.2902 32.141 27.6111 34.6949 26.9197 37.1319C26.2669 39.5713 25.5932 41.7188 24.8986 43.5746C23.9709 46.0746 22.8404 48.4073 21.507 50.5726C20.2099 52.7788 18.6698 54.5247 16.8867 55.8103C15.1421 57.0982 13.1313 57.6725 10.8542 57.5332Z" fill="white"/>
<path d="M6.22749 55.2745L7.41073 54.3526L7.41073 54.3526L6.22749 55.2745ZM5.76046 49.6095L4.26082 49.6425L4.2623 49.7094L4.26971 49.7758L5.76046 49.6095ZM6.51323 52.5028L7.91858 51.9784L7.91486 51.9685L7.911 51.9586L6.51323 52.5028ZM8.26432 55.2248L9.33672 54.176L9.32266 54.1616L9.30821 54.1476L8.26432 55.2248ZM14.8167 55.4512L13.9637 54.2174L14.8167 55.4512ZM17.9781 52.2162L16.7549 51.348L16.7549 51.348L17.9781 52.2162ZM20.6456 47.5564L19.3019 46.8896L19.293 46.9074L19.2847 46.9255L20.6456 47.5564ZM22.8239 42.3436L21.4144 41.8305L21.4097 41.8433L21.4052 41.8562L22.8239 42.3436ZM24.0665 38.1777L22.6211 37.7766L22.6178 37.7884L22.6147 37.8004L24.0665 38.1777ZM25.654 32.1734L24.2064 31.7804L24.2032 31.7924L24.2001 31.8045L25.654 32.1734ZM27.4069 25.3657L25.9497 25.0099L25.9497 25.0099L27.4069 25.3657ZM29.0912 18.7282L27.6411 18.3448L27.6411 18.3448L29.0912 18.7282ZM30.589 13.2414L32.0317 13.6518L32.5421 11.858L30.6806 11.7442L30.589 13.2414ZM25.068 13.2524L24.9732 11.7554L24.9601 11.7562L24.9469 11.7573L25.068 13.2524ZM24.6592 13.2855L24.5677 14.7827L24.6741 14.7892L24.7803 14.7806L24.6592 13.2855ZM23.8015 13.0587L23.05 14.3569L23.0882 14.3789L23.1275 14.3988L23.8015 13.0587ZM23.9633 12.3132L24.2376 13.7879L24.2942 13.7773L24.3499 13.7625L23.9633 12.3132ZM24.5564 12.117L24.1391 10.6762L23.8151 10.7701L23.5625 10.9936L24.5564 12.117ZM26.5495 11.8321L26.6073 13.331L26.6442 13.3296L26.681 13.3264L26.5495 11.8321ZM28.7671 11.6772L28.7014 10.1787L28.6928 10.1791L28.7671 11.6772ZM30.3987 11.6027L30.473 13.1009L30.9985 13.0748L31.3926 12.7261L30.3987 11.6027ZM31.7691 11.0473L31.4566 9.58024L31.4456 9.5826L31.4345 9.58513L31.7691 11.0473ZM33.8497 11.2327L32.3879 10.8962L32.3601 11.0172L32.3525 11.1411L33.8497 11.2327ZM34.0565 11.6521L34.6168 10.2607L34.5634 10.2392L34.5084 10.2218L34.0565 11.6521ZM34.7441 11.8104L34.4877 13.2883L34.5696 13.3025L34.6525 13.3076L34.7441 11.8104ZM35.9563 11.9426L35.7295 13.4254L35.7968 13.4357L35.8647 13.4398L35.9563 11.9426ZM37.3386 12.1434L37.0823 13.6213L37.123 13.6284L37.1641 13.6332L37.3386 12.1434ZM39.405 12.5603L38.9908 14.002L38.9989 14.0043L39.007 14.0065L39.405 12.5603ZM40.7519 13.34L39.4338 14.0559L39.5672 14.3017L39.7803 14.4828L40.7519 13.34ZM39.0991 13.7619L38.9246 15.2517L38.9289 15.2522L39.0991 13.7619ZM34.4677 13.4786L34.4642 14.9786L34.4642 14.9786L34.4677 13.4786ZM33.2851 13.813L31.9869 13.0616L31.9073 13.1991L31.8583 13.3503L33.2851 13.813ZM31.0774 21.4064L32.5276 21.7899L32.5286 21.7859L31.0774 21.4064ZM28.9572 29.47L27.506 29.0905L27.5039 29.0986L27.5019 29.1066L28.9572 29.47ZM26.9197 37.1319L25.4766 36.7225L25.4736 36.7333L25.4707 36.7442L26.9197 37.1319ZM24.8986 43.5746L23.4938 43.0488L23.4923 43.0527L24.8986 43.5746ZM21.507 50.5726L20.2298 49.7861L20.2217 49.7991L20.214 49.8123L21.507 50.5726ZM16.8867 55.8103L16.0094 54.5935L16.0026 54.5985L15.9958 54.6035L16.8867 55.8103ZM10.9458 56.036C9.29859 55.9353 8.18362 55.3446 7.41073 54.3526L5.04424 56.1965C6.4265 57.9706 8.39603 58.8857 10.7627 59.0304L10.9458 56.036ZM7.41073 54.3526C6.60725 53.3214 6.19127 51.9354 6.30661 50.0496L3.3122 49.8665C3.16316 52.3033 3.69257 54.4616 5.04424 56.1965L7.41073 54.3526ZM6.30661 50.0496C6.31444 49.9215 6.32713 49.8429 6.336 49.8028C6.34583 49.7583 6.34431 49.7916 6.30399 49.8648C6.26156 49.9418 6.15736 50.0956 5.95229 50.2219C5.73319 50.3569 5.49846 50.3989 5.30613 50.3872L5.48928 47.3928C5.12328 47.3704 4.73378 47.449 4.37881 47.6677C4.03788 47.8777 3.81672 48.1623 3.67624 48.4174C3.41638 48.8892 3.33895 49.4292 3.3122 49.8665L6.30661 50.0496ZM5.30613 50.3872C5.10111 50.3746 4.87549 50.3053 4.67372 50.1599C4.4815 50.0214 4.37568 49.8609 4.32268 49.7558C4.23413 49.5801 4.25751 49.4923 4.26082 49.6425L7.26009 49.5764C7.25314 49.2612 7.21093 48.8206 7.00146 48.4052C6.74596 47.8984 6.2306 47.4381 5.48928 47.3928L5.30613 50.3872ZM4.26971 49.7758C4.38707 50.8277 4.67666 51.9202 5.11545 53.0471L7.911 51.9586C7.54627 51.0219 7.33402 50.1855 7.25121 49.4432L4.26971 49.7758ZM5.10788 53.0272C5.57977 54.2919 6.28159 55.3921 7.22043 56.302L9.30821 54.1476C8.71106 53.5689 8.24549 52.8545 7.91858 51.9784L5.10788 53.0272ZM7.19192 56.2736C8.234 57.3391 9.55298 57.9105 11.058 58.0025L11.2411 55.0081C10.4304 54.9585 9.82591 54.6762 9.33672 54.176L7.19192 56.2736ZM11.058 58.0025C12.7223 58.1043 14.2748 57.6495 15.6697 56.6851L13.9637 54.2174C13.0935 54.819 12.2012 55.0668 11.2411 55.0081L11.058 58.0025ZM15.6697 56.6851C16.9741 55.7833 18.147 54.5698 19.2013 53.0844L16.7549 51.348C15.8592 52.61 14.9245 53.5532 13.9637 54.2174L15.6697 56.6851ZM19.2013 53.0844C20.2359 51.6268 21.1696 49.9924 22.0065 48.1872L19.2847 46.9255C18.5149 48.586 17.6704 50.0582 16.7549 51.348L19.2013 53.0844ZM21.9892 48.2231C22.8575 46.4732 23.6087 44.6757 24.2425 42.831L21.4052 41.8562C20.8137 43.578 20.1126 45.2557 19.3019 46.8896L21.9892 48.2231ZM24.2334 42.8568C24.6292 41.7695 25.0571 40.3293 25.5183 38.5551L22.6147 37.8004C22.164 39.5343 21.7635 40.8714 21.4144 41.8305L24.2334 42.8568ZM25.5119 38.5789C26.0123 36.7757 26.5443 34.7633 27.1079 32.5424L24.2001 31.8045C23.6408 34.0085 23.1145 35.999 22.6211 37.7766L25.5119 38.5789ZM27.1016 32.5664C27.7052 30.3434 28.2926 28.0617 28.8641 25.7216L25.9497 25.0099C25.3841 27.3263 24.803 29.5832 24.2064 31.7804L27.1016 32.5664ZM28.8641 25.7216C29.4306 23.4015 29.9897 21.1983 30.5414 19.1116L27.6411 18.3448C27.084 20.4516 26.5202 22.6733 25.9497 25.0099L28.8641 25.7216ZM30.5414 19.1116C31.0941 17.0211 31.5908 15.2016 32.0317 13.6518L29.1462 12.8309C28.6989 14.4034 28.1971 16.2418 27.6411 18.3448L30.5414 19.1116ZM30.6806 11.7442C28.8028 11.6293 26.9001 11.6333 24.9732 11.7554L25.1629 14.7494C26.9693 14.6349 28.7473 14.6315 30.4974 14.7386L30.6806 11.7442ZM24.9469 11.7573L24.5382 11.7904L24.7803 14.7806L25.1891 14.7475L24.9469 11.7573ZM24.7508 11.7883C24.6344 11.7811 24.5479 11.7551 24.4754 11.7186L23.1275 14.3988C23.5812 14.6269 24.0666 14.752 24.5677 14.7827L24.7508 11.7883ZM24.553 11.7605C24.553 11.7605 24.5734 11.7722 24.6059 11.7988C24.6381 11.8252 24.6915 11.8739 24.7488 11.9498C24.8762 12.1181 24.9965 12.3898 24.9761 12.7238L21.9817 12.5406C21.9182 13.5789 22.6875 14.147 23.05 14.3569L24.553 11.7605ZM24.9761 12.7238C24.9624 12.9478 24.8896 13.1638 24.769 13.3477C24.6546 13.5223 24.5229 13.6296 24.4322 13.6894C24.272 13.7948 24.1661 13.8012 24.2376 13.7879L23.689 10.8385C23.447 10.8835 23.1036 10.9721 22.782 11.1839C22.4163 11.4248 22.0224 11.8752 21.9817 12.5406L24.9761 12.7238ZM24.3499 13.7625C24.5377 13.7124 24.7084 13.6637 24.8484 13.6173C24.9168 13.5947 25.0001 13.5654 25.0839 13.5297C25.1143 13.5168 25.3397 13.4268 25.5503 13.2404L23.5625 10.9936C23.627 10.9365 23.6841 10.8962 23.7218 10.8714C23.7611 10.8455 23.7945 10.8264 23.8178 10.8138C23.8628 10.7894 23.8964 10.7747 23.9086 10.7696C23.923 10.7634 23.9304 10.7608 23.928 10.7617C23.9261 10.7624 23.9193 10.7648 23.9064 10.7691C23.88 10.7778 23.8396 10.7904 23.7824 10.8069C23.7259 10.8233 23.6577 10.8422 23.5767 10.8638L24.3499 13.7625ZM24.9737 13.5578C25.376 13.4412 25.9129 13.3578 26.6073 13.331L26.4916 10.3333C25.6329 10.3664 24.841 10.4729 24.1391 10.6762L24.9737 13.5578ZM26.681 13.3264C27.4431 13.2593 28.1631 13.209 28.8414 13.1754L28.6928 10.1791C27.9722 10.2148 27.2138 10.2679 26.418 10.3379L26.681 13.3264ZM28.8327 13.1758C29.5712 13.1434 30.1187 13.1184 30.473 13.1009L30.3243 10.1046C29.9792 10.1217 29.439 10.1464 28.7014 10.1787L28.8327 13.1758ZM31.3926 12.7261C31.3411 12.7717 31.347 12.7485 31.489 12.691C31.6208 12.6376 31.8202 12.5744 32.1037 12.5095L31.4345 9.58513C30.7337 9.74551 29.9525 9.99469 29.4047 10.4793L31.3926 12.7261ZM32.0816 12.5144C32.4099 12.4445 32.6714 12.3987 32.8726 12.3727C32.9724 12.3597 33.0504 12.3526 33.1092 12.3492C33.1382 12.3475 33.1604 12.3469 33.1765 12.3468C33.1844 12.3467 33.1904 12.3468 33.1945 12.3469C33.1986 12.347 33.2006 12.3471 33.2005 12.3471L33.3836 9.35273C32.8516 9.3202 32.1668 9.42899 31.4566 9.58024L32.0816 12.5144ZM33.2005 12.3471C33.2439 12.3498 33.2384 12.3529 33.1998 12.3431C33.1667 12.3348 33.0469 12.3019 32.901 12.2018C32.7411 12.0921 32.5491 11.8988 32.4392 11.6042C32.3313 11.3151 32.3508 11.0576 32.3879 10.8962L35.3115 11.5692C35.375 11.2932 35.3911 10.9338 35.2499 10.5555C35.1067 10.1717 34.8515 9.90191 34.5987 9.72837C34.1588 9.42645 33.6647 9.36993 33.3836 9.35273L33.2005 12.3471ZM32.3525 11.1411C32.3367 11.3994 32.3525 11.7834 32.5454 12.1745C32.7653 12.6205 33.1487 12.9383 33.6045 13.0824L34.5084 10.2218C34.8123 10.3178 35.0852 10.5417 35.2361 10.8479C35.3601 11.0993 35.3485 11.2976 35.3469 11.3243L32.3525 11.1411ZM33.4962 13.0435C33.7798 13.1578 34.1642 13.2322 34.4877 13.2883L35.0004 10.3324C34.8432 10.3052 34.7286 10.2823 34.6499 10.2642C34.611 10.2552 34.5879 10.249 34.5774 10.246C34.5639 10.2421 34.5812 10.2463 34.6168 10.2607L33.4962 13.0435ZM34.6525 13.3076C34.9888 13.3281 35.3476 13.367 35.7295 13.4254L36.183 10.4599C35.7206 10.3891 35.2713 10.3398 34.8357 10.3132L34.6525 13.3076ZM35.8647 13.4398C35.9994 13.4481 36.3781 13.4992 37.0823 13.6213L37.595 10.6655C36.9191 10.5482 36.3763 10.4655 36.0479 10.4454L35.8647 13.4398ZM37.1641 13.6332C37.7736 13.7046 38.3822 13.8272 38.9908 14.002L39.8192 11.1186C39.0573 10.8997 38.2883 10.7444 37.5131 10.6536L37.1641 13.6332ZM39.007 14.0065C39.2952 14.0859 39.457 14.1587 39.5332 14.2028C39.6145 14.2499 39.5228 14.2198 39.4338 14.0559L42.0701 12.6241C41.807 12.1397 41.4037 11.8193 41.0361 11.6065C40.6633 11.3907 40.2387 11.234 39.8031 11.1141L39.007 14.0065ZM39.7803 14.4828C39.7344 14.4437 39.6438 14.3543 39.5687 14.2021C39.4887 14.0398 39.4502 13.8533 39.4615 13.6678L42.4559 13.851C42.5013 13.1084 42.1308 12.5434 41.7235 12.1972L39.7803 14.4828ZM39.4615 13.6678C39.4727 13.4847 39.5267 13.2542 39.6716 13.0271C39.8178 12.7981 40.0097 12.6462 40.1866 12.5543C40.4941 12.3944 40.7458 12.4179 40.7502 12.4182L40.5671 15.4126C40.7644 15.4246 41.1626 15.428 41.5702 15.2162C42.1041 14.9387 42.4213 14.4161 42.4559 13.851L39.4615 13.6678ZM40.7502 12.4182C40.4847 12.4019 39.9997 12.355 39.2692 12.2716L38.9289 15.2522C39.6603 15.3357 40.215 15.391 40.5671 15.4126L40.7502 12.4182ZM39.2736 12.2721C38.541 12.1863 37.565 12.1071 36.3575 12.0333L36.1744 15.0277C37.3597 15.1002 38.2725 15.1753 38.9246 15.2517L39.2736 12.2721ZM36.3575 12.0333C35.7824 11.9981 35.1531 11.9802 34.4712 11.9786L34.4642 14.9786C35.0994 14.9801 35.6688 14.9968 36.1744 15.0277L36.3575 12.0333ZM34.4712 11.9786C34.0762 11.9777 33.657 12.0083 33.2701 12.1177C32.9071 12.2203 32.3344 12.4613 31.9869 13.0616L34.5833 14.5645C34.4743 14.7529 34.3374 14.8673 34.2416 14.9287C34.1508 14.9869 34.0877 15.0041 34.0864 15.0045C34.0826 15.0056 34.1098 14.9978 34.1792 14.9905C34.247 14.9835 34.3406 14.9783 34.4642 14.9786L34.4712 11.9786ZM31.8583 13.3503C31.0844 15.7361 30.3406 18.2953 29.6262 21.0269L32.5286 21.7859C33.2302 19.1032 33.9581 16.6001 34.7119 14.2758L31.8583 13.3503ZM29.6273 21.023C28.9214 23.6929 28.2143 26.3821 27.506 29.0905L30.4084 29.8495C31.116 27.1437 31.8224 24.4571 32.5276 21.7899L29.6273 21.023ZM27.5019 29.1066C26.8384 31.7635 26.1633 34.302 25.4766 36.7225L28.3627 37.5413C29.0588 35.0878 29.742 32.5185 30.4125 29.8334L27.5019 29.1066ZM25.4707 36.7442C24.8271 39.1488 24.1675 41.2486 23.4938 43.0488L26.3034 44.1004C27.0188 42.1891 27.7066 39.9938 28.3687 37.5197L25.4707 36.7442ZM23.4923 43.0527C22.5972 45.465 21.5091 47.7085 20.2298 49.7861L22.7843 51.3591C24.1717 49.106 25.3446 46.6842 26.3049 44.0964L23.4923 43.0527ZM20.214 49.8123C19.0051 51.8684 17.5983 53.448 16.0094 54.5935L17.7639 57.027C19.7413 55.6015 21.4147 53.6892 22.8001 51.3328L20.214 49.8123ZM15.9958 54.6035C14.5501 55.6708 12.8913 56.155 10.9458 56.036L10.7627 59.0304C13.3713 59.19 15.7342 58.5256 17.7776 57.0171L15.9958 54.6035Z" fill="white"/>
</g>
<defs>
<clipPath id="clip0_99_2">
<rect x="0.00012207" y="3.05176e-05" width="80" height="80" rx="40" fill="white"/>
</clipPath>
</defs>
</svg>
